<svg xmlns="http://www.w3.org/2000/svg" xmlns:xlink="http://www.w3.org/1999/xlink" version="1.1" width="126pt" height="130pt" viewBox="0 0 126 130">
<defs>
<path id="font_1_4" d="M.2899933-.25V-.20100403H.18499756V.70098879H.2899933V.75H.13598633V-.25H.2899933Z"/>
<path id="font_2_1" d="M.42199708 .38238526C.40098573 .41540528 .36698915 .44140626 .31900025 .44140626 .19099427 .44140626 .06098938 .300354 .06098938 .15628052 .06098938 .059249879 .12599182-.009765625 .21199036-.009765625 .2659912-.009765625 .31399537 .021224976 .35398866 .0602417 .37298585 .00022888184 .43099977-.009765625 .45700074-.009765625 .49299623-.009765625 .5179901 .01222229 .5359955 .04324341 .55799868 .08226013 .57099917 .13928223 .57099917 .14328003 .57099917 .15628052 .55799868 .15628052 .5549927 .15628052 .54100039 .15628052 .5399933 .15228272 .5329895 .12527466 .5209961 .07725525 .5019989 .018234253 .45999146 .018234253 .43399049 .018234253 .4269867 .040237428 .4269867 .06724548 .4269867 .08425903 .43499757 .120269779 .44198609 .14628601 .44898988 .17329407 .45899964 .21430969 .46398927 .23632813L.48399354 .3123474C.48999024 .33836366 .5019989 .38539125 .5019989 .39038087 .5019989 .4123993 .48399354 .4223938 .46798707 .4223938 .45098878 .4223938 .42799378 .4104004 .42199708 .38238526M.35798646 .12527466C.35099793 .09725952 .32899476 .07725525 .30699159 .058242799 .2979889 .050247194 .2579956 .018234253 .21499634 .018234253 .17799378 .018234253 .14199829 .04423523 .14199829 .11526489 .14199829 .16828919 .17098999 .27833558 .19400025 .31835938 .23999024 .39839173 .29100038 .4133911 .31900025 .4133911 .3889923 .4133911 .4079895 .33737184 .4079895 .32635499 .4079895 .32235719 .4059906 .3153534 .40499879 .3123474L.35798646 .12527466Z"/>
<path id="font_1_5" d="M.18598938 .75H.03199768V.70098879H.13699341V-.20100403H.03199768V-.25H.18598938V.75Z"/>
<path id="font_2_2" d="M.43798829 .38304139C.4019928 .37702943 .3869934 .34902955 .3869934 .32702638 .3869934 .30003358 .4079895 .29003907 .42599488 .29003907 .44799806 .29003907 .48298646 .30603028 .48298646 .35403443 .48298646 .4223938 .40499879 .44140626 .35099793 .44140626 .20098877 .44140626 .06199646 .3030243 .06199646 .16412354 .06199646 .078186038 .12199402-.009765625 .24699402-.009765625 .41600038-.009765625 .49499513 .08917236 .49499513 .10316467 .49499513 .10916138 .48599244 .120147708 .47799684 .120147708 .47200013 .120147708 .46998597 .1181488 .46199037 .11016846 .38398744 .018234253 .2669983 .018234253 .24899292 .018234253 .1769867 .018234253 .14498902 .06718445 .14498902 .12915039 .14498902 .15812683 .15899658 .26704408 .21099854 .33602906 .24899292 .3850708 .30099488 .4133911 .35099793 .4133911 .36499024 .4133911 .41299439 .41137696 .43798829 .38304139Z"/>
<path id="font_2_3" d="M.57099917 .66430667C.57199099 .66630557 .57499697 .67930606 .57499697 .68029788 .57499697 .68530276 .57099917 .6943054 .5589905 .6943054 .5389862 .6943054 .45599366 .6863098 .43099977 .6843109 .4229889 .68330386 .40899659 .682312 .40899659 .66130068 .40899659 .64730837 .4229889 .64730837 .43499757 .64730837 .48298646 .64730837 .48298646 .64030459 .48298646 .63230898 .48298646 .62532046 .48098756 .61932376 .47898866 .61032107L.42199708 .38238526C.40098573 .41540528 .36698915 .44140626 .31900025 .44140626 .19099427 .44140626 .06098938 .300354 .06098938 .15628052 .06098938 .059249879 .12599182-.009765625 .21199036-.009765625 .2659912-.009765625 .31399537 .021224976 .35398866 .0602417 .37298585 .00022888184 .43099977-.009765625 .45700074-.009765625 .49299623-.009765625 .5179901 .01222229 .5359955 .04324341 .55799868 .08226013 .57099917 .13928223 .57099917 .14328003 .57099917 .15628052 .55799868 .15628052 .5549927 .15628052 .54100039 .15628052 .5399933 .15228272 .5329895 .12527466 .5209961 .07725525 .5019989 .018234253 .45999146 .018234253 .43399049 .018234253 .4269867 .040237428 .4269867 .06724548 .4269867 .086257938 .42900086 .09526062 .43199159 .10826111L.57099917 .66430667M.35798646 .12527466C.35099793 .09725952 .32899476 .07725525 .30699159 .058242799 .2979889 .050247194 .2579956 .018234253 .21499634 .018234253 .17799378 .018234253 .14199829 .04423523 .14199829 .11526489 .14199829 .16828919 .17098999 .27833558 .19400025 .31835938 .23999024 .39839173 .29100038 .4133911 .31900025 .4133911 .3889923 .4133911 .4079895 .33737184 .4079895 .32635499 .4079895 .32235719 .4059906 .3153534 .40499879 .3123474L.35798646 .12527466Z"/>
<path id="font_1_1" d="M.33499146 .63612368C.33499146 .6630554 .33299256 .6640625 .30499269 .6640625 .24099732 .6014404 .1499939 .6004486 .10899353 .6004486V.5644531C.1329956 .5644531 .19898987 .5644531 .2539978 .592453V.08203125C.2539978 .04899597 .2539978 .035995485 .1539917 .035995485H.115997318V0C.13398743 .0009918213 .25698854 .0039978029 .2939911 .0039978029 .32499696 .0039978029 .45098878 .0009918213 .47299195 0V.035995485H.43499757C.33499146 .035995485 .33499146 .04899597 .33499146 .08203125V.63612368Z"/>
<path id="font_1_2" d="M.5049896 .18203736H.47099305C.46798707 .16001892 .45799256 .100997928 .44499208 .09098816 .43699647 .084991458 .3600006 .084991458 .34599305 .084991458H.1619873C.2669983 .17803955 .3019867 .20603943 .3619995 .25306703 .43598939 .312088 .5049896 .374115 .5049896 .46914674 .5049896 .5900879 .39898683 .6640625 .2709961 .6640625 .14698792 .6640625 .06298828 .57710269 .06298828 .4851532 .06298828 .43414308 .10598755 .42915345 .115997318 .42915345 .13999939 .42915345 .16899109 .44615174 .16899109 .48214723 .16899109 .5001526 .1619873 .53515627 .10998535 .53515627 .14099121 .6060791 .20899964 .62805178 .2559967 .62805178 .35598756 .62805178 .4079895 .5501404 .4079895 .46914674 .4079895 .38212586 .34599305 .3130951 .31399537 .27708436L.07299805 .038986207C.06298828 .02999878 .06298828 .027999878 .06298828 0H.47499085L.5049896 .18203736Z"/>
<path id="font_1_3" d="M.5289917 .1640625V.20005799H.41799928V.64582827C.41799928 .66682437 .41799928 .6738281 .3959961 .6738281 .38398744 .6738281 .37998963 .6738281 .36999513 .65982058L.038986207 .20005799V.1640625H.33299256V.08201599C.33299256 .04800415 .33299256 .035995485 .2519989 .035995485H.22499085V0C.2749939 .0019989014 .33898927 .0039978029 .375 .0039978029 .4119873 .0039978029 .47599793 .0019989014 .526001 0V.035995485H.49899293C.41799928 .035995485 .41799928 .04800415 .41799928 .08201599V.1640625H.5289917M.33999635 .5658722V.20005799H.07598877L.33999635 .5658722Z"/>
<path id="font_3_3" d="M.4850006 .41075135 .40098573 .6096344C.397995 .61763 .3959961 .6216278 .3959961 .6226196 .3959961 .62861636 .41299439 .6476135 .45498658 .6516113 .46499635 .65260317 .47499085 .6536102 .47499085 .6706085 .47499085 .6826172 .46299745 .6826172 .45999146 .6826172 .4189911 .6826172 .37599183 .6796112 .33399964 .6796112 .30899049 .6796112 .24699402 .6826172 .22200012 .6826172 .21598816 .6826172 .20399475 .6826172 .20399475 .6626129 .20399475 .6516113 .21398926 .6516113 .22698975 .6516113 .2869873 .6516113 .29299928 .6416168 .3019867 .6196289L.41999818 .34080506 .20899964 .11393738 .19599915 .10295105C.14698792 .049987794 .099990848 .033996583 .04899597 .0309906 .035995485 .02999878 .026992798 .02999878 .026992798 .010986328 .026992798 .009994507 .026992798 0 .039993287 0 .069992069 0 .102996829 .0029907227 .13398743 .0029907227 .17098999 .0029907227 .20999146 0 .24598694 0 .2519989 0 .2639923 0 .2639923 .019989014 .2639923 .02999878 .2539978 .0309906 .2519989 .0309906 .24299622 .03199768 .21199036 .033996583 .21199036 .061965944 .21199036 .07795715 .22698975 .093948367 .23899842 .10694885L.34098817 .21487427 .43099977 .31282044 .5319977 .07395935C.5359955 .06297302 .5369873 .061965944 .5369873 .05996704 .5369873 .051986696 .5179901 .034988405 .47898866 .0309906 .46798707 .02999878 .45899964 .0289917 .45899964 .011993408 .45899964 0 .46998597 0 .47399903 0 .5019989 0 .57199099 .0029907227 .59999087 .0029907227 .625 .0029907227 .6859894 0 .71099856 0 .71798709 0 .7299957 0 .7299957 .018997193 .7299957 .0309906 .7200012 .0309906 .71199038 .0309906 .644989 .03199768 .6429901 .034988405 .6259918 .07496643 .58699038 .16790772 .519989 .32380677 .49699403 .3837738 .5649872 .45373536 .66999819 .5726471 .70199587 .6006317 .73098757 .62461856 .7689972 .64860537 .82899478 .6516113 .84199526 .65260317 .8509979 .65260317 .8509979 .6716156 .8509979 .6726074 .8509979 .6826172 .83799746 .6826172 .80799868 .6826172 .7749939 .6796112 .74398806 .6796112 .70700076 .6796112 .6689911 .6826172 .6329956 .6826172 .6269989 .6826172 .6139984 .6826172 .6139984 .6626129 .6139984 .65560916 .61898806 .65260317 .6259918 .6516113 .6349945 .65060427 .66600039 .64860537 .66600039 .6206207 .66600039 .6066284 .6549988 .5936432 .6469879 .5846405L.4850006 .41075135Z"/>
<path id="font_3_2" d="M.43899537 .71199038C.44400025 .72499087 .44400025 .72898867 .44400025 .7299957 .44400025 .7409973 .43499757 .75 .42399598 .75 .4169922 .75 .4099884 .746994 .40699769 .7409973L.05999756-.21200562C.054992677-.2250061 .054992677-.2290039 .054992677-.23001099 .054992677-.24101258 .06399536-.25 .07499695-.25 .08799744-.25 .09098816-.24301148 .09700012-.22601319L.43899537 .71199038Z"/>
<path id="font_4_1" d="M.7220001 .33418275C.7220001 .3561859 .71598818 .36618043 .70799258 .36618043 .7029877 .36618043 .69499209 .35917665 .69400027 .34017945 .6899872 .24397278 .6239929 .18881226 .55400088 .18881226 .4909973 .18881226 .44299317 .2319336 .3939972 .2750702 .34298707 .32118226 .29100038 .3671875 .22299195 .3671875 .11399841 .3671875 .054992677 .25701905 .054992677 .165802 .054992677 .13380432 .067993167 .13380432 .068984989 .13380432 .07998657 .13380432 .08299255 .1538086 .08299255 .15679932 .08699036 .26704408 .1619873 .3111725 .22299195 .3111725 .28599549 .3111725 .33399964 .26805116 .3829956 .22491455 .43399049 .17880249 .48599244 .1328125 .55400088 .1328125 .6629944 .1328125 .7220001 .2429657 .7220001 .33418275Z"/>
<path id="font_5_3" d="M.22399903 .35253907V.6116028C.22399903 .6345978 .22399903 .64660647 .24598694 .6496124 .2559967 .6516113 .2849884 .6516113 .30499269 .6516113 .394989 .6516113 .5069885 .6476135 .5069885 .5025635 .5069885 .43354798 .48298646 .35253907 .33499146 .35253907H.22399903M.43499757 .33953858C.5319977 .36354066 .6100006 .4245453 .6100006 .5025635 .6100006 .59858706 .49598695 .6826172 .34899903 .6826172H.034988405V.6516113H.05899048C.13598633 .6516113 .13798523 .64060977 .13798523 .604599V.07752991C.13798523 .041534425 .13598633 .030532837 .05899048 .030532837H.034988405V-.00047302247C.070999149 .002532959 .14199829 .002532959 .18099976 .002532959 .21998596 .002532959 .29100038 .002532959 .32699586-.00047302247V.030532837H.30299378C.22599793 .030532837 .22399903 .041534425 .22399903 .07752991V.3305359H.33898927C.35499574 .3305359 .39698792 .3305359 .43199159 .2965393 .46998597 .26052857 .46998597 .22953797 .46998597 .16253662 .46998597 .09753418 .46998597 .057525636 .5109863 .01953125 .5519867-.016464234 .6069946-.022460938 .6369934-.022460938 .71499636-.022460938 .7319946 .059524537 .7319946 .087524417 .7319946 .09353638 .7319946 .104537967 .71899417 .104537967 .70799258 .104537967 .70799258 .09553528 .70700076 .088531497 .70098879 .017532349 .66600039-.00047302247 .6409912-.00047302247 .59199526-.00047302247 .58399966 .05053711 .56999209 .14352417L.5569916 .223526C.5389862 .28753663 .48999024 .32052613 .43499757 .33953858Z"/>
<path id="font_5_5" d="M.10998535 .34429933V.076034549C.10998535 .0309906 .09899902 .0309906 .03199768 .0309906V0C.066986087 .0009918213 .117996219 .0029907227 .14498902 .0029907227 .17098999 .0029907227 .22299195 .0009918213 .25698854 0V.0309906C.18998719 .0309906 .1789856 .0309906 .1789856 .076034549V.2602234C.1789856 .36431886 .25 .42037965 .31399537 .42037965 .3769989 .42037965 .3880005 .36631776 .3880005 .30926515V.076034549C.3880005 .0309906 .3769989 .0309906 .30999757 .0309906V0C.34498597 .0009918213 .3959961 .0029907227 .4229889 .0029907227 .44898988 .0029907227 .5009918 .0009918213 .5349884 0V.0309906C.48298646 .0309906 .45799256 .0309906 .45700074 .061019899V.25221253C.45700074 .3383026 .45700074 .36932374 .42599488 .405365 .4119873 .42237855 .3789978 .4423828 .32099916 .4423828 .24798584 .4423828 .20098877 .39935304 .17298889 .33729554V.4423828L.03199768 .43138124V.40037538C.101989749 .4003601 .10998535 .39335633 .10998535 .34429933Z"/>
<path id="font_5_4" d="M.22200012 .17240906C.1349945 .17240906 .1349945 .2723999 .1349945 .2953949 .1349945 .3223877 .13598633 .35438539 .15098572 .37937928 .15899658 .39137269 .18199158 .41937257 .22200012 .41937257 .30899049 .41937257 .30899049 .3193817 .30899049 .29638673 .30899049 .26939393 .30799867 .23739624 .29299928 .21240235 .2849884 .20040894 .2619934 .17240906 .22200012 .17240906M.10598755 .13330078C.10598755 .1373291 .10598755 .16040039 .12298584 .18040467 .1619873 .15240479 .20298767 .14941406 .22200012 .14941406 .31498719 .14941406 .38398744 .21839905 .38398744 .2953949 .38398744 .3323822 .36799623 .36938478 .34298707 .39237977 .3789978 .42637635 .4149933 .43138124 .43299867 .43138124 .43499757 .43138124 .43998719 .43138124 .44299317 .43037416 .43199159 .42637635 .4269867 .41537477 .4269867 .40338136 .4269867 .38638307 .43998719 .3743744 .45599366 .3743744 .46598817 .3743744 .4850006 .38137818 .4850006 .40437318 .4850006 .42137147 .47299195 .45336915 .43399049 .45336915 .4139862 .45336915 .36999513 .44737245 .32798768 .40637208 .28599549 .43937684 .24398804 .4423828 .22200012 .4423828 .1289978 .4423828 .05999756 .37338258 .05999756 .29638673 .05999756 .25239564 .08198547 .21440125 .10699463 .19340515 .09399414 .17840576 .07598877 .14538574 .07598877 .11013794 .07598877 .07891846 .08898926 .04083252 .11999512 .020828248 .05999756 .003829956 .027999878-.039138795 .027999878-.07911682 .027999878-.15107727 .1269989-.20605469 .24899292-.20605469 .36698915-.20605469 .47099305-.15507508 .47099305-.07711792 .47099305-.042144777 .45700074 .008834839 .4059906 .036834718 .35299684 .064834598 .29499818 .064834598 .23399353 .064834598 .20899964 .064834598 .1659851 .064834598 .15899658 .065841678 .1269989 .069869998 .10598755 .10107422 .10598755 .13330078M.25-.18305969C.14898682-.18305969 .07998657-.13209534 .07998657-.07911682 .07998657-.03314209 .117996219 .003829956 .1619873 .0068359377H.22099304C.30699159 .0068359377 .4189911 .0068359377 .4189911-.07911682 .4189911-.13308716 .34799195-.18305969 .25-.18305969Z"/>
<path id="font_5_1" d="M.33099366-.2400055C.33099366-.23701477 .33099366-.23500061 .31399537-.21800232 .18899536-.0920105 .15699768 .09700012 .15699768 .25 .15699768 .42399598 .19499207 .59799197 .31799317 .72299197 .33099366 .73498538 .33099366 .7369995 .33099366 .73999026 .33099366 .746994 .32699586 .75 .32099916 .75 .31098939 .75 .22099304 .6819916 .1619873 .5549927 .11099243 .44499208 .09899902 .33399964 .09899902 .25 .09899902 .17199707 .10998535 .050994874 .16499329-.06201172 .22499085-.18501282 .31098939-.25 .32099916-.25 .32699586-.25 .33099366-.24700928 .33099366-.2400055Z"/>
<path id="font_3_1" d="M.16999817-.16976929C.1659851-.18278504 .16499329-.18478394 .16499329-.18977356 .16499329-.21177674 .18399048-.21777344 .19400025-.21777344 .19898987-.21777344 .22099304-.21478272 .23098755-.19178772 .23399353-.18377686 .23899842-.1507721 .2659912-.008743286 .2749939-.009750366 .28199769-.0107421879 .29899598-.0107421879 .46499635-.0107421879 .61898806 .14628601 .61898806 .3043518 .61898806 .38237 .5799866 .4423828 .5049896 .4423828 .3600006 .4423828 .2999878 .24832154 .23999024 .053253175 .13198853 .07325745 .07598877 .12928772 .07598877 .2013092 .07598877 .22932434 .09899902 .33935548 .15899658 .40837098 .16699219 .41737367 .16699219 .41937257 .16699219 .42137147 .16699219 .42536927 .16499329 .43138124 .15499878 .43138124 .1269989 .43138124 .049987794 .28634645 .049987794 .19030762 .049987794 .0962677 .115997318 .023254395 .22299195-.0017547608L.16999817-.16976929M.30799867 .04725647C.2999878 .04725647 .2979889 .04725647 .2899933 .04824829 .27799989 .04824829 .2769928 .04925537 .2769928 .052246095 .2769928 .054260255 .2939911 .14529419 .29699708 .16029358 .32798768 .28834535 .4059906 .3843689 .49499513 .3843689 .56399539 .3843689 .59098818 .33035279 .59098818 .28233338 .59098818 .16929627 .46199037 .04725647 .30799867 .04725647Z"/>
<path id="font_5_2" d="M.2889862 .25C.2889862 .32798768 .27799989 .44898988 .22299195 .56199648 .16299439 .68499758 .07699585 .75 .066986087 .75 .06098938 .75 .056991579 .74598696 .056991579 .73999026 .056991579 .7369995 .056991579 .73498538 .07598877 .71699526 .17399597 .6179962 .23098755 .45899964 .23098755 .25 .23098755 .07899475 .19400025-.09700012 .069992069-.2230072 .056991579-.23500061 .056991579-.23701477 .056991579-.2400055 .056991579-.2460022 .06098938-.25 .066986087-.25 .07699585-.25 .16699219-.18200684 .22599793-.055007936 .2769928 .054992677 .2889862 .16600037 .2889862 .25Z"/>
</defs>
<path transform="matrix(1.00003,0,0,-1.00003,20.622056,151.84519)" d="M7.08669 102.04825C7.08669 105.96216 3.91391 109.13493 0 109.13493-3.91391 109.13493-7.08669 105.96216-7.08669 102.04825-7.08669 98.13432-3.91391 94.96155 0 94.96155 3.91391 94.96155 7.08669 98.13432 7.08669 102.04825ZM0 102.04825" fill="#999999"/>
<path transform="matrix(1.00003,0,0,-1.00003,20.622056,151.84519)" stroke-width=".59776" stroke-linecap="butt" stroke-miterlimit="10" stroke-linejoin="miter" fill="none" stroke="#000000" d="M7.08669 102.04825C7.08669 105.96216 3.91391 109.13493 0 109.13493-3.91391 109.13493-7.08669 105.96216-7.08669 102.04825-7.08669 98.13432-3.91391 94.96155 0 94.96155 3.91391 94.96155 7.08669 98.13432 7.08669 102.04825ZM0 102.04825"/>
<use data-text="[" xlink:href="#font_1_4" transform="matrix(6.9740097,0,0,-6.9740097,16.205925,51.53717)"/>
<use data-text="a" xlink:href="#font_2_1" transform="matrix(6.9740097,0,0,-6.9740097,18.46099,51.53717)"/>
<use data-text="]" xlink:href="#font_1_5" transform="matrix(6.9740097,0,0,-6.9740097,22.78312,51.53717)"/>
<path transform="matrix(1.00003,0,0,-1.00003,20.622056,151.84519)" d="M7.08669 68.03217C7.08669 71.94608 3.91391 75.11885 0 75.11885-3.91391 75.11885-7.08669 71.94608-7.08669 68.03217-7.08669 64.11824-3.91391 60.94547 0 60.94547 3.91391 60.94547 7.08669 64.11824 7.08669 68.03217ZM0 68.03217" fill="#999999"/>
<path transform="matrix(1.00003,0,0,-1.00003,20.622056,151.84519)" stroke-width=".59776" stroke-linecap="butt" stroke-miterlimit="10" stroke-linejoin="miter" fill="none" stroke="#000000" d="M7.08669 68.03217C7.08669 71.94608 3.91391 75.11885 0 75.11885-3.91391 75.11885-7.08669 71.94608-7.08669 68.03217-7.08669 64.11824-3.91391 60.94547 0 60.94547 3.91391 60.94547 7.08669 64.11824 7.08669 68.03217ZM0 68.03217"/>
<use data-text="[" xlink:href="#font_1_4" transform="matrix(6.9740097,0,0,-6.9740097,16.585938,85.55419)"/>
<use data-text="c" xlink:href="#font_2_2" transform="matrix(6.9740097,0,0,-6.9740097,18.841004,85.55419)"/>
<use data-text="]" xlink:href="#font_1_5" transform="matrix(6.9740097,0,0,-6.9740097,22.402108,85.55419)"/>
<path transform="matrix(1.00003,0,0,-1.00003,20.622056,151.84519)" d="M7.08669 34.01608C7.08669 37.93 3.91391 41.10277 0 41.10277-3.91391 41.10277-7.08669 37.93-7.08669 34.01608-7.08669 30.10216-3.91391 26.92938 0 26.92938 3.91391 26.92938 7.08669 30.10216 7.08669 34.01608ZM0 34.01608" fill="#999999"/>
<path transform="matrix(1.00003,0,0,-1.00003,20.622056,151.84519)" stroke-width=".59776" stroke-linecap="butt" stroke-miterlimit="10" stroke-linejoin="miter" fill="none" stroke="#000000" d="M7.08669 34.01608C7.08669 37.93 3.91391 41.10277 0 41.10277-3.91391 41.10277-7.08669 37.93-7.08669 34.01608-7.08669 30.10216-3.91391 26.92938 0 26.92938 3.91391 26.92938 7.08669 30.10216 7.08669 34.01608ZM0 34.01608"/>
<use data-text="[" xlink:href="#font_1_4" transform="matrix(6.9740097,0,0,-6.9740097,16.292923,119.57121)"/>
<use data-text="d" xlink:href="#font_2_3" transform="matrix(6.9740097,0,0,-6.9740097,18.547989,119.57121)"/>
<use data-text="]" xlink:href="#font_1_5" transform="matrix(6.9740097,0,0,-6.9740097,22.696114,119.57121)"/>
<path transform="matrix(1.00003,0,0,-1.00003,20.622056,151.84519)" d="M92.12689 102.04825C92.12689 105.96216 88.95412 109.13493 85.04019 109.13493 81.12628 109.13493 77.9535 105.96216 77.9535 102.04825 77.9535 98.13432 81.12628 94.96155 85.04019 94.96155 88.95412 94.96155 92.12689 98.13432 92.12689 102.04825ZM85.04019 102.04825" fill="#999999"/>
<path transform="matrix(1.00003,0,0,-1.00003,20.622056,151.84519)" stroke-width=".59776" stroke-linecap="butt" stroke-miterlimit="10" stroke-linejoin="miter" fill="none" stroke="#000000" d="M92.12689 102.04825C92.12689 105.96216 88.95412 109.13493 85.04019 109.13493 81.12628 109.13493 77.9535 105.96216 77.9535 102.04825 77.9535 98.13432 81.12628 94.96155 85.04019 94.96155 88.95412 94.96155 92.12689 98.13432 92.12689 102.04825ZM85.04019 102.04825"/>
<use data-text="1" xlink:href="#font_1_1" transform="matrix(6.9740097,0,0,-6.9740097,103.67955,52.041185)"/>
<path transform="matrix(1.00003,0,0,-1.00003,20.622056,151.84519)" d="M92.12689 68.03217C92.12689 71.94608 88.95412 75.11885 85.04019 75.11885 81.12628 75.11885 77.9535 71.94608 77.9535 68.03217 77.9535 64.11824 81.12628 60.94547 85.04019 60.94547 88.95412 60.94547 92.12689 64.11824 92.12689 68.03217ZM85.04019 68.03217" fill="#999999"/>
<path transform="matrix(1.00003,0,0,-1.00003,20.622056,151.84519)" stroke-width=".59776" stroke-linecap="butt" stroke-miterlimit="10" stroke-linejoin="miter" fill="none" stroke="#000000" d="M92.12689 68.03217C92.12689 71.94608 88.95412 75.11885 85.04019 75.11885 81.12628 75.11885 77.9535 71.94608 77.9535 68.03217 77.9535 64.11824 81.12628 60.94547 85.04019 60.94547 88.95412 60.94547 92.12689 64.11824 92.12689 68.03217ZM85.04019 68.03217"/>
<use data-text="2" xlink:href="#font_1_2" transform="matrix(6.9740097,0,0,-6.9740097,103.67955,86.058208)"/>
<path transform="matrix(1.00003,0,0,-1.00003,20.622056,151.84519)" d="M92.12689 34.01608C92.12689 37.93 88.95412 41.10277 85.04019 41.10277 81.12628 41.10277 77.9535 37.93 77.9535 34.01608 77.9535 30.10216 81.12628 26.92938 85.04019 26.92938 88.95412 26.92938 92.12689 30.10216 92.12689 34.01608ZM85.04019 34.01608" fill="#999999"/>
<path transform="matrix(1.00003,0,0,-1.00003,20.622056,151.84519)" stroke-width=".59776" stroke-linecap="butt" stroke-miterlimit="10" stroke-linejoin="miter" fill="none" stroke="#000000" d="M92.12689 34.01608C92.12689 37.93 88.95412 41.10277 85.04019 41.10277 81.12628 41.10277 77.9535 37.93 77.9535 34.01608 77.9535 30.10216 81.12628 26.92938 85.04019 26.92938 88.95412 26.92938 92.12689 30.10216 92.12689 34.01608ZM85.04019 34.01608"/>
<use data-text="4" xlink:href="#font_1_3" transform="matrix(6.9740097,0,0,-6.9740097,103.67955,120.07523)"/>
<path transform="matrix(1.00003,0,0,-1.00003,20.622056,151.84519)" stroke-width=".59776" stroke-linecap="butt" stroke-miterlimit="10" stroke-linejoin="miter" fill="none" stroke="#000000" d="M7.38684 102.06981 74.382 102.06958"/>
<path transform="matrix(1.00003,0,0,-1.00003,95.006298,49.772539)" d="M2.29138 0-1.37483 1.83311 0 0-1.37483-1.83311"/>
<path transform="matrix(1.00003,0,0,-1.00003,20.622056,151.84519)" stroke-width=".59776" stroke-linecap="butt" stroke-miterlimit="10" stroke-linejoin="miter" fill="none" stroke="#000000" d="M7.38684 68.0465 74.382 68.04625"/>
<path transform="matrix(1.00003,0,0,-1.00003,95.006298,83.79689)" d="M2.29138 0-1.37483 1.83311 0 0-1.37483-1.83311"/>
<path transform="matrix(1.00003,0,0,-1.00003,20.622056,151.84519)" stroke-width=".59776" stroke-linecap="butt" stroke-miterlimit="10" stroke-linejoin="miter" fill="none" stroke="#000000" d="M7.38684 34.0232H74.382"/>
<path transform="matrix(1.00003,0,0,-1.00003,95.006298,117.82096)" d="M2.29138 0-1.37483 1.83311 0 0-1.37483-1.83311"/>
<path transform="matrix(1.00003,0,0,-1.00003,20.622056,151.84519)" stroke-width=".59776" stroke-linecap="butt" stroke-miterlimit="10" stroke-linejoin="miter" fill="none" stroke="#929292" d="M14.44035 112.78856H-14.44035C-16.6413 112.78856-18.42546 111.0044-18.42546 108.80345V27.31325C-18.42546 25.1123-16.6413 23.32814-14.44035 23.32814H14.44035C16.6413 23.32814 18.42546 25.1123 18.42546 27.31325V108.80345C18.42546 111.0044 16.6413 112.78856 14.44035 112.78856ZM-18.42546 23.32814"/>
<path transform="matrix(1.00003,0,0,-1.00003,20.622056,151.84519)" stroke-width=".59776" stroke-linecap="butt" stroke-miterlimit="10" stroke-linejoin="miter" fill="none" stroke="#929292" d="M99.51332 112.78856H70.6326C68.43166 112.78856 66.64749 111.0044 66.64749 108.80345V27.31325C66.64749 25.1123 68.43166 23.32814 70.6326 23.32814H99.51332C101.71425 23.32814 103.49843 25.1123 103.49843 27.31325V108.80345C103.49843 111.0044 101.71425 112.78856 99.51332 112.78856ZM66.64749 23.32814"/>
<use data-text="X" xlink:href="#font_3_3" transform="matrix(9.962899,0,0,-9.962899,10.15374,31.87458)"/>
<use data-text="/" xlink:href="#font_3_2" transform="matrix(9.962899,0,0,-9.962899,18.363167,31.87458)"/>
<use data-text="&#x223c;" xlink:href="#font_4_1" transform="matrix(9.962899,0,0,-9.962899,23.340134,31.87458)"/>
<use data-text="R" xlink:href="#font_5_3" transform="matrix(9.962899,0,0,-9.962899,89.537128,31.87458)"/>
<use data-text="n" xlink:href="#font_5_5" transform="matrix(9.962899,0,0,-9.962899,96.86982,31.87458)"/>
<use data-text="g" xlink:href="#font_5_4" transform="matrix(9.962899,0,0,-9.962899,102.39923,31.87458)"/>
<use data-text="(" xlink:href="#font_5_1" transform="matrix(9.962899,0,0,-9.962899,107.5102,31.87458)"/>
<use data-text="&#x03c6;" xlink:href="#font_3_1" transform="matrix(9.962899,0,0,-9.962899,111.39978,31.87458)"/>
<use data-text=")" xlink:href="#font_5_2" transform="matrix(9.962899,0,0,-9.962899,117.91698,31.87458)"/>
<path transform="matrix(1.00003,0,0,-1.00003,20.622056,151.84519)" stroke-width=".59776" stroke-linecap="butt" stroke-miterlimit="10" stroke-linejoin="miter" fill="none" stroke="#000000" d="M14.08998 130.61734C33.01161 141.75254 51.068 141.90316 67.3116 132.70418"/>
<path transform="matrix(.8701262,.4927648,.4927648,-.8701262,87.93568,19.137009)" d="M2.29138 0-1.37483 1.83311 0 0-1.37483-1.83311"/>
<path transform="matrix(1.00003,0,0,-1.00003,-42.19683,-132.64936)" stroke-width=".3985" stroke-linecap="butt" stroke-miterlimit="10" stroke-linejoin="miter" fill="none" stroke="#000000" d="M101.621-134.162H108.138"/>
<use data-text="&#x03c6;" xlink:href="#font_3_1" transform="matrix(9.962899,0,0,-9.962899,59.427225,7.200836)"/>
</svg>
