<svg xmlns="http://www.w3.org/2000/svg" xmlns:xlink="http://www.w3.org/1999/xlink" version="1.1" width="226pt" height="211pt" viewBox="0 0 226 211">
<defs>
<path id="font_1_3" d="M.37298585 .37835694C.35499574 .41537477 .32598878 .4423828 .2809906 .4423828 .1639862 .4423828 .039993287 .29533387 .039993287 .14929199 .039993287 .055267335 .09498596-.0107421879 .17298889-.0107421879 .19299317-.0107421879 .24299622-.0067443849 .30299378 .06427002 .31098939 .022247315 .34599305-.0107421879 .3939972-.0107421879 .42900086-.0107421879 .45199586 .012252808 .46798707 .044265748 .4850006 .08027649 .49798585 .14129639 .49798585 .14329529 .49798585 .1532898 .4889984 .1532898 .48599244 .1532898 .47599793 .1532898 .47499085 .14929199 .47200013 .13528443 .45498658 .07026672 .43699647 .011245728 .3959961 .011245728 .36898805 .011245728 .3659973 .037261964 .3659973 .057266237 .3659973 .07926941 .36799623 .08728027 .3789978 .13128662 .3899994 .17329407 .3919983 .18330384 .40098573 .22131348L.43699647 .36135865C.44400025 .38935853 .44400025 .39135743 .44400025 .39537049 .44400025 .41236878 .43199159 .42237855 .4149933 .42237855 .3909912 .42237855 .37599183 .4003601 .37298585 .37835694M.30799867 .119277957C.30299378 .10127258 .30299378 .09927368 .28799439 .08227539 .24398804 .027252198 .20298767 .011245728 .1749878 .011245728 .125 .011245728 .11099243 .06626892 .11099243 .105285648 .11099243 .1552887 .14299011 .27833558 .1659851 .32434083 .19699097 .38336183 .24198914 .42037965 .28199769 .42037965 .34700013 .42037965 .36099244 .3383484 .36099244 .33235169 .36099244 .32633973 .35899354 .32034303 .35798646 .31533814L.30799867 .119277957Z"/>
<path id="font_1_5" d="M.33399964 .30233766C.33999635 .32835389 .36299134 .42037965 .43299867 .42037965 .43798829 .42037965 .46199037 .42037965 .48298646 .40734864 .45498658 .402359 .43499757 .37734986 .43499757 .35334779 .43499757 .33735658 .44599916 .31835938 .47299195 .31835938 .49499513 .31835938 .5269928 .3363495 .5269928 .37635804 .5269928 .42837525 .46798707 .4423828 .43399049 .4423828 .37599183 .4423828 .34098817 .38935853 .32899476 .36634828 .3039856 .43237306 .25 .4423828 .22099304 .4423828 .116989139 .4423828 .05999756 .3133545 .05999756 .28834535 .05999756 .27833558 .069992069 .27833558 .07199097 .27833558 .07998657 .27833558 .08299255 .28033448 .084991458 .28933717 .11898804 .39535523 .18499756 .42037965 .21899414 .42037965 .23799134 .42037965 .272995 .4113617 .272995 .35334779 .272995 .32235719 .2559967 .25532533 .21899414 .11528015 .20298767 .053268434 .16799927 .011245728 .12399292 .011245728 .117996219 .011245728 .09498596 .011245728 .07398987 .024276734 .09899902 .029266358 .12098694 .05027771 .12098694 .07827759 .12098694 .105270389 .09899902 .11328125 .083999637 .11328125 .053985597 .11328125 .0289917 .08728027 .0289917 .055267335 .0289917 .009246826 .07899475-.0107421879 .12298584-.0107421879 .18899536-.0107421879 .22499085 .059280397 .22799683 .0652771 .23999024 .028274537 .27598573-.0107421879 .33599855-.0107421879 .43899537-.0107421879 .49598695 .118270877 .49598695 .14328003 .49598695 .1532898 .4869995 .1532898 .48399354 .1532898 .47499085 .1532898 .47299195 .14929199 .47099305 .14228821 .43798829 .03527832 .36999513 .011245728 .33799745 .011245728 .29899598 .011245728 .2829895 .043273927 .2829895 .07727051 .2829895 .09927368 .2889862 .121276859 .2999878 .16529846L.33399964 .30233766Z"/>
<path id="font_1_4" d="M.36698915 .3996582H.45298768C.47299195 .3996582 .48298646 .3996582 .48298646 .41966249 .48298646 .43066407 .47299195 .43066407 .45599366 .43066407H.37298585L.3939972 .5449524C.397995 .5660095 .4119873 .6370239 .41799928 .6490326 .4269867 .66804507 .44400025 .68307498 .46499635 .68307498 .46899415 .68307498 .49499513 .68307498 .5139923 .66503909 .46998597 .661026 .45999146 .6260376 .45999146 .6110382 .45999146 .58802798 .47799684 .57603457 .49699403 .57603457 .522995 .57603457 .5519867 .5980377 .5519867 .6360321 .5519867 .6820679 .5059967 .7050781 .46499635 .7050781 .43099977 .7050781 .36799623 .68707278 .33799745 .58802798 .33198548 .56700137 .32899476 .5569763 .30499269 .43066407H.23599243C.21699524 .43066407 .20599365 .43066407 .20599365 .4116516 .20599365 .3996582 .21499634 .3996582 .23399353 .3996582H.2999878L.22499085 .0048828127C.20698548-.09207153 .18998719-.18309021 .13798523-.18309021 .13398743-.18309021 .10899353-.18309021 .08999634-.16506958 .13598633-.1620636 .14498902-.12606812 .14498902-.111068729 .14498902-.08807373 .1269989-.07606506 .10798645-.07606506 .08198547-.07606506 .052993776-.09806824 .052993776-.13606262 .052993776-.18109131 .09700012-.20507813 .13798523-.20507813 .19299317-.20507813 .23298645-.14607239 .25099183-.108062747 .2829895-.04508972 .30599977 .07583618 .30699159 .082839969L.36698915 .3996582Z"/>
<path id="font_2_1" d="M.33099366-.2400055C.33099366-.23701477 .33099366-.23500061 .31399537-.21800232 .18899536-.0920105 .15699768 .09700012 .15699768 .25 .15699768 .42399598 .19499207 .59799197 .31799317 .72299197 .33099366 .73498538 .33099366 .7369995 .33099366 .73999026 .33099366 .746994 .32699586 .75 .32099916 .75 .31098939 .75 .22099304 .6819916 .1619873 .5549927 .11099243 .44499208 .09899902 .33399964 .09899902 .25 .09899902 .17199707 .10998535 .050994874 .16499329-.06201172 .22499085-.18501282 .31098939-.25 .32099916-.25 .32699586-.25 .33099366-.24700928 .33099366-.2400055Z"/>
<path id="font_2_2" d="M.2889862 .25C.2889862 .32798768 .27799989 .44898988 .22299195 .56199648 .16299439 .68499758 .07699585 .75 .066986087 .75 .06098938 .75 .056991579 .74598696 .056991579 .73999026 .056991579 .7369995 .056991579 .73498538 .07598877 .71699526 .17399597 .6179962 .23098755 .45899964 .23098755 .25 .23098755 .07899475 .19400025-.09700012 .069992069-.2230072 .056991579-.23500061 .056991579-.23701477 .056991579-.2400055 .056991579-.2460022 .06098938-.25 .066986087-.25 .07699585-.25 .16699219-.18200684 .22599793-.055007936 .2769928 .054992677 .2889862 .16600037 .2889862 .25Z"/>
<path id="font_1_1" d="M.2639923 .4370575C.13899231 .40707398 .041992189 .27713014 .041992189 .15620423 .041992189 .0602417 .10598755-.01171875 .19999695-.01171875 .31698609-.01171875 .3999939 .14520264 .3999939 .28312684 .3999939 .37408448 .3600006 .424057 .32598878 .46903993 .2899933 .51400759 .23098755 .588974 .23098755 .6329498 .23098755 .65493777 .25099183 .67892459 .28599549 .67892459 .31599427 .67892459 .33599855 .66593936 .35699464 .651947 .3769989 .6399536 .39698792 .6269531 .4119873 .6269531 .43699647 .6269531 .45199586 .65093997 .45199586 .66693118 .45199586 .6889343 .43598939 .69192507 .3999939 .6999359 .34799195 .7109375 .33399964 .7109375 .31799317 .7109375 .23999024 .7109375 .20399475 .66793826 .20399475 .60795596 .20399475 .5539856 .23298645 .49801637 .2639923 .4370575M.27598573 .41506959C.30099488 .3690796 .33099366 .31510926 .33099366 .2431488 .33099366 .17718506 .29299928 .010269165 .19999695 .010269165 .14498902 .010269165 .10398865 .052246095 .10398865 .1282196 .10398865 .19117737 .14099121 .37908937 .27598573 .41506959Z"/>
<path id="font_1_2" d="M.14099121 .22688294C.17399597 .21289063 .20298767 .21289063 .22698975 .21289063 .25299073 .21289063 .30799867 .21289063 .30799867 .24397278 .30799867 .26802064 .272995 .27101136 .23498535 .27101136 .21398926 .27101136 .1789856 .26901246 .14199829 .25201417 .11898804 .26402284 .101989749 .28302003 .101989749 .31004334 .101989749 .37109376 .19999695 .40711976 .2899933 .40711976 .30599977 .40711976 .34199525 .40711976 .38198854 .37908937 .3929901 .37109376 .394989 .36909486 .4019928 .36909486 .4149933 .36909486 .42900086 .38209535 .42900086 .3961029 .42900086 .41511537 .36799623 .453125 .2999878 .453125 .18499756 .453125 .07699585 .3861084 .07699585 .31004334 .07699585 .26701356 .11299133 .24194336 .116989139 .23892212 .057998659 .20587158 .025985718 .14976502 .025985718 .10368347 .025985718 .03855896 .08299255-.022460938 .18899536-.022460938 .32099916-.022460938 .3769989 .06561279 .3769989 .0806427 .3769989 .08665466 .37199403 .090652469 .3659973 .090652469 .36099244 .090652469 .35798646 .08665466 .35598756 .08364868 .34199525 .06060791 .31799317 .023529053 .19799805 .023529053 .13699341 .023529053 .051986696 .03855896 .051986696 .109695438 .051986696 .14375305 .07998657 .19685364 .14099121 .22688294M.17399597 .2399292C.19699097 .2480011 .21798706 .24902344 .23498535 .24902344 .2599945 .24902344 .2639923 .2480011 .28199769 .2429657 .2669983 .23588562 .2649994 .23487854 .22698975 .23487854 .20498657 .23487854 .19299317 .23487854 .17399597 .2399292Z"/>
</defs>
<path transform="matrix(1,0,0,-1.00003,54.737,171.08269)" stroke-width=".79701" stroke-linecap="butt" stroke-miterlimit="10" stroke-linejoin="miter" fill="none" stroke="#000000" d="M-21.26009 0H167.49059"/>
<path transform="matrix(1,0,0,-1.00003,222.22759,171.08269)" d="M2.59026 0-1.55415 2.0722 0 0-1.55415-2.0722"/>
<path transform="matrix(1,0,0,-1.00003,54.737,171.08269)" stroke-width=".79701" stroke-linecap="butt" stroke-miterlimit="10" stroke-linejoin="miter" fill="none" stroke="#000000" d="M0-21.26009V167.49059"/>
<path transform="matrix(0,-1.00003,-1,-0,54.737,3.5870667)" d="M2.59026 0-1.55415 2.0722 0 0-1.55415-2.0722"/>
<path transform="matrix(1,0,0,-1.00003,54.737,171.08269)" stroke-width=".79701" stroke-linecap="butt" stroke-miterlimit="10" stroke-linejoin="miter" fill="none" stroke="#000000" d="M-18.7045 44.22406-13.81956 43.41814-6.37904 42.71095 1.06143 42.52539 8.50194 42.85951 15.94246 43.71529 23.38298 45.09142 30.82349 46.98853 38.26402 49.40663 45.70454 52.34508 53.14507 55.8045 60.58557 59.78432 68.0261 64.28572 75.46661 69.30682 82.90714 74.8496 90.34764 80.91269 97.78816 87.49744 105.22868 94.60252 112.66919 102.22731 120.10971 110.37502 127.55023 119.04115 134.99076 128.2302 142.43126 137.93766 149.87178 148.16803 155.83844 156.79018"/>
<path transform="matrix(-.98662,-.16278489,-.16278,.98664966,36.03252,126.8573)" d="M2.59026 0-1.55415 2.0722 0 0-1.55415-2.0722"/>
<path transform="matrix(.56902,-.82229468,-.82227,-.5690371,210.57543,14.287811)" d="M2.59026 0-1.55415 2.0722 0 0-1.55415-2.0722"/>
<path transform="matrix(1,0,0,-1.00003,54.737,171.08269)" stroke-width=".3985" stroke-linecap="butt" stroke-miterlimit="10" stroke-linejoin="miter" fill="none" stroke="#000000" d="M112.49597 2.98883V-2.98883"/>
<use data-text="a" xlink:href="#font_1_3" transform="matrix(9.9626,0,0,-9.962899,164.6,184.03308)"/>
<path transform="matrix(1,0,0,-1.00003,54.737,171.08269)" stroke-width=".3985" stroke-linecap="butt" stroke-miterlimit="10" stroke-linejoin="miter" fill="none" stroke="#000000" d="M131.81291 2.98883V-2.98883"/>
<use data-text="x" xlink:href="#font_1_5" transform="matrix(9.9626,0,0,-9.962899,183.703,184.03308)"/>
<path transform="matrix(1,0,0,-1.00003,54.737,171.08269)" stroke-width=".3985" stroke-linecap="butt" stroke-miterlimit="10" stroke-linejoin="miter" fill="none" stroke="#000000" d="M2.98883 102.04825H-2.98883"/>
<use data-text="f" xlink:href="#font_1_4" transform="matrix(9.9626,0,0,-9.962899,29.263,71.71471)"/>
<use data-text="(" xlink:href="#font_2_1" transform="matrix(9.9626,0,0,-9.962899,35.212999,71.71471)"/>
<use data-text="a" xlink:href="#font_1_3" transform="matrix(9.9626,0,0,-9.962899,39.08699,71.71471)"/>
<use data-text=")" xlink:href="#font_2_2" transform="matrix(9.9626,0,0,-9.962899,44.352998,71.71471)"/>
<path transform="matrix(1,0,0,-1.00003,54.737,171.08269)" stroke-width=".3985" stroke-linecap="butt" stroke-miterlimit="10" stroke-linejoin="miter" fill="none" stroke="#000000" d="M2.98883 124.24132H-2.98883"/>
<use data-text="f" xlink:href="#font_1_4" transform="matrix(9.9626,0,0,-9.962899,28.835999,49.521036)"/>
<use data-text="(" xlink:href="#font_2_1" transform="matrix(9.9626,0,0,-9.962899,34.785997,49.521036)"/>
<use data-text="x" xlink:href="#font_1_5" transform="matrix(9.9626,0,0,-9.962899,38.65999,49.521036)"/>
<use data-text=")" xlink:href="#font_2_2" transform="matrix(9.9626,0,0,-9.962899,44.35399,49.521036)"/>
<path transform="matrix(1,0,0,-1.00003,54.737,171.08269)" stroke-width=".3985" stroke-linecap="butt" stroke-miterlimit="10" stroke-linejoin="miter" fill="none" stroke="#000000" d="M148.82074 148.82074"/>
<use data-text="f" xlink:href="#font_1_4" transform="matrix(9.9626,0,0,-9.962899,207.078,32.21852)"/>
<path transform="matrix(1,0,0,-1.00003,54.737,171.08269)" stroke-width=".3985" stroke-linecap="butt" stroke-miterlimit="10" stroke-linejoin="miter" fill="none" stroke="#000000" d="M85.89099 0"/>
<use data-text="(" xlink:href="#font_2_1" transform="matrix(9.9626,0,0,-9.962899,138.69101,173.76677)"/>
<path transform="matrix(1,0,0,-1.00003,54.737,171.08269)" stroke-width=".3985" stroke-linecap="butt" stroke-miterlimit="10" stroke-linejoin="miter" fill="none" stroke="#000000" d="M139.9509 0"/>
<use data-text=")" xlink:href="#font_2_2" transform="matrix(9.9626,0,0,-9.962899,192.751,173.76677)"/>
<path transform="matrix(1,0,0,-1.00003,54.737,171.08269)" stroke-width=".3985" stroke-linecap="butt" stroke-miterlimit="10" stroke-linejoin="miter" fill="none" stroke="#000000" d="M0 51.02411"/>
<use data-text="(" xlink:href="#font_2_1" transform="matrix(0,-9.962899,-9.9626,-0,57.227998,122.74025)"/>
<path transform="matrix(1,0,0,-1.00003,54.737,171.08269)" stroke-width=".3985" stroke-linecap="butt" stroke-miterlimit="10" stroke-linejoin="miter" fill="none" stroke="#000000" d="M0 153.073"/>
<use data-text=")" xlink:href="#font_2_2" transform="matrix(0,-9.962899,-9.9626,-0,57.227998,20.688172)"/>
<path transform="matrix(1,0,0,-1.00003,54.737,171.08269)" stroke-width=".79701" stroke-linecap="butt" stroke-dasharray="2.98883,2.98883" stroke-miterlimit="10" stroke-linejoin="miter" fill="none" stroke="#000000" d="M85.04042 51.02411H139.9509V153.073H85.04042V51.02411"/>
<path transform="matrix(1,0,0,-1.00003,54.737,171.08269)" d="M114.19647 102.04825C114.19647 102.98741 113.43513 103.74875 112.49597 103.74875 111.55681 103.74875 110.79546 102.98741 110.79546 102.04825 110.79546 101.10909 111.55681 100.34773 112.49597 100.34773 113.43513 100.34773 114.19647 101.10909 114.19647 102.04825ZM112.49597 102.04825"/>
<path transform="matrix(1,0,0,-1.00003,54.737,171.08269)" d="M133.51342 124.24132C133.51342 125.18048 132.75208 125.94183 131.81291 125.94183 130.87375 125.94183 130.1124 125.18048 130.1124 124.24132 130.1124 123.30215 130.87375 122.54082 131.81291 122.54082 132.75208 122.54082 133.51342 123.30215 133.51342 124.24132ZM131.81291 124.24132"/>
<path transform="matrix(1,0,0,-1.00003,54.737,171.08269)" stroke-width=".3985" stroke-linecap="butt" stroke-miterlimit="10" stroke-linejoin="miter" fill="none" stroke="#000000" d="M112.49597-21.26009C111.7488-22.75452 110.00528-23.75078 107.51459-23.75078H103.74959C101.2589-23.75078 99.51538-24.74704 98.7682-26.24147 98.02103-24.74704 96.27751-23.75078 93.78682-23.75078H90.0218C87.53111-23.75078 85.7876-22.75452 85.04042-21.26009"/>
<use data-text="&#x03b4;" xlink:href="#font_1_1" transform="matrix(9.9626,0,0,-9.962899,151.103,209.39185)"/>
<path transform="matrix(1,0,0,-1.00003,54.737,171.08269)" stroke-width=".3985" stroke-linecap="butt" stroke-miterlimit="10" stroke-linejoin="miter" fill="none" stroke="#000000" d="M139.9509-21.26009C139.20372-22.75452 137.4602-23.75078 134.96952-23.75078H131.20482C128.71413-23.75078 126.97061-24.74704 126.22343-26.24147 125.47626-24.74704 123.73274-23.75078 121.24205-23.75078H117.47736C114.98666-23.75078 113.24315-22.75452 112.49597-21.26009"/>
<use data-text="&#x03b4;" xlink:href="#font_1_1" transform="matrix(9.9626,0,0,-9.962899,178.558,209.39185)"/>
<path transform="matrix(1,0,0,-1.00003,54.737,171.08269)" stroke-width=".3985" stroke-linecap="butt" stroke-miterlimit="10" stroke-linejoin="miter" fill="none" stroke="#000000" d="M-38.2679 102.04825C-39.76233 102.79543-40.75859 104.53894-40.75859 107.02963V122.57922C-40.75859 125.06992-41.75485 126.81343-43.24928 127.56061-41.75485 128.30779-40.75859 130.0513-40.75859 132.54199V148.09162C-40.75859 150.5823-39.76233 152.32582-38.2679 153.073"/>
<use data-text="&#x03b5;" xlink:href="#font_1_2" transform="matrix(9.9626,0,0,-9.962899,1.2169952,46.201936)"/>
<path transform="matrix(1,0,0,-1.00003,54.737,171.08269)" stroke-width=".3985" stroke-linecap="butt" stroke-miterlimit="10" stroke-linejoin="miter" fill="none" stroke="#000000" d="M-38.2679 51.02411C-39.76233 51.77129-40.75859 53.5148-40.75859 56.0055V71.5548C-40.75859 74.04549-41.75485 75.789-43.24928 76.53618-41.75485 77.28336-40.75859 79.02687-40.75859 81.51756V97.06686C-40.75859 99.55756-39.76233 101.30107-38.2679 102.04825"/>
<use data-text="&#x03b5;" xlink:href="#font_1_2" transform="matrix(9.9626,0,0,-9.962899,1.2169952,97.22847)"/>
</svg>
