<svg xmlns="http://www.w3.org/2000/svg" xmlns:xlink="http://www.w3.org/1999/xlink" version="1.1" width="132pt" height="178pt" viewBox="0 0 132 178">
<defs>
<path id="font_1_1" d="M.42199708 .38238526C.40098573 .41540528 .36698915 .44140626 .31900025 .44140626 .19099427 .44140626 .06098938 .300354 .06098938 .15628052 .06098938 .059249879 .12599182-.009765625 .21199036-.009765625 .2659912-.009765625 .31399537 .021224976 .35398866 .0602417 .37298585 .00022888184 .43099977-.009765625 .45700074-.009765625 .49299623-.009765625 .5179901 .01222229 .5359955 .04324341 .55799868 .08226013 .57099917 .13928223 .57099917 .14328003 .57099917 .15628052 .55799868 .15628052 .5549927 .15628052 .54100039 .15628052 .5399933 .15228272 .5329895 .12527466 .5209961 .07725525 .5019989 .018234253 .45999146 .018234253 .43399049 .018234253 .4269867 .040237428 .4269867 .06724548 .4269867 .08425903 .43499757 .120269779 .44198609 .14628601 .44898988 .17329407 .45899964 .21430969 .46398927 .23632813L.48399354 .3123474C.48999024 .33836366 .5019989 .38539125 .5019989 .39038087 .5019989 .4123993 .48399354 .4223938 .46798707 .4223938 .45098878 .4223938 .42799378 .4104004 .42199708 .38238526M.35798646 .12527466C.35099793 .09725952 .32899476 .07725525 .30699159 .058242799 .2979889 .050247194 .2579956 .018234253 .21499634 .018234253 .17799378 .018234253 .14199829 .04423523 .14199829 .11526489 .14199829 .16828919 .17098999 .27833558 .19400025 .31835938 .23999024 .39839173 .29100038 .4133911 .31900025 .4133911 .3889923 .4133911 .4079895 .33737184 .4079895 .32635499 .4079895 .32235719 .4059906 .3153534 .40499879 .3123474L.35798646 .12527466Z"/>
<path id="font_1_2" d="M.2639923 .66430667C.2649994 .66630557 .2679901 .67930606 .2679901 .68029788 .2679901 .68530276 .2639923 .6943054 .2519989 .6943054 .23199463 .6943054 .14898682 .6863098 .12399292 .6843109 .115997318 .68330386 .101989749 .682312 .101989749 .66130068 .101989749 .64730837 .115997318 .64730837 .12799073 .64730837 .17599488 .64730837 .17599488 .64030459 .17599488 .63230898 .17599488 .62532046 .1659851 .58532717 .1599884 .5623474L.13699341 .4703827C.12799073 .43640138 .07299805 .21731568 .070999149 .20431519 .06599426 .18029785 .06599426 .16729737 .06599426 .1552887 .06599426 .054244996 .12998963-.009765625 .21299744-.009765625 .33799745-.009765625 .47099305 .12626648 .47099305 .27433778 .47099305 .39138795 .3899994 .44140626 .32099916 .44140626 .2689972 .44140626 .22499085 .4123993 .19499207 .38638307L.2639923 .66430667M.21398926 .018234253C.16499329 .018234253 .13699341 .06124878 .13699341 .120269779 .13699341 .1572876 .1459961 .19129944 .17399597 .3043518 .17999268 .32336427 .17999268 .32536317 .19898987 .34736634 .23699951 .39138795 .28199769 .4133911 .31799317 .4133911 .35699464 .4133911 .3909912 .38438417 .3909912 .31636048 .3909912 .27534486 .36898805 .17329407 .33898927 .11526489 .31498719 .06625366 .2649994 .018234253 .21398926 .018234253Z"/>
<path id="font_1_3" d="M.43798829 .38304139C.4019928 .37702943 .3869934 .34902955 .3869934 .32702638 .3869934 .30003358 .4079895 .29003907 .42599488 .29003907 .44799806 .29003907 .48298646 .30603028 .48298646 .35403443 .48298646 .4223938 .40499879 .44140626 .35099793 .44140626 .20098877 .44140626 .06199646 .3030243 .06199646 .16412354 .06199646 .078186038 .12199402-.009765625 .24699402-.009765625 .41600038-.009765625 .49499513 .08917236 .49499513 .10316467 .49499513 .10916138 .48599244 .120147708 .47799684 .120147708 .47200013 .120147708 .46998597 .1181488 .46199037 .11016846 .38398744 .018234253 .2669983 .018234253 .24899292 .018234253 .1769867 .018234253 .14498902 .06718445 .14498902 .12915039 .14498902 .15812683 .15899658 .26704408 .21099854 .33602906 .24899292 .3850708 .30099488 .4133911 .35099793 .4133911 .36499024 .4133911 .41299439 .41137696 .43798829 .38304139Z"/>
<path id="font_1_4" d="M.57099917 .66430667C.57199099 .66630557 .57499697 .67930606 .57499697 .68029788 .57499697 .68530276 .57099917 .6943054 .5589905 .6943054 .5389862 .6943054 .45599366 .6863098 .43099977 .6843109 .4229889 .68330386 .40899659 .682312 .40899659 .66130068 .40899659 .64730837 .4229889 .64730837 .43499757 .64730837 .48298646 .64730837 .48298646 .64030459 .48298646 .63230898 .48298646 .62532046 .48098756 .61932376 .47898866 .61032107L.42199708 .38238526C.40098573 .41540528 .36698915 .44140626 .31900025 .44140626 .19099427 .44140626 .06098938 .300354 .06098938 .15628052 .06098938 .059249879 .12599182-.009765625 .21199036-.009765625 .2659912-.009765625 .31399537 .021224976 .35398866 .0602417 .37298585 .00022888184 .43099977-.009765625 .45700074-.009765625 .49299623-.009765625 .5179901 .01222229 .5359955 .04324341 .55799868 .08226013 .57099917 .13928223 .57099917 .14328003 .57099917 .15628052 .55799868 .15628052 .5549927 .15628052 .54100039 .15628052 .5399933 .15228272 .5329895 .12527466 .5209961 .07725525 .5019989 .018234253 .45999146 .018234253 .43399049 .018234253 .4269867 .040237428 .4269867 .06724548 .4269867 .086257938 .42900086 .09526062 .43199159 .10826111L.57099917 .66430667M.35798646 .12527466C.35099793 .09725952 .32899476 .07725525 .30699159 .058242799 .2979889 .050247194 .2579956 .018234253 .21499634 .018234253 .17799378 .018234253 .14199829 .04423523 .14199829 .11526489 .14199829 .16828919 .17098999 .27833558 .19400025 .31835938 .23999024 .39839173 .29100038 .4133911 .31900025 .4133911 .3889923 .4133911 .4079895 .33737184 .4079895 .32635499 .4079895 .32235719 .4059906 .3153534 .40499879 .3123474L.35798646 .12527466Z"/>
<path id="font_1_5" d="M.22399903 .22851563C.2519989 .22851563 .33099366 .23051453 .3849945 .24951172 .45899964 .27549745 .47299195 .3234558 .47299195 .35343934 .47299195 .4084015 .41799928 .44140626 .34899903 .44140626 .22898865 .44140626 .066986087 .34944154 .066986087 .17843628 .066986087 .077301029 .12998963-.009765625 .24699402-.009765625 .41600038-.009765625 .49499513 .08932495 .49499513 .10334778 .49499513 .10934448 .48599244 .12036133 .47799684 .12036133 .47200013 .12036133 .46998597 .11836243 .46199037 .11035156 .38398744 .018234253 .2669983 .018234253 .24899292 .018234253 .18899536 .018234253 .14898682 .058273317 .14898682 .13938904 .14898682 .15341187 .14898682 .1734314 .16099549 .22851563H.22399903M.16899109 .2565155C.20999146 .40141297 .32099916 .4133911 .34899903 .4133911 .3929901 .4133911 .42999269 .39141847 .42999269 .35343934 .42999269 .2565155 .26098634 .2565155 .21798706 .2565155H.16899109Z"/>
<path id="font_2_1" d="M.33499146 .63612368C.33499146 .6630554 .33299256 .6640625 .30499269 .6640625 .24099732 .6014404 .1499939 .6004486 .10899353 .6004486V.5644531C.1329956 .5644531 .19898987 .5644531 .2539978 .592453V.08203125C.2539978 .04899597 .2539978 .035995485 .1539917 .035995485H.115997318V0C.13398743 .0009918213 .25698854 .0039978029 .2939911 .0039978029 .32499696 .0039978029 .45098878 .0009918213 .47299195 0V.035995485H.43499757C.33499146 .035995485 .33499146 .04899597 .33499146 .08203125V.63612368Z"/>
<path id="font_2_2" d="M.5049896 .18203736H.47099305C.46798707 .16001892 .45799256 .100997928 .44499208 .09098816 .43699647 .084991458 .3600006 .084991458 .34599305 .084991458H.1619873C.2669983 .17803955 .3019867 .20603943 .3619995 .25306703 .43598939 .312088 .5049896 .374115 .5049896 .46914674 .5049896 .5900879 .39898683 .6640625 .2709961 .6640625 .14698792 .6640625 .06298828 .57710269 .06298828 .4851532 .06298828 .43414308 .10598755 .42915345 .115997318 .42915345 .13999939 .42915345 .16899109 .44615174 .16899109 .48214723 .16899109 .5001526 .1619873 .53515627 .10998535 .53515627 .14099121 .6060791 .20899964 .62805178 .2559967 .62805178 .35598756 .62805178 .4079895 .5501404 .4079895 .46914674 .4079895 .38212586 .34599305 .3130951 .31399537 .27708436L.07299805 .038986207C.06298828 .02999878 .06298828 .027999878 .06298828 0H.47499085L.5049896 .18203736Z"/>
<path id="font_2_3" d="M.272995 .33428956C.35099793 .33428956 .40699769 .2803192 .40699769 .1733551 .40699769 .04940796 .33499146 .012466431 .2769928 .012466431 .23699951 .012466431 .14898682 .0234375 .10699463 .082351688 .1539917 .084350589 .16499329 .11735535 .16499329 .13835144 .16499329 .17034912 .14099121 .19335938 .10998535 .19335938 .08198547 .19335938 .053985597 .17634583 .053985597 .13534546 .053985597 .041412355 .1579895-.01953125 .2789917-.01953125 .41799928-.01953125 .5139923 .07336426 .5139923 .1733551 .5139923 .2513275 .44999696 .32929994 .33999635 .35229493 .44499208 .39024354 .48298646 .4650879 .48298646 .5260773 .48298646 .60505679 .3919983 .6640625 .2809906 .6640625 .16999817 .6640625 .084991458 .61006167 .084991458 .5300751 .084991458 .49606324 .10699463 .47706605 .13699341 .47706605 .16799927 .47706605 .18798828 .5000763 .18798828 .5280762 .18798828 .5570679 .16799927 .57806399 .13699341 .5800781 .17199707 .62405398 .24099732 .63505557 .27799989 .63505557 .32299806 .63505557 .38598634 .6130676 .38598634 .5260773 .38598634 .48406983 .37199403 .43814088 .34599305 .4072113 .31298829 .36927796 .2849884 .3672943 .23498535 .36428834 .20999146 .3623047 .20799256 .3623047 .20298767 .3612976 .20098877 .3612976 .19299317 .3592987 .19299317 .34829713 .19299317 .33428956 .20199585 .33428956 .21899414 .33428956H.272995Z"/>
<path id="font_2_4" d="M.5289917 .1640625V.20005799H.41799928V.64582827C.41799928 .66682437 .41799928 .6738281 .3959961 .6738281 .38398744 .6738281 .37998963 .6738281 .36999513 .65982058L.038986207 .20005799V.1640625H.33299256V.08201599C.33299256 .04800415 .33299256 .035995485 .2519989 .035995485H.22499085V0C.2749939 .0019989014 .33898927 .0039978029 .375 .0039978029 .4119873 .0039978029 .47599793 .0019989014 .526001 0V.035995485H.49899293C.41799928 .035995485 .41799928 .04800415 .41799928 .08201599V.1640625H.5289917M.33999635 .5658722V.20005799H.07598877L.33999635 .5658722Z"/>
<path id="font_3_1" d="M.1789856 .114868167C.13899231 .047973634 .099990848 .033981325 .055999757 .0309906 .04399109 .02999878 .034988405 .02999878 .034988405 .010986328 .034988405 .004989624 .039993287 0 .04798889 0 .07499695 0 .10598755 .0029907227 .13398743 .0029907227 .16699219 .0029907227 .20199585 0 .23399353 0 .23999024 0 .25299073 0 .25299073 .018997193 .25299073 .02999878 .24398804 .0309906 .23699951 .0309906 .21398926 .032989503 .18998719 .04096985 .18998719 .06593323 .18998719 .077926639 .19599915 .088897708 .20399475 .102890018L.27999879 .23068238H.5309906C.5329895 .2097168 .5469971 .07392883 .5469971 .063949588 .5469971 .033981325 .49499513 .0309906 .47499085 .0309906 .46099855 .0309906 .45098878 .0309906 .45098878 .010986328 .45098878 0 .46299745 0 .46499635 0 .5059967 0 .548996 .0029907227 .58999636 .0029907227 .61499026 .0029907227 .6779938 0 .7029877 0 .70899966 0 .72099307 0 .72099307 .019989014 .72099307 .0309906 .71099856 .0309906 .69799807 .0309906 .6359863 .0309906 .6359863 .037979127 .6329956 .06694031L.57199099 .691803C.56999209 .71180728 .56999209 .7158203 .5529938 .7158203 .5369873 .7158203 .5329895 .7088165 .5269928 .69880679L.1789856 .114868167M.29899598 .26168824 .49598695 .5917816 .5279999 .26168824H.29899598Z"/>
<path id="font_3_2" d="M.1599884 .07795715C.1499939 .038986207 .147995 .0309906 .068984989 .0309906 .051986696 .0309906 .041992189 .0309906 .041992189 .010986328 .041992189 0 .050994874 0 .068984989 0H.42599488C.58399966 0 .70199587 .11791992 .70199587 .21585083 .70199587 .28778077 .6439972 .3457489 .5469971 .35673524 .651001 .37573243 .7559967 .44970704 .7559967 .5446625 .7559967 .6186218 .6899872 .6826172 .56999209 .6826172H.23399353C.21499634 .6826172 .20498657 .6826172 .20498657 .6626129 .20498657 .6516113 .21398926 .6516113 .23298645 .6516113 .23498535 .6516113 .2539978 .6516113 .2709961 .6496124 .2889862 .6476135 .2979889 .64660647 .2979889 .6336212 .2979889 .6296234 .29699708 .62661746 .2939911 .614624L.1599884 .07795715M.31098939 .36573792 .37298585 .6136322C.38198854 .64860537 .38398744 .6516113 .4269867 .6516113H.55599978C.6439972 .6516113 .6649933 .5926361 .6649933 .5486603 .6649933 .46069337 .57899478 .36573792 .45700074 .36573792H.31098939M.2659912 .0309906C.2519989 .0309906 .25 .0309906 .24398804 .03199768 .23399353 .032989503 .23098755 .033996583 .23098755 .04197693 .23098755 .04498291 .23098755 .04698181 .23599243 .064971927L.30499269 .34375H.49398805C.58999636 .34375 .60899356 .2698059 .60899356 .22683716 .60899356 .12791443 .519989 .0309906 .4019928 .0309906H.2659912Z"/>
</defs>
<path transform="matrix(1,0,0,-1.00005,23.455002,199.22332)" d="M7.08669 170.08042C7.08669 173.99433 3.91391 177.1671 0 177.1671-3.91391 177.1671-7.08669 173.99433-7.08669 170.08042-7.08669 166.16649-3.91391 162.99372 0 162.99372 3.91391 162.99372 7.08669 166.16649 7.08669 170.08042ZM0 170.08042" fill="#999999"/>
<path transform="matrix(1,0,0,-1.00005,23.455002,199.22332)" stroke-width=".59776" stroke-linecap="butt" stroke-miterlimit="10" stroke-linejoin="miter" fill="none" stroke="#000000" d="M7.08669 170.08042C7.08669 173.99433 3.91391 177.1671 0 177.1671-3.91391 177.1671-7.08669 173.99433-7.08669 170.08042-7.08669 166.16649-3.91391 162.99372 0 162.99372 3.91391 162.99372 7.08669 166.16649 7.08669 170.08042ZM0 170.08042"/>
<use data-text="a" xlink:href="#font_1_1" transform="matrix(6.9738,0,0,-6.9741489,21.293999,30.635895)"/>
<path transform="matrix(1,0,0,-1.00005,23.455002,199.22332)" d="M7.08669 136.06433C7.08669 139.97824 3.91391 143.15102 0 143.15102-3.91391 143.15102-7.08669 139.97824-7.08669 136.06433-7.08669 132.1504-3.91391 128.97763 0 128.97763 3.91391 128.97763 7.08669 132.1504 7.08669 136.06433ZM0 136.06433" fill="#999999"/>
<path transform="matrix(1,0,0,-1.00005,23.455002,199.22332)" stroke-width=".59776" stroke-linecap="butt" stroke-miterlimit="10" stroke-linejoin="miter" fill="none" stroke="#000000" d="M7.08669 136.06433C7.08669 139.97824 3.91391 143.15102 0 143.15102-3.91391 143.15102-7.08669 139.97824-7.08669 136.06433-7.08669 132.1504-3.91391 128.97763 0 128.97763 3.91391 128.97763 7.08669 132.1504 7.08669 136.06433ZM0 136.06433"/>
<use data-text="b" xlink:href="#font_1_2" transform="matrix(6.9738,0,0,-6.9741489,21.703003,65.57364)"/>
<path transform="matrix(1,0,0,-1.00005,23.455002,199.22332)" d="M7.08669 102.04825C7.08669 105.96216 3.91391 109.13493 0 109.13493-3.91391 109.13493-7.08669 105.96216-7.08669 102.04825-7.08669 98.13432-3.91391 94.96155 0 94.96155 3.91391 94.96155 7.08669 98.13432 7.08669 102.04825ZM0 102.04825" fill="#999999"/>
<path transform="matrix(1,0,0,-1.00005,23.455002,199.22332)" stroke-width=".59776" stroke-linecap="butt" stroke-miterlimit="10" stroke-linejoin="miter" fill="none" stroke="#000000" d="M7.08669 102.04825C7.08669 105.96216 3.91391 109.13493 0 109.13493-3.91391 109.13493-7.08669 105.96216-7.08669 102.04825-7.08669 98.13432-3.91391 94.96155 0 94.96155 3.91391 94.96155 7.08669 98.13432 7.08669 102.04825ZM0 102.04825"/>
<use data-text="c" xlink:href="#font_1_3" transform="matrix(6.9738,0,0,-6.9741489,21.675004,98.671298)"/>
<path transform="matrix(1,0,0,-1.00005,23.455002,199.22332)" d="M7.08669 68.03217C7.08669 71.94608 3.91391 75.11885 0 75.11885-3.91391 75.11885-7.08669 71.94608-7.08669 68.03217-7.08669 64.11824-3.91391 60.94547 0 60.94547 3.91391 60.94547 7.08669 64.11824 7.08669 68.03217ZM0 68.03217" fill="#999999"/>
<path transform="matrix(1,0,0,-1.00005,23.455002,199.22332)" stroke-width=".59776" stroke-linecap="butt" stroke-miterlimit="10" stroke-linejoin="miter" fill="none" stroke="#000000" d="M7.08669 68.03217C7.08669 71.94608 3.91391 75.11885 0 75.11885-3.91391 75.11885-7.08669 71.94608-7.08669 68.03217-7.08669 64.11824-3.91391 60.94547 0 60.94547 3.91391 60.94547 7.08669 64.11824 7.08669 68.03217ZM0 68.03217"/>
<use data-text="d" xlink:href="#font_1_4" transform="matrix(6.9738,0,0,-6.9741489,21.381005,133.60904)"/>
<path transform="matrix(1,0,0,-1.00005,23.455002,199.22332)" d="M7.08669 34.01608C7.08669 37.93 3.91391 41.10277 0 41.10277-3.91391 41.10277-7.08669 37.93-7.08669 34.01608-7.08669 30.10216-3.91391 26.92938 0 26.92938 3.91391 26.92938 7.08669 30.10216 7.08669 34.01608ZM0 34.01608" fill="#999999"/>
<path transform="matrix(1,0,0,-1.00005,23.455002,199.22332)" stroke-width=".59776" stroke-linecap="butt" stroke-miterlimit="10" stroke-linejoin="miter" fill="none" stroke="#000000" d="M7.08669 34.01608C7.08669 37.93 3.91391 41.10277 0 41.10277-3.91391 41.10277-7.08669 37.93-7.08669 34.01608-7.08669 30.10216-3.91391 26.92938 0 26.92938 3.91391 26.92938 7.08669 30.10216 7.08669 34.01608ZM0 34.01608"/>
<use data-text="e" xlink:href="#font_1_5" transform="matrix(6.9738,0,0,-6.9741489,21.565003,166.7067)"/>
<path transform="matrix(1,0,0,-1.00005,23.455002,199.22332)" d="M92.12689 153.07236C92.12689 156.98628 88.95412 160.15906 85.04019 160.15906 81.12628 160.15906 77.9535 156.98628 77.9535 153.07236 77.9535 149.15845 81.12628 145.98567 85.04019 145.98567 88.95412 145.98567 92.12689 149.15845 92.12689 153.07236ZM85.04019 153.07236" fill="#999999"/>
<path transform="matrix(1,0,0,-1.00005,23.455002,199.22332)" stroke-width=".59776" stroke-linecap="butt" stroke-miterlimit="10" stroke-linejoin="miter" fill="none" stroke="#000000" d="M92.12689 153.07236C92.12689 156.98628 88.95412 160.15906 85.04019 160.15906 81.12628 160.15906 77.9535 156.98628 77.9535 153.07236 77.9535 149.15845 81.12628 145.98567 85.04019 145.98567 88.95412 145.98567 92.12689 149.15845 92.12689 153.07236ZM85.04019 153.07236"/>
<use data-text="1" xlink:href="#font_2_1" transform="matrix(6.9738,0,0,-6.9741489,106.51,48.390779)"/>
<path transform="matrix(1,0,0,-1.00005,23.455002,199.22332)" d="M92.12689 119.05627C92.12689 122.9702 88.95412 126.14297 85.04019 126.14297 81.12628 126.14297 77.9535 122.9702 77.9535 119.05627 77.9535 115.14236 81.12628 111.96959 85.04019 111.96959 88.95412 111.96959 92.12689 115.14236 92.12689 119.05627ZM85.04019 119.05627" fill="#999999"/>
<path transform="matrix(1,0,0,-1.00005,23.455002,199.22332)" stroke-width=".59776" stroke-linecap="butt" stroke-miterlimit="10" stroke-linejoin="miter" fill="none" stroke="#000000" d="M92.12689 119.05627C92.12689 122.9702 88.95412 126.14297 85.04019 126.14297 81.12628 126.14297 77.9535 122.9702 77.9535 119.05627 77.9535 115.14236 81.12628 111.96959 85.04019 111.96959 88.95412 111.96959 92.12689 115.14236 92.12689 119.05627ZM85.04019 119.05627"/>
<use data-text="2" xlink:href="#font_2_2" transform="matrix(6.9738,0,0,-6.9741489,106.51,82.40848)"/>
<path transform="matrix(1,0,0,-1.00005,23.455002,199.22332)" d="M92.12689 85.04019C92.12689 88.95412 88.95412 92.12689 85.04019 92.12689 81.12628 92.12689 77.9535 88.95412 77.9535 85.04019 77.9535 81.12628 81.12628 77.9535 85.04019 77.9535 88.95412 77.9535 92.12689 81.12628 92.12689 85.04019ZM85.04019 85.04019" fill="#999999"/>
<path transform="matrix(1,0,0,-1.00005,23.455002,199.22332)" stroke-width=".59776" stroke-linecap="butt" stroke-miterlimit="10" stroke-linejoin="miter" fill="none" stroke="#000000" d="M92.12689 85.04019C92.12689 88.95412 88.95412 92.12689 85.04019 92.12689 81.12628 92.12689 77.9535 88.95412 77.9535 85.04019 77.9535 81.12628 81.12628 77.9535 85.04019 77.9535 88.95412 77.9535 92.12689 81.12628 92.12689 85.04019ZM85.04019 85.04019"/>
<use data-text="3" xlink:href="#font_2_3" transform="matrix(6.9738,0,0,-6.9741489,106.51,116.42618)"/>
<path transform="matrix(1,0,0,-1.00005,23.455002,199.22332)" d="M92.12689 51.02411C92.12689 54.93803 88.95412 58.1108 85.04019 58.1108 81.12628 58.1108 77.9535 54.93803 77.9535 51.02411 77.9535 47.1102 81.12628 43.93742 85.04019 43.93742 88.95412 43.93742 92.12689 47.1102 92.12689 51.02411ZM85.04019 51.02411" fill="#999999"/>
<path transform="matrix(1,0,0,-1.00005,23.455002,199.22332)" stroke-width=".59776" stroke-linecap="butt" stroke-miterlimit="10" stroke-linejoin="miter" fill="none" stroke="#000000" d="M92.12689 51.02411C92.12689 54.93803 88.95412 58.1108 85.04019 58.1108 81.12628 58.1108 77.9535 54.93803 77.9535 51.02411 77.9535 47.1102 81.12628 43.93742 85.04019 43.93742 88.95412 43.93742 92.12689 47.1102 92.12689 51.02411ZM85.04019 51.02411"/>
<use data-text="4" xlink:href="#font_2_4" transform="matrix(6.9738,0,0,-6.9741489,106.51,150.44388)"/>
<path transform="matrix(1,0,0,-1.00005,23.455002,199.22332)" stroke-width=".59776" stroke-linecap="butt" stroke-miterlimit="10" stroke-linejoin="miter" fill="none" stroke="#929292" d="M17.275 180.84043H-17.275C-19.47594 180.84043-21.2601 179.05626-21.2601 176.85532V27.31981C-21.2601 25.11887-19.47594 23.3347-17.275 23.3347H17.275C19.47594 23.3347 21.2601 25.11887 21.2601 27.31981V176.85532C21.2601 179.05626 19.47594 180.84043 17.275 180.84043ZM-21.2601 23.3347"/>
<path transform="matrix(1,0,0,-1.00005,23.455002,199.22332)" stroke-width=".59776" stroke-linecap="butt" stroke-miterlimit="10" stroke-linejoin="miter" fill="none" stroke="#929292" d="M102.34795 163.82907H67.79796C65.59702 163.82907 63.81285 162.0449 63.81285 159.84397V44.33112C63.81285 42.13017 65.59702 40.34601 67.79796 40.34601H102.34795C104.54889 40.34601 106.33305 42.13017 106.33305 44.33112V159.84397C106.33305 162.0449 104.54889 163.82907 102.34795 163.82907ZM63.81285 40.34601"/>
<path transform="matrix(1,0,0,-1.00005,23.455002,199.22332)" stroke-width=".59776" stroke-linecap="butt" stroke-miterlimit="10" stroke-linejoin="miter" fill="none" stroke="#000000" d="M7.24382 168.66782 74.5902 155.1978"/>
<path transform="matrix(.98053,.19610979,.1961,-.980579,98.045207,44.01776)" d="M2.29138 0-1.37483 1.83311 0 0-1.37483-1.83311"/>
<path transform="matrix(1,0,0,-1.00005,23.455002,199.22332)" stroke-width=".59776" stroke-linecap="butt" stroke-miterlimit="10" stroke-linejoin="miter" fill="none" stroke="#000000" d="M6.33533 166.31476 75.90453 124.57307"/>
<path transform="matrix(.85747,.5145257,.5145,-.85751286,99.359539,74.644)" d="M2.29138 0-1.37483 1.83311 0 0-1.37483-1.83311"/>
<path transform="matrix(1,0,0,-1.00005,23.455002,199.22332)" stroke-width=".59776" stroke-linecap="butt" stroke-miterlimit="10" stroke-linejoin="miter" fill="none" stroke="#000000" d="M4.29414 164.10303 78.85321 59.72035"/>
<path transform="matrix(.58119,.81373068,.81369,-.581219,102.30821,139.49996)" d="M2.29138 0-1.37483 1.83311 0 0-1.37483-1.83311"/>
<path transform="matrix(1,0,0,-1.00005,23.455002,199.22332)" stroke-width=".59776" stroke-linecap="butt" stroke-miterlimit="10" stroke-linejoin="miter" fill="none" stroke="#000000" d="M7.24281 103.51833 74.58936 116.98755"/>
<path transform="matrix(.98055,-.19610979,-.1961,-.980599,98.04434,82.22992)" d="M2.29138 0-1.37483 1.83311 0 0-1.37483-1.83311"/>
<path transform="matrix(1,0,0,-1.00005,23.455002,199.22332)" stroke-width=".59776" stroke-linecap="butt" stroke-miterlimit="10" stroke-linejoin="miter" fill="none" stroke="#000000" d="M6.33362 71.8465 75.90294 113.588"/>
<path transform="matrix(.85747,-.5145057,-.51448,-.85751286,99.35794,85.629657)" d="M2.29138 0-1.37483 1.83311 0 0-1.37483-1.83311"/>
<path transform="matrix(1,0,0,-1.00005,23.455002,199.22332)" stroke-width=".59776" stroke-linecap="butt" stroke-miterlimit="10" stroke-linejoin="miter" fill="none" stroke="#000000" d="M5.22304 39.24614 77.50833 111.53142"/>
<path transform="matrix(.7071,-.7071353,-.7071,-.7071353,100.96333,87.686328)" d="M2.29138 0-1.37483 1.83311 0 0-1.37483-1.83311"/>
<path transform="matrix(1,0,0,-1.00005,23.455002,199.22332)" stroke-width=".59776" stroke-linecap="butt" stroke-miterlimit="10" stroke-linejoin="miter" fill="none" stroke="#000000" d="M7.24315 35.4718 74.5896 48.94113"/>
<path transform="matrix(.98055,-.19610979,-.1961,-.980599,98.04458,150.27974)" d="M2.29138 0-1.37483 1.83311 0 0-1.37483-1.83311"/>
<use data-text="A" xlink:href="#font_3_1" transform="matrix(9.9626,0,0,-9.963098,19.719002,8.725784)"/>
<use data-text="B" xlink:href="#font_3_2" transform="matrix(9.9626,0,0,-9.963098,104.467,25.73465)"/>
</svg>
