<svg xmlns="http://www.w3.org/2000/svg" xmlns:xlink="http://www.w3.org/1999/xlink" version="1.1" width="113pt" height="171pt" viewBox="0 0 113 171">
<defs>
<path id="font_1_1" d="M.42199708 .38238526C.40098573 .41540528 .36698915 .44140626 .31900025 .44140626 .19099427 .44140626 .06098938 .300354 .06098938 .15628052 .06098938 .059249879 .12599182-.009765625 .21199036-.009765625 .2659912-.009765625 .31399537 .021224976 .35398866 .0602417 .37298585 .00022888184 .43099977-.009765625 .45700074-.009765625 .49299623-.009765625 .5179901 .01222229 .5359955 .04324341 .55799868 .08226013 .57099917 .13928223 .57099917 .14328003 .57099917 .15628052 .55799868 .15628052 .5549927 .15628052 .54100039 .15628052 .5399933 .15228272 .5329895 .12527466 .5209961 .07725525 .5019989 .018234253 .45999146 .018234253 .43399049 .018234253 .4269867 .040237428 .4269867 .06724548 .4269867 .08425903 .43499757 .120269779 .44198609 .14628601 .44898988 .17329407 .45899964 .21430969 .46398927 .23632813L.48399354 .3123474C.48999024 .33836366 .5019989 .38539125 .5019989 .39038087 .5019989 .4123993 .48399354 .4223938 .46798707 .4223938 .45098878 .4223938 .42799378 .4104004 .42199708 .38238526M.35798646 .12527466C.35099793 .09725952 .32899476 .07725525 .30699159 .058242799 .2979889 .050247194 .2579956 .018234253 .21499634 .018234253 .17799378 .018234253 .14199829 .04423523 .14199829 .11526489 .14199829 .16828919 .17098999 .27833558 .19400025 .31835938 .23999024 .39839173 .29100038 .4133911 .31900025 .4133911 .3889923 .4133911 .4079895 .33737184 .4079895 .32635499 .4079895 .32235719 .4059906 .3153534 .40499879 .3123474L.35798646 .12527466Z"/>
<path id="font_1_2" d="M.2639923 .66430667C.2649994 .66630557 .2679901 .67930606 .2679901 .68029788 .2679901 .68530276 .2639923 .6943054 .2519989 .6943054 .23199463 .6943054 .14898682 .6863098 .12399292 .6843109 .115997318 .68330386 .101989749 .682312 .101989749 .66130068 .101989749 .64730837 .115997318 .64730837 .12799073 .64730837 .17599488 .64730837 .17599488 .64030459 .17599488 .63230898 .17599488 .62532046 .1659851 .58532717 .1599884 .5623474L.13699341 .4703827C.12799073 .43640138 .07299805 .21731568 .070999149 .20431519 .06599426 .18029785 .06599426 .16729737 .06599426 .1552887 .06599426 .054244996 .12998963-.009765625 .21299744-.009765625 .33799745-.009765625 .47099305 .12626648 .47099305 .27433778 .47099305 .39138795 .3899994 .44140626 .32099916 .44140626 .2689972 .44140626 .22499085 .4123993 .19499207 .38638307L.2639923 .66430667M.21398926 .018234253C.16499329 .018234253 .13699341 .06124878 .13699341 .120269779 .13699341 .1572876 .1459961 .19129944 .17399597 .3043518 .17999268 .32336427 .17999268 .32536317 .19898987 .34736634 .23699951 .39138795 .28199769 .4133911 .31799317 .4133911 .35699464 .4133911 .3909912 .38438417 .3909912 .31636048 .3909912 .27534486 .36898805 .17329407 .33898927 .11526489 .31498719 .06625366 .2649994 .018234253 .21398926 .018234253Z"/>
<path id="font_1_4" d="M.57099917 .66430667C.57199099 .66630557 .57499697 .67930606 .57499697 .68029788 .57499697 .68530276 .57099917 .6943054 .5589905 .6943054 .5389862 .6943054 .45599366 .6863098 .43099977 .6843109 .4229889 .68330386 .40899659 .682312 .40899659 .66130068 .40899659 .64730837 .4229889 .64730837 .43499757 .64730837 .48298646 .64730837 .48298646 .64030459 .48298646 .63230898 .48298646 .62532046 .48098756 .61932376 .47898866 .61032107L.42199708 .38238526C.40098573 .41540528 .36698915 .44140626 .31900025 .44140626 .19099427 .44140626 .06098938 .300354 .06098938 .15628052 .06098938 .059249879 .12599182-.009765625 .21199036-.009765625 .2659912-.009765625 .31399537 .021224976 .35398866 .0602417 .37298585 .00022888184 .43099977-.009765625 .45700074-.009765625 .49299623-.009765625 .5179901 .01222229 .5359955 .04324341 .55799868 .08226013 .57099917 .13928223 .57099917 .14328003 .57099917 .15628052 .55799868 .15628052 .5549927 .15628052 .54100039 .15628052 .5399933 .15228272 .5329895 .12527466 .5209961 .07725525 .5019989 .018234253 .45999146 .018234253 .43399049 .018234253 .4269867 .040237428 .4269867 .06724548 .4269867 .086257938 .42900086 .09526062 .43199159 .10826111L.57099917 .66430667M.35798646 .12527466C.35099793 .09725952 .32899476 .07725525 .30699159 .058242799 .2979889 .050247194 .2579956 .018234253 .21499634 .018234253 .17799378 .018234253 .14199829 .04423523 .14199829 .11526489 .14199829 .16828919 .17098999 .27833558 .19400025 .31835938 .23999024 .39839173 .29100038 .4133911 .31900025 .4133911 .3889923 .4133911 .4079895 .33737184 .4079895 .32635499 .4079895 .32235719 .4059906 .3153534 .40499879 .3123474L.35798646 .12527466Z"/>
<path id="font_1_3" d="M.43798829 .38304139C.4019928 .37702943 .3869934 .34902955 .3869934 .32702638 .3869934 .30003358 .4079895 .29003907 .42599488 .29003907 .44799806 .29003907 .48298646 .30603028 .48298646 .35403443 .48298646 .4223938 .40499879 .44140626 .35099793 .44140626 .20098877 .44140626 .06199646 .3030243 .06199646 .16412354 .06199646 .078186038 .12199402-.009765625 .24699402-.009765625 .41600038-.009765625 .49499513 .08917236 .49499513 .10316467 .49499513 .10916138 .48599244 .120147708 .47799684 .120147708 .47200013 .120147708 .46998597 .1181488 .46199037 .11016846 .38398744 .018234253 .2669983 .018234253 .24899292 .018234253 .1769867 .018234253 .14498902 .06718445 .14498902 .12915039 .14498902 .15812683 .15899658 .26704408 .21099854 .33602906 .24899292 .3850708 .30099488 .4133911 .35099793 .4133911 .36499024 .4133911 .41299439 .41137696 .43798829 .38304139Z"/>
<path id="font_1_5" d="M.22399903 .22851563C.2519989 .22851563 .33099366 .23051453 .3849945 .24951172 .45899964 .27549745 .47299195 .3234558 .47299195 .35343934 .47299195 .4084015 .41799928 .44140626 .34899903 .44140626 .22898865 .44140626 .066986087 .34944154 .066986087 .17843628 .066986087 .077301029 .12998963-.009765625 .24699402-.009765625 .41600038-.009765625 .49499513 .08932495 .49499513 .10334778 .49499513 .10934448 .48599244 .12036133 .47799684 .12036133 .47200013 .12036133 .46998597 .11836243 .46199037 .11035156 .38398744 .018234253 .2669983 .018234253 .24899292 .018234253 .18899536 .018234253 .14898682 .058273317 .14898682 .13938904 .14898682 .15341187 .14898682 .1734314 .16099549 .22851563H.22399903M.16899109 .2565155C.20999146 .40141297 .32099916 .4133911 .34899903 .4133911 .3929901 .4133911 .42999269 .39141847 .42999269 .35343934 .42999269 .2565155 .26098634 .2565155 .21798706 .2565155H.16899109Z"/>
</defs>
<path transform="matrix(1.00006,0,0,-1.00002,24.341736,65.1321)" d="M7.08669 0C7.08669 3.91391 3.91391 7.08669 0 7.08669-3.91391 7.08669-7.08669 3.91391-7.08669 0-7.08669-3.91391-3.91391-7.08669 0-7.08669 3.91391-7.08669 7.08669-3.91391 7.08669 0ZM0 0" fill="#999999"/>
<path transform="matrix(1.00006,0,0,-1.00002,24.341736,65.1321)" stroke-width=".59776" stroke-linecap="butt" stroke-miterlimit="10" stroke-linejoin="miter" fill="none" stroke="#000000" d="M7.08669 0C7.08669 3.91391 3.91391 7.08669 0 7.08669-3.91391 7.08669-7.08669 3.91391-7.08669 0-7.08669-3.91391-3.91391-7.08669 0-7.08669 3.91391-7.08669 7.08669-3.91391 7.08669 0ZM0 0"/>
<use data-text="a" xlink:href="#font_1_1" transform="matrix(6.9742186,0,0,-6.97394,22.180603,66.63313)"/>
<path transform="matrix(1.00006,0,0,-1.00002,24.341736,65.1321)" d="M47.17517 40.08847C47.17517 44.0024 44.0024 47.17517 40.08847 47.17517 36.17456 47.17517 33.00179 44.0024 33.00179 40.08847 33.00179 36.17456 36.17456 33.00179 40.08847 33.00179 44.0024 33.00179 47.17517 36.17456 47.17517 40.08847ZM40.08847 40.08847" fill="#999999"/>
<path transform="matrix(1.00006,0,0,-1.00002,24.341736,65.1321)" stroke-width=".59776" stroke-linecap="butt" stroke-miterlimit="10" stroke-linejoin="miter" fill="none" stroke="#000000" d="M47.17517 40.08847C47.17517 44.0024 44.0024 47.17517 40.08847 47.17517 36.17456 47.17517 33.00179 44.0024 33.00179 40.08847 33.00179 36.17456 36.17456 33.00179 40.08847 33.00179 44.0024 33.00179 47.17517 36.17456 47.17517 40.08847ZM40.08847 40.08847"/>
<use data-text="b" xlink:href="#font_1_2" transform="matrix(6.9742186,0,0,-6.97394,62.681039,27.464348)"/>
<path transform="matrix(1.00006,0,0,-1.00002,24.341736,65.1321)" d="M47.17517-40.08847C47.17517-36.17456 44.0024-33.00179 40.08847-33.00179 36.17456-33.00179 33.00179-36.17456 33.00179-40.08847 33.00179-44.0024 36.17456-47.17517 40.08847-47.17517 44.0024-47.17517 47.17517-44.0024 47.17517-40.08847ZM40.08847-40.08847" fill="#999999"/>
<path transform="matrix(1.00006,0,0,-1.00002,24.341736,65.1321)" stroke-width=".59776" stroke-linecap="butt" stroke-miterlimit="10" stroke-linejoin="miter" fill="none" stroke="#000000" d="M47.17517-40.08847C47.17517-36.17456 44.0024-33.00179 40.08847-33.00179 36.17456-33.00179 33.00179-36.17456 33.00179-40.08847 33.00179-44.0024 36.17456-47.17517 40.08847-47.17517 44.0024-47.17517 47.17517-44.0024 47.17517-40.08847ZM40.08847-40.08847"/>
<use data-text="d" xlink:href="#font_1_4" transform="matrix(6.9742186,0,0,-6.97394,62.359018,107.64295)"/>
<path transform="matrix(1.00006,0,0,-1.00002,24.341736,65.1321)" d="M87.26366 0C87.26366 3.91391 84.09088 7.08669 80.17696 7.08669 76.26305 7.08669 73.09027 3.91391 73.09027 0 73.09027-3.91391 76.26305-7.08669 80.17696-7.08669 84.09088-7.08669 87.26366-3.91391 87.26366 0ZM80.17696 0" fill="#999999"/>
<path transform="matrix(1.00006,0,0,-1.00002,24.341736,65.1321)" stroke-width=".59776" stroke-linecap="butt" stroke-miterlimit="10" stroke-linejoin="miter" fill="none" stroke="#000000" d="M87.26366 0C87.26366 3.91391 84.09088 7.08669 80.17696 7.08669 76.26305 7.08669 73.09027 3.91391 73.09027 0 73.09027-3.91391 76.26305-7.08669 80.17696-7.08669 84.09088-7.08669 87.26366-3.91391 87.26366 0ZM80.17696 0"/>
<use data-text="c" xlink:href="#font_1_3" transform="matrix(6.9742186,0,0,-6.97394,102.74344,66.63313)"/>
<path transform="matrix(1.00006,0,0,-1.00002,24.341736,65.1321)" d="M47.17517-96.7821C47.17517-92.8682 44.0024-89.69542 40.08847-89.69542 36.17456-89.69542 33.00179-92.8682 33.00179-96.7821 33.00179-100.69603 36.17456-103.8688 40.08847-103.8688 44.0024-103.8688 47.17517-100.69603 47.17517-96.7821ZM40.08847-96.7821" fill="#999999"/>
<path transform="matrix(1.00006,0,0,-1.00002,24.341736,65.1321)" stroke-width=".59776" stroke-linecap="butt" stroke-miterlimit="10" stroke-linejoin="miter" fill="none" stroke="#000000" d="M47.17517-96.7821C47.17517-92.8682 44.0024-89.69542 40.08847-89.69542 36.17456-89.69542 33.00179-92.8682 33.00179-96.7821 33.00179-100.69603 36.17456-103.8688 40.08847-103.8688 44.0024-103.8688 47.17517-100.69603 47.17517-96.7821ZM40.08847-96.7821"/>
<use data-text="e" xlink:href="#font_1_5" transform="matrix(6.9742186,0,0,-6.97394,62.542028,163.41707)"/>
<path transform="matrix(1.00006,0,0,-1.00002,24.341736,65.1321)" stroke-width=".59776" stroke-linecap="butt" stroke-miterlimit="10" stroke-linejoin="miter" fill="none" stroke="#000000" d="M38.17717 32.95456C33.72826 16.35106 23.7374 6.3602 10.30957 2.7621"/>
<path transform="matrix(-.9659879,.25879518,.2588055,.96594938,34.651926,62.36995)" d="M2.29138 0-1.37483 1.83311 0 0-1.37483-1.83311"/>
<path transform="matrix(1.00006,0,0,-1.00002,24.341736,65.1321)" stroke-width=".59776" stroke-linecap="butt" stroke-miterlimit="10" stroke-linejoin="miter" fill="none" stroke="#000000" d="M1.91129 7.13391C6.3602 23.7374 16.35106 33.72826 29.7789 37.32637"/>
<path transform="matrix(.9659879,-.25879518,-.2588055,-.96594938,54.12242,27.804986)" d="M2.29138 0-1.37483 1.83311 0 0-1.37483-1.83311"/>
<path transform="matrix(1.00006,0,0,-1.00002,24.341736,65.1321)" stroke-width=".59776" stroke-linecap="butt" stroke-miterlimit="10" stroke-linejoin="miter" fill="none" stroke="#000000" d="M7.38557 0H69.50371"/>
<path transform="matrix(1.00006,0,0,-1.00002,93.84961,65.1321)" d="M2.29138 0-1.37483 1.83311 0 0-1.37483-1.83311"/>
<path transform="matrix(1.00006,0,0,-1.00002,24.341736,65.1321)" stroke-width=".59776" stroke-linecap="butt" stroke-miterlimit="10" stroke-linejoin="miter" fill="none" stroke="#000000" d="M34.86607 45.31087C11.82483 68.3521 68.3521 68.3521 47.6356 47.6356"/>
<path transform="matrix(-.70714238,.70711418,.70714238,.70711418,71.980197,17.495549)" d="M2.29138 0-1.37483 1.83311 0 0-1.37483-1.83311"/>
<path transform="matrix(1.00006,0,0,-1.00002,24.341736,65.1321)" stroke-width=".59776" stroke-linecap="butt" stroke-miterlimit="10" stroke-linejoin="miter" fill="none" stroke="#000000" d="M47.2224 38.17717C63.82588 33.72826 73.81674 23.7374 77.41486 10.30957"/>
<path transform="matrix(.2588055,.96594938,.9659879,-.25879518,101.76124,54.822328)" d="M2.29138 0-1.37483 1.83311 0 0-1.37483-1.83311"/>
<path transform="matrix(1.00006,0,0,-1.00002,24.341736,65.1321)" stroke-width=".59776" stroke-linecap="butt" stroke-miterlimit="10" stroke-linejoin="miter" fill="none" stroke="#000000" d="M41.99977-32.95456C46.44868-16.35106 56.43954-6.3602 69.86739-2.7621"/>
<path transform="matrix(.9659879,-.25879518,-.2588055,-.96594938,94.21332,67.89426)" d="M2.29138 0-1.37483 1.83311 0 0-1.37483-1.83311"/>
<path transform="matrix(1.00006,0,0,-1.00002,24.341736,65.1321)" stroke-width=".59776" stroke-linecap="butt" stroke-miterlimit="10" stroke-linejoin="miter" fill="none" stroke="#000000" d="M78.26566-7.13391C73.81674-23.7374 63.82588-33.72826 50.39804-37.32637"/>
<path transform="matrix(-.9659879,.25879518,.2588055,.96594938,74.7428,102.45922)" d="M2.29138 0-1.37483 1.83311 0 0-1.37483-1.83311"/>
<path transform="matrix(1.00006,0,0,-1.00002,24.341736,65.1321)" stroke-width=".59776" stroke-linecap="butt" stroke-miterlimit="10" stroke-linejoin="miter" fill="none" stroke="#000000" d="M81.14082-7.32199C85.83038-42.94238 74.45094-70.41484 48.55577-90.28513"/>
<path transform="matrix(-.79336759,.6087322,.6087565,.7933359,72.90042,155.41904)" d="M2.29138 0-1.37483 1.83311 0 0-1.37483-1.83311"/>
<path transform="matrix(1.00006,0,0,-1.00002,24.341736,65.1321)" stroke-width=".59776" stroke-linecap="butt" stroke-miterlimit="10" stroke-linejoin="miter" fill="none" stroke="#000000" d="M-5.22238-5.22238C-28.26361-28.26361-28.26361 28.26361-7.54712 7.54712"/>
<path transform="matrix(.70714238,.70711418,.70714238,-.70711418,16.794163,57.58483)" d="M2.29138 0-1.37483 1.83311 0 0-1.37483-1.83311"/>
<path transform="matrix(1.00006,0,0,-1.00002,24.341736,65.1321)" stroke-width=".59776" stroke-linecap="butt" stroke-miterlimit="10" stroke-linejoin="miter" fill="none" stroke="#000000" d="M45.31087-45.31087C68.3521-68.3521 11.82483-68.3521 32.54135-47.6356"/>
<path transform="matrix(.70714238,-.70711418,-.70714238,-.70711418,56.88504,112.76866)" d="M2.29138 0-1.37483 1.83311 0 0-1.37483-1.83311"/>
<path transform="matrix(1.00006,0,0,-1.00002,24.341736,65.1321)" stroke-width=".59776" stroke-linecap="butt" stroke-miterlimit="10" stroke-linejoin="miter" fill="none" stroke="#000000" d="M32.95456-38.17717C16.35106-33.72826 6.3602-23.7374 2.7621-10.30957"/>
<path transform="matrix(-.2588055,-.96594938,-.9659879,.25879518,27.104002,75.44188)" d="M2.29138 0-1.37483 1.83311 0 0-1.37483-1.83311"/>
<path transform="matrix(1.00006,0,0,-1.00002,24.341736,65.1321)" stroke-width=".59776" stroke-linecap="butt" stroke-miterlimit="10" stroke-linejoin="miter" fill="none" stroke="#000000" d="M34.22935-92.28638C5.72601-70.41484-5.65341-42.94238-1.39291-10.58136"/>
<path transform="matrix(.13051783,-.99141988,-.9914594,-.13051261,22.948723,75.71369)" d="M2.29138 0-1.37483 1.83311 0 0-1.37483-1.83311"/>
<path transform="matrix(1.00006,0,0,-1.00002,24.341736,65.1321)" stroke-width=".59776" stroke-linecap="butt" stroke-miterlimit="10" stroke-linejoin="miter" fill="none" stroke="#ffffff" d="M85.39935 5.22238C108.44058 28.26361 108.44058-28.26361 87.72409-7.54712"/>
<path transform="matrix(-.70714238,-.70711418,-.70714238,.70711418,112.07108,72.679378)" d="M2.29138 0-1.37483 1.83311 0 0-1.37483-1.83311" fill="#ffffff"/>
</svg>
