<svg xmlns="http://www.w3.org/2000/svg" xmlns:xlink="http://www.w3.org/1999/xlink" version="1.1" width="132pt" height="178pt" viewBox="0 0 132 178">
<defs>
<path id="font_1_1" d="M.42199708 .38238526C.40098573 .41540528 .36698915 .44140626 .31900025 .44140626 .19099427 .44140626 .06098938 .300354 .06098938 .15628052 .06098938 .059249879 .12599182-.009765625 .21199036-.009765625 .2659912-.009765625 .31399537 .021224976 .35398866 .0602417 .37298585 .00022888184 .43099977-.009765625 .45700074-.009765625 .49299623-.009765625 .5179901 .01222229 .5359955 .04324341 .55799868 .08226013 .57099917 .13928223 .57099917 .14328003 .57099917 .15628052 .55799868 .15628052 .5549927 .15628052 .54100039 .15628052 .5399933 .15228272 .5329895 .12527466 .5209961 .07725525 .5019989 .018234253 .45999146 .018234253 .43399049 .018234253 .4269867 .040237428 .4269867 .06724548 .4269867 .08425903 .43499757 .120269779 .44198609 .14628601 .44898988 .17329407 .45899964 .21430969 .46398927 .23632813L.48399354 .3123474C.48999024 .33836366 .5019989 .38539125 .5019989 .39038087 .5019989 .4123993 .48399354 .4223938 .46798707 .4223938 .45098878 .4223938 .42799378 .4104004 .42199708 .38238526M.35798646 .12527466C.35099793 .09725952 .32899476 .07725525 .30699159 .058242799 .2979889 .050247194 .2579956 .018234253 .21499634 .018234253 .17799378 .018234253 .14199829 .04423523 .14199829 .11526489 .14199829 .16828919 .17098999 .27833558 .19400025 .31835938 .23999024 .39839173 .29100038 .4133911 .31900025 .4133911 .3889923 .4133911 .4079895 .33737184 .4079895 .32635499 .4079895 .32235719 .4059906 .3153534 .40499879 .3123474L.35798646 .12527466Z"/>
<path id="font_1_2" d="M.2639923 .66430667C.2649994 .66630557 .2679901 .67930606 .2679901 .68029788 .2679901 .68530276 .2639923 .6943054 .2519989 .6943054 .23199463 .6943054 .14898682 .6863098 .12399292 .6843109 .115997318 .68330386 .101989749 .682312 .101989749 .66130068 .101989749 .64730837 .115997318 .64730837 .12799073 .64730837 .17599488 .64730837 .17599488 .64030459 .17599488 .63230898 .17599488 .62532046 .1659851 .58532717 .1599884 .5623474L.13699341 .4703827C.12799073 .43640138 .07299805 .21731568 .070999149 .20431519 .06599426 .18029785 .06599426 .16729737 .06599426 .1552887 .06599426 .054244996 .12998963-.009765625 .21299744-.009765625 .33799745-.009765625 .47099305 .12626648 .47099305 .27433778 .47099305 .39138795 .3899994 .44140626 .32099916 .44140626 .2689972 .44140626 .22499085 .4123993 .19499207 .38638307L.2639923 .66430667M.21398926 .018234253C.16499329 .018234253 .13699341 .06124878 .13699341 .120269779 .13699341 .1572876 .1459961 .19129944 .17399597 .3043518 .17999268 .32336427 .17999268 .32536317 .19898987 .34736634 .23699951 .39138795 .28199769 .4133911 .31799317 .4133911 .35699464 .4133911 .3909912 .38438417 .3909912 .31636048 .3909912 .27534486 .36898805 .17329407 .33898927 .11526489 .31498719 .06625366 .2649994 .018234253 .21398926 .018234253Z"/>
<path id="font_1_3" d="M.43798829 .38304139C.4019928 .37702943 .3869934 .34902955 .3869934 .32702638 .3869934 .30003358 .4079895 .29003907 .42599488 .29003907 .44799806 .29003907 .48298646 .30603028 .48298646 .35403443 .48298646 .4223938 .40499879 .44140626 .35099793 .44140626 .20098877 .44140626 .06199646 .3030243 .06199646 .16412354 .06199646 .078186038 .12199402-.009765625 .24699402-.009765625 .41600038-.009765625 .49499513 .08917236 .49499513 .10316467 .49499513 .10916138 .48599244 .120147708 .47799684 .120147708 .47200013 .120147708 .46998597 .1181488 .46199037 .11016846 .38398744 .018234253 .2669983 .018234253 .24899292 .018234253 .1769867 .018234253 .14498902 .06718445 .14498902 .12915039 .14498902 .15812683 .15899658 .26704408 .21099854 .33602906 .24899292 .3850708 .30099488 .4133911 .35099793 .4133911 .36499024 .4133911 .41299439 .41137696 .43798829 .38304139Z"/>
<path id="font_1_4" d="M.57099917 .66430667C.57199099 .66630557 .57499697 .67930606 .57499697 .68029788 .57499697 .68530276 .57099917 .6943054 .5589905 .6943054 .5389862 .6943054 .45599366 .6863098 .43099977 .6843109 .4229889 .68330386 .40899659 .682312 .40899659 .66130068 .40899659 .64730837 .4229889 .64730837 .43499757 .64730837 .48298646 .64730837 .48298646 .64030459 .48298646 .63230898 .48298646 .62532046 .48098756 .61932376 .47898866 .61032107L.42199708 .38238526C.40098573 .41540528 .36698915 .44140626 .31900025 .44140626 .19099427 .44140626 .06098938 .300354 .06098938 .15628052 .06098938 .059249879 .12599182-.009765625 .21199036-.009765625 .2659912-.009765625 .31399537 .021224976 .35398866 .0602417 .37298585 .00022888184 .43099977-.009765625 .45700074-.009765625 .49299623-.009765625 .5179901 .01222229 .5359955 .04324341 .55799868 .08226013 .57099917 .13928223 .57099917 .14328003 .57099917 .15628052 .55799868 .15628052 .5549927 .15628052 .54100039 .15628052 .5399933 .15228272 .5329895 .12527466 .5209961 .07725525 .5019989 .018234253 .45999146 .018234253 .43399049 .018234253 .4269867 .040237428 .4269867 .06724548 .4269867 .086257938 .42900086 .09526062 .43199159 .10826111L.57099917 .66430667M.35798646 .12527466C.35099793 .09725952 .32899476 .07725525 .30699159 .058242799 .2979889 .050247194 .2579956 .018234253 .21499634 .018234253 .17799378 .018234253 .14199829 .04423523 .14199829 .11526489 .14199829 .16828919 .17098999 .27833558 .19400025 .31835938 .23999024 .39839173 .29100038 .4133911 .31900025 .4133911 .3889923 .4133911 .4079895 .33737184 .4079895 .32635499 .4079895 .32235719 .4059906 .3153534 .40499879 .3123474L.35798646 .12527466Z"/>
<path id="font_1_5" d="M.22399903 .22851563C.2519989 .22851563 .33099366 .23051453 .3849945 .24951172 .45899964 .27549745 .47299195 .3234558 .47299195 .35343934 .47299195 .4084015 .41799928 .44140626 .34899903 .44140626 .22898865 .44140626 .066986087 .34944154 .066986087 .17843628 .066986087 .077301029 .12998963-.009765625 .24699402-.009765625 .41600038-.009765625 .49499513 .08932495 .49499513 .10334778 .49499513 .10934448 .48599244 .12036133 .47799684 .12036133 .47200013 .12036133 .46998597 .11836243 .46199037 .11035156 .38398744 .018234253 .2669983 .018234253 .24899292 .018234253 .18899536 .018234253 .14898682 .058273317 .14898682 .13938904 .14898682 .15341187 .14898682 .1734314 .16099549 .22851563H.22399903M.16899109 .2565155C.20999146 .40141297 .32099916 .4133911 .34899903 .4133911 .3929901 .4133911 .42999269 .39141847 .42999269 .35343934 .42999269 .2565155 .26098634 .2565155 .21798706 .2565155H.16899109Z"/>
<path id="font_2_1" d="M.1789856 .114868167C.13899231 .047973634 .099990848 .033981325 .055999757 .0309906 .04399109 .02999878 .034988405 .02999878 .034988405 .010986328 .034988405 .004989624 .039993287 0 .04798889 0 .07499695 0 .10598755 .0029907227 .13398743 .0029907227 .16699219 .0029907227 .20199585 0 .23399353 0 .23999024 0 .25299073 0 .25299073 .018997193 .25299073 .02999878 .24398804 .0309906 .23699951 .0309906 .21398926 .032989503 .18998719 .04096985 .18998719 .06593323 .18998719 .077926639 .19599915 .088897708 .20399475 .102890018L.27999879 .23068238H.5309906C.5329895 .2097168 .5469971 .07392883 .5469971 .063949588 .5469971 .033981325 .49499513 .0309906 .47499085 .0309906 .46099855 .0309906 .45098878 .0309906 .45098878 .010986328 .45098878 0 .46299745 0 .46499635 0 .5059967 0 .548996 .0029907227 .58999636 .0029907227 .61499026 .0029907227 .6779938 0 .7029877 0 .70899966 0 .72099307 0 .72099307 .019989014 .72099307 .0309906 .71099856 .0309906 .69799807 .0309906 .6359863 .0309906 .6359863 .037979127 .6329956 .06694031L.57199099 .691803C.56999209 .71180728 .56999209 .7158203 .5529938 .7158203 .5369873 .7158203 .5329895 .7088165 .5269928 .69880679L.1789856 .114868167M.29899598 .26168824 .49598695 .5917816 .5279999 .26168824H.29899598Z"/>
</defs>
<path transform="matrix(1,0,0,-1.00005,23.455002,199.22332)" d="M7.08669 170.08042C7.08669 173.99433 3.91391 177.1671 0 177.1671-3.91391 177.1671-7.08669 173.99433-7.08669 170.08042-7.08669 166.16649-3.91391 162.99372 0 162.99372 3.91391 162.99372 7.08669 166.16649 7.08669 170.08042ZM0 170.08042" fill="#999999"/>
<path transform="matrix(1,0,0,-1.00005,23.455002,199.22332)" stroke-width=".59776" stroke-linecap="butt" stroke-miterlimit="10" stroke-linejoin="miter" fill="none" stroke="#000000" d="M7.08669 170.08042C7.08669 173.99433 3.91391 177.1671 0 177.1671-3.91391 177.1671-7.08669 173.99433-7.08669 170.08042-7.08669 166.16649-3.91391 162.99372 0 162.99372 3.91391 162.99372 7.08669 166.16649 7.08669 170.08042ZM0 170.08042"/>
<use data-text="a" xlink:href="#font_1_1" transform="matrix(6.9738,0,0,-6.9741489,21.293999,30.635895)"/>
<path transform="matrix(1,0,0,-1.00005,23.455002,199.22332)" d="M7.08669 136.06433C7.08669 139.97824 3.91391 143.15102 0 143.15102-3.91391 143.15102-7.08669 139.97824-7.08669 136.06433-7.08669 132.1504-3.91391 128.97763 0 128.97763 3.91391 128.97763 7.08669 132.1504 7.08669 136.06433ZM0 136.06433" fill="#999999"/>
<path transform="matrix(1,0,0,-1.00005,23.455002,199.22332)" stroke-width=".59776" stroke-linecap="butt" stroke-miterlimit="10" stroke-linejoin="miter" fill="none" stroke="#000000" d="M7.08669 136.06433C7.08669 139.97824 3.91391 143.15102 0 143.15102-3.91391 143.15102-7.08669 139.97824-7.08669 136.06433-7.08669 132.1504-3.91391 128.97763 0 128.97763 3.91391 128.97763 7.08669 132.1504 7.08669 136.06433ZM0 136.06433"/>
<use data-text="b" xlink:href="#font_1_2" transform="matrix(6.9738,0,0,-6.9741489,21.703003,65.57364)"/>
<path transform="matrix(1,0,0,-1.00005,23.455002,199.22332)" d="M7.08669 102.04825C7.08669 105.96216 3.91391 109.13493 0 109.13493-3.91391 109.13493-7.08669 105.96216-7.08669 102.04825-7.08669 98.13432-3.91391 94.96155 0 94.96155 3.91391 94.96155 7.08669 98.13432 7.08669 102.04825ZM0 102.04825" fill="#999999"/>
<path transform="matrix(1,0,0,-1.00005,23.455002,199.22332)" stroke-width=".59776" stroke-linecap="butt" stroke-miterlimit="10" stroke-linejoin="miter" fill="none" stroke="#000000" d="M7.08669 102.04825C7.08669 105.96216 3.91391 109.13493 0 109.13493-3.91391 109.13493-7.08669 105.96216-7.08669 102.04825-7.08669 98.13432-3.91391 94.96155 0 94.96155 3.91391 94.96155 7.08669 98.13432 7.08669 102.04825ZM0 102.04825"/>
<use data-text="c" xlink:href="#font_1_3" transform="matrix(6.9738,0,0,-6.9741489,21.675004,98.671298)"/>
<path transform="matrix(1,0,0,-1.00005,23.455002,199.22332)" d="M7.08669 68.03217C7.08669 71.94608 3.91391 75.11885 0 75.11885-3.91391 75.11885-7.08669 71.94608-7.08669 68.03217-7.08669 64.11824-3.91391 60.94547 0 60.94547 3.91391 60.94547 7.08669 64.11824 7.08669 68.03217ZM0 68.03217" fill="#999999"/>
<path transform="matrix(1,0,0,-1.00005,23.455002,199.22332)" stroke-width=".59776" stroke-linecap="butt" stroke-miterlimit="10" stroke-linejoin="miter" fill="none" stroke="#000000" d="M7.08669 68.03217C7.08669 71.94608 3.91391 75.11885 0 75.11885-3.91391 75.11885-7.08669 71.94608-7.08669 68.03217-7.08669 64.11824-3.91391 60.94547 0 60.94547 3.91391 60.94547 7.08669 64.11824 7.08669 68.03217ZM0 68.03217"/>
<use data-text="d" xlink:href="#font_1_4" transform="matrix(6.9738,0,0,-6.9741489,21.381005,133.60904)"/>
<path transform="matrix(1,0,0,-1.00005,23.455002,199.22332)" d="M7.08669 34.01608C7.08669 37.93 3.91391 41.10277 0 41.10277-3.91391 41.10277-7.08669 37.93-7.08669 34.01608-7.08669 30.10216-3.91391 26.92938 0 26.92938 3.91391 26.92938 7.08669 30.10216 7.08669 34.01608ZM0 34.01608" fill="#999999"/>
<path transform="matrix(1,0,0,-1.00005,23.455002,199.22332)" stroke-width=".59776" stroke-linecap="butt" stroke-miterlimit="10" stroke-linejoin="miter" fill="none" stroke="#000000" d="M7.08669 34.01608C7.08669 37.93 3.91391 41.10277 0 41.10277-3.91391 41.10277-7.08669 37.93-7.08669 34.01608-7.08669 30.10216-3.91391 26.92938 0 26.92938 3.91391 26.92938 7.08669 30.10216 7.08669 34.01608ZM0 34.01608"/>
<use data-text="e" xlink:href="#font_1_5" transform="matrix(6.9738,0,0,-6.9741489,21.565003,166.7067)"/>
<path transform="matrix(1,0,0,-1.00005,23.455002,199.22332)" d="M92.12689 170.08042C92.12689 173.99433 88.95412 177.1671 85.04019 177.1671 81.12628 177.1671 77.9535 173.99433 77.9535 170.08042 77.9535 166.16649 81.12628 162.99372 85.04019 162.99372 88.95412 162.99372 92.12689 166.16649 92.12689 170.08042ZM85.04019 170.08042" fill="#999999"/>
<path transform="matrix(1,0,0,-1.00005,23.455002,199.22332)" stroke-width=".59776" stroke-linecap="butt" stroke-miterlimit="10" stroke-linejoin="miter" fill="none" stroke="#000000" d="M92.12689 170.08042C92.12689 173.99433 88.95412 177.1671 85.04019 177.1671 81.12628 177.1671 77.9535 173.99433 77.9535 170.08042 77.9535 166.16649 81.12628 162.99372 85.04019 162.99372 88.95412 162.99372 92.12689 166.16649 92.12689 170.08042ZM85.04019 170.08042"/>
<use data-text="a" xlink:href="#font_1_1" transform="matrix(6.9738,0,0,-6.9741489,106.334,30.635895)"/>
<path transform="matrix(1,0,0,-1.00005,23.455002,199.22332)" d="M92.12689 136.06433C92.12689 139.97824 88.95412 143.15102 85.04019 143.15102 81.12628 143.15102 77.9535 139.97824 77.9535 136.06433 77.9535 132.1504 81.12628 128.97763 85.04019 128.97763 88.95412 128.97763 92.12689 132.1504 92.12689 136.06433ZM85.04019 136.06433" fill="#999999"/>
<path transform="matrix(1,0,0,-1.00005,23.455002,199.22332)" stroke-width=".59776" stroke-linecap="butt" stroke-miterlimit="10" stroke-linejoin="miter" fill="none" stroke="#000000" d="M92.12689 136.06433C92.12689 139.97824 88.95412 143.15102 85.04019 143.15102 81.12628 143.15102 77.9535 139.97824 77.9535 136.06433 77.9535 132.1504 81.12628 128.97763 85.04019 128.97763 88.95412 128.97763 92.12689 132.1504 92.12689 136.06433ZM85.04019 136.06433"/>
<use data-text="b" xlink:href="#font_1_2" transform="matrix(6.9738,0,0,-6.9741489,106.743007,65.57364)"/>
<path transform="matrix(1,0,0,-1.00005,23.455002,199.22332)" d="M92.12689 102.04825C92.12689 105.96216 88.95412 109.13493 85.04019 109.13493 81.12628 109.13493 77.9535 105.96216 77.9535 102.04825 77.9535 98.13432 81.12628 94.96155 85.04019 94.96155 88.95412 94.96155 92.12689 98.13432 92.12689 102.04825ZM85.04019 102.04825" fill="#999999"/>
<path transform="matrix(1,0,0,-1.00005,23.455002,199.22332)" stroke-width=".59776" stroke-linecap="butt" stroke-miterlimit="10" stroke-linejoin="miter" fill="none" stroke="#000000" d="M92.12689 102.04825C92.12689 105.96216 88.95412 109.13493 85.04019 109.13493 81.12628 109.13493 77.9535 105.96216 77.9535 102.04825 77.9535 98.13432 81.12628 94.96155 85.04019 94.96155 88.95412 94.96155 92.12689 98.13432 92.12689 102.04825ZM85.04019 102.04825"/>
<use data-text="c" xlink:href="#font_1_3" transform="matrix(6.9738,0,0,-6.9741489,106.715007,98.671298)"/>
<path transform="matrix(1,0,0,-1.00005,23.455002,199.22332)" d="M92.12689 68.03217C92.12689 71.94608 88.95412 75.11885 85.04019 75.11885 81.12628 75.11885 77.9535 71.94608 77.9535 68.03217 77.9535 64.11824 81.12628 60.94547 85.04019 60.94547 88.95412 60.94547 92.12689 64.11824 92.12689 68.03217ZM85.04019 68.03217" fill="#999999"/>
<path transform="matrix(1,0,0,-1.00005,23.455002,199.22332)" stroke-width=".59776" stroke-linecap="butt" stroke-miterlimit="10" stroke-linejoin="miter" fill="none" stroke="#000000" d="M92.12689 68.03217C92.12689 71.94608 88.95412 75.11885 85.04019 75.11885 81.12628 75.11885 77.9535 71.94608 77.9535 68.03217 77.9535 64.11824 81.12628 60.94547 85.04019 60.94547 88.95412 60.94547 92.12689 64.11824 92.12689 68.03217ZM85.04019 68.03217"/>
<use data-text="d" xlink:href="#font_1_4" transform="matrix(6.9738,0,0,-6.9741489,106.421009,133.60904)"/>
<path transform="matrix(1,0,0,-1.00005,23.455002,199.22332)" d="M92.12689 34.01608C92.12689 37.93 88.95412 41.10277 85.04019 41.10277 81.12628 41.10277 77.9535 37.93 77.9535 34.01608 77.9535 30.10216 81.12628 26.92938 85.04019 26.92938 88.95412 26.92938 92.12689 30.10216 92.12689 34.01608ZM85.04019 34.01608" fill="#999999"/>
<path transform="matrix(1,0,0,-1.00005,23.455002,199.22332)" stroke-width=".59776" stroke-linecap="butt" stroke-miterlimit="10" stroke-linejoin="miter" fill="none" stroke="#000000" d="M92.12689 34.01608C92.12689 37.93 88.95412 41.10277 85.04019 41.10277 81.12628 41.10277 77.9535 37.93 77.9535 34.01608 77.9535 30.10216 81.12628 26.92938 85.04019 26.92938 88.95412 26.92938 92.12689 30.10216 92.12689 34.01608ZM85.04019 34.01608"/>
<use data-text="e" xlink:href="#font_1_5" transform="matrix(6.9738,0,0,-6.9741489,106.605,166.7067)"/>
<path transform="matrix(1,0,0,-1.00005,23.455002,199.22332)" stroke-width=".59776" stroke-linecap="butt" stroke-miterlimit="10" stroke-linejoin="miter" fill="none" stroke="#929292" d="M17.275 180.84043H-17.275C-19.47594 180.84043-21.2601 179.05626-21.2601 176.85532V27.31981C-21.2601 25.11887-19.47594 23.3347-17.275 23.3347H17.275C19.47594 23.3347 21.2601 25.11887 21.2601 27.31981V176.85532C21.2601 179.05626 19.47594 180.84043 17.275 180.84043ZM-21.2601 23.3347"/>
<path transform="matrix(1,0,0,-1.00005,23.455002,199.22332)" stroke-width=".59776" stroke-linecap="butt" stroke-miterlimit="10" stroke-linejoin="miter" fill="none" stroke="#929292" d="M102.34795 180.84043H67.79796C65.59702 180.84043 63.81285 179.05626 63.81285 176.85532V27.31981C63.81285 25.11887 65.59702 23.3347 67.79796 23.3347H102.34795C104.54889 23.3347 106.33305 25.11887 106.33305 27.31981V176.85532C106.33305 179.05626 104.54889 180.84043 102.34795 180.84043ZM63.81285 23.3347"/>
<path transform="matrix(1,0,0,-1.00005,23.455002,199.22332)" stroke-width=".59776" stroke-linecap="butt" stroke-miterlimit="10" stroke-linejoin="miter" fill="none" stroke="#000000" d="M7.38684 170.11655 74.382 170.11588"/>
<path transform="matrix(1,0,0,-1.00005,97.837009,29.098938)" d="M2.29138 0-1.37483 1.83311 0 0-1.37483-1.83311"/>
<path transform="matrix(1,0,0,-1.00005,23.455002,199.22332)" stroke-width=".59776" stroke-linecap="butt" stroke-miterlimit="10" stroke-linejoin="miter" fill="none" stroke="#000000" d="M5.76915 165.50038 76.72269 108.7373"/>
<path transform="matrix(.78082,.6246912,.62466,-.780859,100.17769,90.48056)" d="M2.29138 0-1.37483 1.83311 0 0-1.37483-1.83311"/>
<path transform="matrix(1,0,0,-1.00005,23.455002,199.22332)" stroke-width=".59776" stroke-linecap="butt" stroke-miterlimit="10" stroke-linejoin="miter" fill="none" stroke="#000000" d="M6.85934 167.37259 75.14674 140.05702"/>
<path transform="matrix(.92844,.37138853,.37137,-.92848637,98.60173,59.159288)" d="M2.29138 0-1.37483 1.83311 0 0-1.37483-1.83311"/>
<path transform="matrix(1,0,0,-1.00005,23.455002,199.22332)" stroke-width=".59776" stroke-linecap="butt" stroke-miterlimit="10" stroke-linejoin="miter" fill="none" stroke="#000000" d="M7.38684 136.09323 74.382 136.09268"/>
<path transform="matrix(1,0,0,-1.00005,97.837009,63.12384)" d="M2.29138 0-1.37483 1.83311 0 0-1.37483-1.83311"/>
<path transform="matrix(1,0,0,-1.00005,23.455002,199.22332)" stroke-width=".59776" stroke-linecap="butt" stroke-miterlimit="10" stroke-linejoin="miter" fill="none" stroke="#000000" d="M6.85742 138.83597 75.14516 166.15088"/>
<path transform="matrix(.92844,-.37138853,-.37137,-.92848637,98.60014,33.064149)" d="M2.29138 0-1.37483 1.83311 0 0-1.37483-1.83311"/>
<path transform="matrix(1,0,0,-1.00005,23.455002,199.22332)" stroke-width=".59776" stroke-linecap="butt" stroke-miterlimit="10" stroke-linejoin="miter" fill="none" stroke="#000000" d="M6.85924 133.34938 75.1465 106.03394"/>
<path transform="matrix(.92844,.37138853,.37137,-.92848637,98.60148,93.18407)" d="M2.29138 0-1.37483 1.83311 0 0-1.37483-1.83311"/>
<path transform="matrix(1,0,0,-1.00005,23.455002,199.22332)" stroke-width=".59776" stroke-linecap="butt" stroke-miterlimit="10" stroke-linejoin="miter" fill="none" stroke="#000000" d="M6.85901 99.3263 75.14629 72.01094"/>
<path transform="matrix(.92844,.37138853,.37137,-.92848637,98.60127,127.208759)" d="M2.29138 0-1.37483 1.83311 0 0-1.37483-1.83311"/>
<path transform="matrix(1,0,0,-1.00005,23.455002,199.22332)" stroke-width=".59776" stroke-linecap="butt" stroke-miterlimit="10" stroke-linejoin="miter" fill="none" stroke="#000000" d="M5.7687 97.45453 76.72212 40.69148"/>
<path transform="matrix(.78082,.6246912,.62466,-.780859,100.177127,158.52979)" d="M2.29138 0-1.37483 1.83311 0 0-1.37483-1.83311"/>
<path transform="matrix(1,0,0,-1.00005,23.455002,199.22332)" stroke-width=".59776" stroke-linecap="butt" stroke-miterlimit="10" stroke-linejoin="miter" fill="none" stroke="#000000" d="M7.38684 68.0465 74.382 68.04625"/>
<path transform="matrix(1,0,0,-1.00005,97.837009,131.17368)" d="M2.29138 0-1.37483 1.83311 0 0-1.37483-1.83311"/>
<path transform="matrix(1,0,0,-1.00005,23.455002,199.22332)" stroke-width=".59776" stroke-linecap="butt" stroke-miterlimit="10" stroke-linejoin="miter" fill="none" stroke="#000000" d="M4.72842 73.72021 78.22282 161.91336"/>
<path transform="matrix(.64015,-.7682284,-.76819,-.64018198,101.67782,37.301866)" d="M2.29138 0-1.37483 1.83311 0 0-1.37483-1.83311"/>
<path transform="matrix(1,0,0,-1.00005,23.455002,199.22332)" stroke-width=".59776" stroke-linecap="butt" stroke-miterlimit="10" stroke-linejoin="miter" fill="none" stroke="#000000" d="M6.85799 70.78955 75.14539 98.1046"/>
<path transform="matrix(.92844,-.37138853,-.37137,-.92848637,98.60037,101.11383)" d="M2.29138 0-1.37483 1.83311 0 0-1.37483-1.83311"/>
<path transform="matrix(1,0,0,-1.00005,23.455002,199.22332)" stroke-width=".59776" stroke-linecap="butt" stroke-miterlimit="10" stroke-linejoin="miter" fill="none" stroke="#000000" d="M3.91484 40.28683 79.39908 161.06128"/>
<path transform="matrix(.52998,-.84803238,-.84799,-.53000649,102.854068,38.154008)" d="M2.29138 0-1.37483 1.83311 0 0-1.37483-1.83311"/>
<use data-text="A" xlink:href="#font_2_1" transform="matrix(9.9626,0,0,-9.963098,19.719002,8.725784)"/>
<use data-text="A" xlink:href="#font_2_1" transform="matrix(9.9626,0,0,-9.963098,104.759,8.725784)"/>
</svg>
