<svg xmlns="http://www.w3.org/2000/svg" xmlns:xlink="http://www.w3.org/1999/xlink" version="1.1" width="168pt" height="147pt" viewBox="0 0 168 147">
<defs>
<path id="font_1_3" d="M.24899292 .10601807C.23899842 .072021488 .20599365 .018234253 .15499878 .018234253 .1519928 .018234253 .12199402 .018234253 .100997928 .03215027 .14199829 .04508972 .14498902 .08100891 .14498902 .087020877 .14498902 .10900879 .12799073 .12402344 .10499573 .12402344 .07699585 .12402344 .04798889 .10002136 .04798889 .0630188 .04798889 .01322937 .10398865-.009765625 .15299988-.009765625 .19898987-.009765625 .23999024 .019226075 .2649994 .061019899 .2889862 .008224487 .34399415-.009765625 .38398744-.009765625 .49899293-.009765625 .55999758 .11502075 .55999758 .14305115 .55999758 .15608216 .5469971 .15608216 .5439911 .15608216 .5299988 .15608216 .5289917 .15107727 .5249939 .13905335 .5039978 .07002258 .44400025 .018234253 .3880005 .018234253 .34799195 .018234253 .32699586 .04508972 .32699586 .08302307 .32699586 .10900879 .35099793 .20018006 .3789978 .31140138 .39898683 .38841249 .44400025 .4133911 .47698976 .4133911 .47898866 .4133911 .5099945 .4133911 .5309906 .39941407 .49899293 .39041139 .4869995 .3624115 .4869995 .34440614 .4869995 .32240296 .5039978 .30740357 .5269928 .30740357 .5499878 .30740357 .58299258 .32640077 .58299258 .3684082 .58299258 .4243927 .5189972 .44140626 .47898866 .44140626 .42900086 .44140626 .3889923 .4084015 .36698915 .3704071 .34899903 .4113922 .30299378 .44140626 .24699402 .44140626 .1349945 .44140626 .070999149 .31840516 .070999149 .2883606 .070999149 .27534486 .084991458 .27534486 .08799744 .27534486 .100997928 .27534486 .101989749 .27934266 .10699463 .29237367 .13198853 .3704071 .19499207 .4133911 .24398804 .4133911 .2769928 .4133911 .3039856 .395401 .3039856 .3474121 .3039856 .32740785 .2919922 .27734376 .2829895 .24327088L.24899292 .10601807Z"/>
<path id="font_1_1" d="M.40699769 .39465333H.5049896C.5249939 .39465333 .5379944 .39465333 .5379944 .4166565 .5379944 .43066407 .5249939 .43066407 .5069885 .43066407H.4139862C.43699647 .5580139 .44499208 .6040497 .45298768 .63305667 .45799256 .6550598 .47999574 .6760864 .5039978 .6760864 .5049896 .6760864 .5319977 .6760864 .5509949 .6640625 .5099945 .651062 .5069885 .61505129 .5069885 .60905459 .5069885 .5870514 .5239868 .572052 .5469971 .572052 .57398989 .572052 .60398867 .59506228 .60398867 .63305667 .60398867 .6790924 .5549927 .70410159 .5039978 .70410159 .45999146 .70410159 .41099549 .6790924 .38398744 .62905886 .3639984 .5920563 .35598756 .5469818 .33499146 .43066407H.2559967C.23599243 .43066407 .22299195 .43066407 .22299195 .4086609 .22299195 .39465333 .23599243 .39465333 .2539978 .39465333H.32798768C.32699586 .38865663 .2639923 .028869629 .23999024-.078063968 .23498535-.10006714 .21798706-.17610169 .16999817-.17610169 .16899109-.17610169 .14498902-.17610169 .12599182-.1640625 .16699219-.15107727 .16999817-.11506653 .16999817-.109069827 .16999817-.08706665 .15299988-.07206726 .12998963-.07206726 .102996829-.07206726 .07299805-.095077518 .07299805-.1330719 .07299805-.17811585 .11999512-.20410156 .16999817-.20410156 .23399353-.20410156 .27799989-.13807678 .2899933-.11607361 .32598878-.049087526 .34899903 .07385254 .35099793 .08584595L.40699769 .39465333Z"/>
<path id="font_2_1" d="M.35499574 .75C.16499329 .61598208 .114990238 .40397645 .114990238 .25097657 .114990238 .10997009 .15699768-.10902405 .35499574-.24902344 .36299134-.24902344 .375-.24902344 .375-.23703003 .375-.23103333 .37199403-.22903443 .36499024-.22203064 .23199463-.10203552 .18299866 .067977908 .18299866 .24996948 .18299866 .519989 .28599549 .65197756 .36799623 .72598269 .37199403 .7299957 .375 .73298647 .375 .73799136 .375 .75 .36299134 .75 .35499574 .75Z"/>
<path id="font_2_2" d="M.08999634 .75C.08299255 .75 .070999149 .75 .070999149 .73799136 .070999149 .73298647 .07398987 .7299957 .07998657 .72299197 .1659851 .64398196 .2619934 .5089874 .2619934 .25097657 .2619934 .04197693 .19699097-.11602783 .08898926-.21403504 .07199097-.23103333 .070999149-.23202515 .070999149-.23703003 .070999149-.24203491 .07398987-.24902344 .083999637-.24902344 .09599304-.24902344 .19099427-.18302918 .25698854-.058029176 .30099488 .024978638 .32998658 .13298035 .32998658 .24996948 .32998658 .39097596 .28799439 .60998538 .08999634 .75Z"/>
<path id="font_1_2" d="M.5319977 .36935426C.5359955 .3843689 .5359955 .38937379 .5359955 .39038087 .5359955 .4123993 .5179901 .4223938 .5019989 .4223938 .47898866 .4223938 .45999146 .4033966 .45599366 .3843689 .43899537 .4113922 .40499879 .44140626 .35299684 .44140626 .22799683 .44140626 .09700012 .3072815 .09700012 .1641388 .09700012 .061019899 .16699219 0 .24899292 0 .29499818 0 .33898927 .022994996 .37399293 .054016115L.35198976-.036026C.34098817-.07803345 .33399964-.105041507 .29599-.13903809 .2519989-.17610169 .20899964-.17610169 .18399048-.17610169 .13798523-.17610169 .125-.17308045 .10699463-.16903687 .13198853-.15704346 .13899231-.13304138 .13899231-.11903381 .13899231-.09503174 .11999512-.08203125 .099990848-.08203125 .07199097-.08203125 .042999269-.105041507 .042999269-.14303589 .042999269-.20310974 .1289978-.20410156 .18499756-.20410156 .34199525-.20410156 .40899659-.1240387 .4229889-.06703186L.5319977 .36935426M.3939972 .13310242C.3899994 .11808777 .3899994 .11608887 .37298585 .096069339 .33799745 .054016115 .2899933 .027999878 .2519989 .027999878 .20098877 .027999878 .1769867 .07104492 .1769867 .12309265 .1769867 .16714478 .20399475 .2792511 .22999573 .32330323 .27198792 .39338685 .31900025 .4133911 .35299684 .4133911 .4229889 .4133911 .44198609 .33831788 .44198609 .3283081 .44198609 .3263092 .44198609 .3243103 .43899537 .31329347L.3939972 .13310242Z"/>
<path id="font_3_1" d="M.4850006 .41075135 .40098573 .6096344C.397995 .61763 .3959961 .6216278 .3959961 .6226196 .3959961 .62861636 .41299439 .6476135 .45498658 .6516113 .46499635 .65260317 .47499085 .6536102 .47499085 .6706085 .47499085 .6826172 .46299745 .6826172 .45999146 .6826172 .4189911 .6826172 .37599183 .6796112 .33399964 .6796112 .30899049 .6796112 .24699402 .6826172 .22200012 .6826172 .21598816 .6826172 .20399475 .6826172 .20399475 .6626129 .20399475 .6516113 .21398926 .6516113 .22698975 .6516113 .2869873 .6516113 .29299928 .6416168 .3019867 .6196289L.41999818 .34080506 .20899964 .11393738 .19599915 .10295105C.14698792 .049987794 .099990848 .033996583 .04899597 .0309906 .035995485 .02999878 .026992798 .02999878 .026992798 .010986328 .026992798 .009994507 .026992798 0 .039993287 0 .069992069 0 .102996829 .0029907227 .13398743 .0029907227 .17098999 .0029907227 .20999146 0 .24598694 0 .2519989 0 .2639923 0 .2639923 .019989014 .2639923 .02999878 .2539978 .0309906 .2519989 .0309906 .24299622 .03199768 .21199036 .033996583 .21199036 .061965944 .21199036 .07795715 .22698975 .093948367 .23899842 .10694885L.34098817 .21487427 .43099977 .31282044 .5319977 .07395935C.5359955 .06297302 .5369873 .061965944 .5369873 .05996704 .5369873 .051986696 .5179901 .034988405 .47898866 .0309906 .46798707 .02999878 .45899964 .0289917 .45899964 .011993408 .45899964 0 .46998597 0 .47399903 0 .5019989 0 .57199099 .0029907227 .59999087 .0029907227 .625 .0029907227 .6859894 0 .71099856 0 .71798709 0 .7299957 0 .7299957 .018997193 .7299957 .0309906 .7200012 .0309906 .71199038 .0309906 .644989 .03199768 .6429901 .034988405 .6259918 .07496643 .58699038 .16790772 .519989 .32380677 .49699403 .3837738 .5649872 .45373536 .66999819 .5726471 .70199587 .6006317 .73098757 .62461856 .7689972 .64860537 .82899478 .6516113 .84199526 .65260317 .8509979 .65260317 .8509979 .6716156 .8509979 .6726074 .8509979 .6826172 .83799746 .6826172 .80799868 .6826172 .7749939 .6796112 .74398806 .6796112 .70700076 .6796112 .6689911 .6826172 .6329956 .6826172 .6269989 .6826172 .6139984 .6826172 .6139984 .6626129 .6139984 .65560916 .61898806 .65260317 .6259918 .6516113 .6349945 .65060427 .66600039 .64860537 .66600039 .6206207 .66600039 .6066284 .6549988 .5936432 .6469879 .5846405L.4850006 .41075135Z"/>
<path id="font_3_2" d="M.5970001 .5686493 .61099246 .5826416C.6409912 .6126251 .673996 .64660647 .74198916 .6516113 .7529907 .65260317 .7619934 .65260317 .7619934 .6706085 .7619934 .6786041 .7569885 .6826172 .7489929 .6826172 .72299197 .6826172 .69400027 .6796112 .6669922 .6796112 .6339874 .6796112 .598999 .6826172 .5669861 .6826172 .5609894 .6826172 .5479889 .6826172 .5479889 .66360476 .5479889 .65260317 .55799868 .6516113 .5629883 .6516113 .56999209 .6516113 .598999 .6496124 .598999 .62861636 .598999 .6116333 .57598879 .5856476 .57199099 .5806427L.33999635 .31381227 .22999573 .6106262C.22399903 .62461856 .22399903 .62661746 .22399903 .6276245 .22399903 .6516113 .272995 .6516113 .2829895 .6516113 .29699708 .6516113 .30699159 .6516113 .30699159 .6716156 .30699159 .6826172 .29499818 .6826172 .2919922 .6826172 .2639923 .6826172 .19400025 .6796112 .1659851 .6796112 .14099121 .6796112 .07899475 .6826172 .053985597 .6826172 .04798889 .6826172 .034988405 .6826172 .034988405 .6626129 .034988405 .6516113 .04499817 .6516113 .057998659 .6516113 .117996219 .6516113 .12199402 .64260867 .1309967 .61763L.2539978 .28883363C.25498963 .28582765 .2579956 .2748413 .2579956 .27183534 .2579956 .2688446 .21798706 .107940677 .21299744 .08995056 .19999695 .034988405 .19898987 .03199768 .11898804 .0309906 .099990848 .0309906 .09199524 .0309906 .09199524 .010986328 .09199524 0 .10398865 0 .10598755 0 .13398743 0 .20399475 .0029907227 .23199463 .0029907227 .2599945 .0029907227 .33198548 0 .3600006 0 .36698915 0 .3789978 0 .3789978 .019989014 .3789978 .0309906 .36999513 .0309906 .35099793 .0309906 .34899903 .0309906 .32998658 .0309906 .31298829 .032989503 .2919922 .034988405 .28599549 .036987306 .28599549 .048980714 .28599549 .05596924 .29499818 .09095764 .2999878 .11193848L.33499146 .2528534C.33999635 .27183534 .34098817 .2748413 .34899903 .28382875L.5970001 .5686493Z"/>
<path id="font_3_3" d="M.7200012 .6586151C.72099307 .6626129 .72299197 .66760256 .72299197 .6736145 .72299197 .6826172 .71798709 .6826172 .69799807 .6826172H.27598573C.2519989 .6826172 .25099183 .6816101 .24499512 .6626129L.18998719 .4827118C.18798828 .47772218 .18699646 .47071839 .18699646 .46871949 .18699646 .46772767 .18699646 .45773316 .19898987 .45773316 .20799256 .45773316 .20999146 .46472169 .21199036 .46772767 .25 .5856476 .3019867 .6516113 .45799256 .6516113H.62098696L.06199646 .026992798C.06199646 .025985718 .057998659 .011993408 .057998659 .008987427 .057998659 0 .06498718 0 .08299255 0H.5179901C.5419922 0 .54299929 .0009918213 .548996 .019989014L.6199951 .24085999C.62098696 .24485779 .6239929 .25186158 .6239929 .25585938 .6239929 .260849 .6199951 .2668457 .61099246 .2668457 .60198977 .2668457 .6009979 .2628479 .59399417 .24186707 .5499878 .10594177 .5019989 .033996583 .33198548 .033996583H.16099549L.7200012 .6586151Z"/>
<path id="font_3_4" d="M.36698915 .3996582H.45298768C.47299195 .3996582 .48298646 .3996582 .48298646 .41966249 .48298646 .43066407 .47299195 .43066407 .45599366 .43066407H.37298585L.3939972 .5449524C.397995 .5660095 .4119873 .6370239 .41799928 .6490326 .4269867 .66804507 .44400025 .68307498 .46499635 .68307498 .46899415 .68307498 .49499513 .68307498 .5139923 .66503909 .46998597 .661026 .45999146 .6260376 .45999146 .6110382 .45999146 .58802798 .47799684 .57603457 .49699403 .57603457 .522995 .57603457 .5519867 .5980377 .5519867 .6360321 .5519867 .6820679 .5059967 .7050781 .46499635 .7050781 .43099977 .7050781 .36799623 .68707278 .33799745 .58802798 .33198548 .56700137 .32899476 .5569763 .30499269 .43066407H.23599243C.21699524 .43066407 .20599365 .43066407 .20599365 .4116516 .20599365 .3996582 .21499634 .3996582 .23399353 .3996582H.2999878L.22499085 .0048828127C.20698548-.09207153 .18998719-.18309021 .13798523-.18309021 .13398743-.18309021 .10899353-.18309021 .08999634-.16506958 .13598633-.1620636 .14498902-.12606812 .14498902-.111068729 .14498902-.08807373 .1269989-.07606506 .10798645-.07606506 .08198547-.07606506 .052993776-.09806824 .052993776-.13606262 .052993776-.18109131 .09700012-.20507813 .13798523-.20507813 .19299317-.20507813 .23298645-.14607239 .25099183-.108062747 .2829895-.04508972 .30599977 .07583618 .30699159 .082839969L.36698915 .3996582Z"/>
<path id="font_3_5" d="M.47099305 .3773346C.47200013 .3833313 .47399903 .38833619 .47399903 .39535523 .47399903 .41236878 .46199037 .42237855 .44499208 .42237855 .43499757 .42237855 .4079895 .41537477 .4039917 .3793335 .38598634 .41636659 .35099793 .4423828 .31098939 .4423828 .19699097 .4423828 .07299805 .30226136 .07299805 .15812683 .07299805 .059020997 .13398743 0 .20599365 0 .2649994 0 .31199647 .04701233 .32199098 .058029176L.32299806 .057022096C.3019867-.031982423 .2899933-.07295227 .2899933-.07495117 .28599549-.08395386 .2519989-.18309021 .1459961-.18309021 .1269989-.18309021 .09399414-.18206787 .06599426-.17297364 .09599304-.16394043 .10699463-.13793946 .10699463-.12094116 .10699463-.10494995 .09599304-.0859375 .068984989-.0859375 .04699707-.0859375 .01499939-.10394287 .01499939-.14395142 .01499939-.18508911 .051986696-.20507813 .147995-.20507813 .272995-.20507813 .34498597-.12693787 .3600006-.06695557L.47099305 .3773346M.34098817 .12809754C.33499146 .10206604 .31199647 .077041629 .2899933 .058029176 .2689972 .040008546 .23799134 .021987915 .20899964 .021987915 .15899658 .021987915 .14399719 .074035648 .14399719 .11407471 .14399719 .16212464 .17298889 .28024293 .19999695 .33128358 .22698975 .38034059 .269989 .42037965 .31199647 .42037965 .37799073 .42037965 .3919983 .33929444 .3919983 .33428956 .3919983 .32928468 .3899994 .3232727 .3889923 .3192749L.34098817 .12809754Z"/>
<path id="font_4_1" d="M.44400025 .24998474C.44400025 .357193 .35499574 .44429017 .25 .44429017 .14199829 .44429017 .054992677 .3551941 .054992677 .24998474 .054992677 .14378357 .14199829 .05569458 .25 .05569458 .35499574 .05569458 .44400025 .14279175 .44400025 .24998474M.25 .095703128C.16299439 .095703128 .09498596 .16583252 .09498596 .24998474 .09498596 .33415223 .1639862 .40429688 .25 .40429688 .33299256 .40429688 .4039917 .33615113 .4039917 .24998474 .4039917 .16383362 .33299256 .095703128 .25 .095703128Z"/>
</defs>
<use data-text="x" xlink:href="#font_1_3" transform="matrix(6.9742186,0,0,-6.9738,18.362969,78.391)"/>
<path transform="matrix(1.00006,0,0,-1,20.6221,124.919)" d="M.70865 53.15024C.70865 53.54163 .39137 53.8589 0 53.8589-.39137 53.8589-.70865 53.54163-.70865 53.15024-.70865 52.75887-.39137 52.44159 0 52.44159 .39137 52.44159 .70865 52.75887 .70865 53.15024ZM0 53.15024"/>
<path transform="matrix(1.00006,0,0,-1,20.6221,124.919)" stroke-width=".59776" stroke-linecap="butt" stroke-miterlimit="10" stroke-linejoin="miter" fill="none" stroke="#000000" d="M.70865 53.15024C.70865 53.54163 .39137 53.8589 0 53.8589-.39137 53.8589-.70865 53.54163-.70865 53.15024-.70865 52.75887-.39137 52.44159 0 52.44159 .39137 52.44159 .70865 52.75887 .70865 53.15024ZM0 53.15024"/>
<use data-text="f" xlink:href="#font_1_1" transform="matrix(6.9742186,0,0,-6.9738,76.70046,80.619)"/>
<use data-text="(" xlink:href="#font_2_1" transform="matrix(6.9742186,0,0,-6.9738,81.36674,80.618)"/>
<use data-text="x" xlink:href="#font_1_3" transform="matrix(6.9742186,0,0,-6.9738,84.48093,80.619)"/>
<use data-text=")" xlink:href="#font_2_2" transform="matrix(6.9742186,0,0,-6.9738,88.99819,80.618)"/>
<path transform="matrix(1.00006,0,0,-1,20.6221,124.919)" d="M64.48895 53.15024C64.48895 53.54163 64.17168 53.8589 63.7803 53.8589 63.38893 53.8589 63.07166 53.54163 63.07166 53.15024 63.07166 52.75887 63.38893 52.44159 63.7803 52.44159 64.17168 52.44159 64.48895 52.75887 64.48895 53.15024ZM63.7803 53.15024"/>
<path transform="matrix(1.00006,0,0,-1,20.6221,124.919)" stroke-width=".59776" stroke-linecap="butt" stroke-miterlimit="10" stroke-linejoin="miter" fill="none" stroke="#000000" d="M64.48895 53.15024C64.48895 53.54163 64.17168 53.8589 63.7803 53.8589 63.38893 53.8589 63.07166 53.54163 63.07166 53.15024 63.07166 52.75887 63.38893 52.44159 63.7803 52.44159 64.17168 52.44159 64.48895 52.75887 64.48895 53.15024ZM63.7803 53.15024"/>
<use data-text="g" xlink:href="#font_1_2" transform="matrix(6.9742186,0,0,-6.9738,135.30197,80.619)"/>
<use data-text="(" xlink:href="#font_2_1" transform="matrix(6.9742186,0,0,-6.9738,139.43921,80.618)"/>
<use data-text="f" xlink:href="#font_1_1" transform="matrix(6.9742186,0,0,-6.9738,142.5524,80.619)"/>
<use data-text="(" xlink:href="#font_2_1" transform="matrix(6.9742186,0,0,-6.9738,147.21968,80.618)"/>
<use data-text="x" xlink:href="#font_1_3" transform="matrix(6.9742186,0,0,-6.9738,150.33287,80.619)"/>
<use data-text=")" xlink:href="#font_2_2" transform="matrix(6.9742186,0,0,-6.9738,154.85114,80.618)"/>
<use data-text=")" xlink:href="#font_2_2" transform="matrix(6.9742186,0,0,-6.9738,157.96164,80.618)"/>
<path transform="matrix(1.00006,0,0,-1,20.6221,124.919)" d="M128.26929 53.15024C128.26929 53.54163 127.95201 53.8589 127.56062 53.8589 127.16925 53.8589 126.85197 53.54163 126.85197 53.15024 126.85197 52.75887 127.16925 52.44159 127.56062 52.44159 127.95201 52.44159 128.26929 52.75887 128.26929 53.15024ZM127.56062 53.15024"/>
<path transform="matrix(1.00006,0,0,-1,20.6221,124.919)" stroke-width=".59776" stroke-linecap="butt" stroke-miterlimit="10" stroke-linejoin="miter" fill="none" stroke="#000000" d="M128.26929 53.15024C128.26929 53.54163 127.95201 53.8589 127.56062 53.8589 127.16925 53.8589 126.85197 53.54163 126.85197 53.15024 126.85197 52.75887 127.16925 52.44159 127.56062 52.44159 127.95201 52.44159 128.26929 52.75887 128.26929 53.15024ZM127.56062 53.15024"/>
<path transform="matrix(1.00006,0,0,-1,20.6221,124.919)" stroke-width=".59776" stroke-linecap="butt" stroke-miterlimit="10" stroke-linejoin="miter" fill="none" stroke="#000000" d="M1.00752 53.15187H59.48701"/>
<path transform="matrix(1.00006,0,0,-1,80.11268,71.76713)" d="M2.29138 0-1.37483 1.83311 0 0-1.37483-1.83311"/>
<path transform="matrix(1.00006,0,0,-1,20.6221,124.919)" stroke-width=".59776" stroke-linecap="butt" stroke-miterlimit="10" stroke-linejoin="miter" fill="none" stroke="#000000" d="M64.7898 53.15187H123.26929"/>
<path transform="matrix(1.00006,0,0,-1,143.89878,71.76713)" d="M2.29138 0-1.37483 1.83311 0 0-1.37483-1.83311"/>
<path transform="matrix(1.00006,0,0,-1,20.6221,124.919)" stroke-width=".59776" stroke-linecap="butt" stroke-miterlimit="10" stroke-linejoin="miter" fill="none" stroke="#929292" d="M14.44035 92.13034H-14.44035C-16.6413 92.13034-18.42546 90.34618-18.42546 88.14523V18.1617C-18.42546 15.96077-16.6413 14.17659-14.44035 14.17659H14.44035C16.6413 14.17659 18.42546 15.96077 18.42546 18.1617V88.14523C18.42546 90.34618 16.6413 92.13034 14.44035 92.13034ZM-18.42546 14.17659"/>
<path transform="matrix(1.00006,0,0,-1,20.6221,124.919)" stroke-width=".59776" stroke-linecap="butt" stroke-miterlimit="10" stroke-linejoin="miter" fill="none" stroke="#929292" d="M78.22453 92.13034H49.34383C47.14288 92.13034 45.35872 90.34618 45.35872 88.14523V18.1617C45.35872 15.96077 47.14288 14.17659 49.34383 14.17659H78.22453C80.42548 14.17659 82.20964 15.96077 82.20964 18.1617V88.14523C82.20964 90.34618 80.42548 92.13034 78.22453 92.13034ZM45.35872 14.17659"/>
<path transform="matrix(1.00006,0,0,-1,20.6221,124.919)" stroke-width=".59776" stroke-linecap="butt" stroke-miterlimit="10" stroke-linejoin="miter" fill="none" stroke="#929292" d="M142.00875 92.13034H113.12802C110.92708 92.13034 109.14291 90.34618 109.14291 88.14523V18.1617C109.14291 15.96077 110.92708 14.17659 113.12802 14.17659H142.00875C144.20969 14.17659 145.99385 15.96077 145.99385 18.1617V88.14523C145.99385 90.34618 144.20969 92.13034 142.00875 92.13034ZM109.14291 14.17659"/>
<use data-text="X" xlink:href="#font_3_1" transform="matrix(9.963197,0,0,-9.9626,16.103829,28.401001)"/>
<use data-text="Y" xlink:href="#font_3_2" transform="matrix(9.963197,0,0,-9.9626,80.406688,28.401001)"/>
<use data-text="Z" xlink:href="#font_3_3" transform="matrix(9.963197,0,0,-9.9626,144.43354,28.401001)"/>
<path transform="matrix(1.00006,0,0,-1,20.6221,124.919)" stroke-width=".59776" stroke-linecap="butt" stroke-miterlimit="10" stroke-linejoin="miter" fill="none" stroke="#000000" d="M8.13751 104.62389C24.47801 113.92288 39.94017 113.826 53.32684 105.98563"/>
<path transform="matrix(.86290177,.50534,.50537028,-.86285,73.95213,18.933358)" d="M2.29138 0-1.37483 1.83311 0 0-1.37483-1.83311"/>
<use data-text="f" xlink:href="#font_3_4" transform="matrix(9.963197,0,0,-9.9626,49.842855,7.8379976)"/>
<path transform="matrix(1.00006,0,0,-1,20.6221,124.919)" stroke-width=".59776" stroke-linecap="butt" stroke-miterlimit="10" stroke-linejoin="miter" fill="none" stroke="#000000" d="M71.40088 104.32056C87.96788 113.82426 103.67406 113.78 117.3455 105.83609"/>
<path transform="matrix(.8646619,.50238,.5024101,-.86461,137.97464,19.082901)" d="M2.29138 0-1.37483 1.83311 0 0-1.37483-1.83311"/>
<use data-text="g" xlink:href="#font_3_5" transform="matrix(9.963197,0,0,-9.9626,113.887699,7.947998)"/>
<path transform="matrix(1.00006,0,0,-1,20.6221,124.919)" stroke-width=".59776" stroke-linecap="butt" stroke-miterlimit="10" stroke-linejoin="miter" fill="none" stroke="#000000" d="M0 10.63004C43.0805-14.2424 84.48012-14.2424 124.71347 8.98627"/>
<path transform="matrix(.8660619,-.49998,-.50000998,-.86601,145.34305,115.93275)" d="M2.29138 0-1.37483 1.83311 0 0-1.37483-1.83311"/>
<use data-text="g" xlink:href="#font_3_5" transform="matrix(9.963197,0,0,-9.9626,74.17131,143.481)"/>
<use data-text="&#x25e6;" xlink:href="#font_4_1" transform="matrix(9.963197,0,0,-9.9626,81.49475,143.48)"/>
<use data-text="f" xlink:href="#font_3_4" transform="matrix(9.963197,0,0,-9.9626,88.690189,143.481)"/>
</svg>
