<svg xmlns="http://www.w3.org/2000/svg" xmlns:xlink="http://www.w3.org/1999/xlink" version="1.1" width="159pt" height="135pt" viewBox="0 0 159 135">
<defs>
<path id="font_1_1" d="M.33099366-.2400055C.33099366-.23701477 .33099366-.23500061 .31399537-.21800232 .18899536-.0920105 .15699768 .09700012 .15699768 .25 .15699768 .42399598 .19499207 .59799197 .31799317 .72299197 .33099366 .73498538 .33099366 .7369995 .33099366 .73999026 .33099366 .746994 .32699586 .75 .32099916 .75 .31098939 .75 .22099304 .6819916 .1619873 .5549927 .11099243 .44499208 .09899902 .33399964 .09899902 .25 .09899902 .17199707 .10998535 .050994874 .16499329-.06201172 .22499085-.18501282 .31098939-.25 .32099916-.25 .32699586-.25 .33099366-.24700928 .33099366-.2400055Z"/>
<path id="font_1_3" d="M.45999146 .31976319C.45999146 .39982606 .45498658 .47988893 .41999818 .5539398 .37399293 .65000918 .2919922 .6660156 .25 .6660156 .18998719 .6660156 .116989139 .64001467 .07598877 .54693606 .04399109 .47789 .038986207 .39982606 .038986207 .31976319 .038986207 .24472046 .042999269 .15464783 .083999637 .07859802 .1269989-.0024719239 .19999695-.022460938 .24899292-.022460938 .30299378-.022460938 .3789978-.0014648438 .4229889 .09359741 .45498658 .16265869 .45999146 .2407074 .45999146 .31976319M.24899292-.00047302247C.20999146-.00047302247 .15098572 .024551392 .1329956 .12062073 .12199402 .18066406 .12199402 .2727356 .12199402 .3317871 .12199402 .39582826 .12199402 .46188355 .12998963 .5159149 .14898682 .63500979 .22399903 .64401248 .24899292 .64401248 .28199769 .64401248 .34799195 .6259918 .36698915 .52693179 .3769989 .47088624 .3769989 .39482118 .3769989 .3317871 .3769989 .25672914 .3769989 .18867493 .3659973 .12461853 .35099793 .029556275 .2939911-.00047302247 .24899292-.00047302247Z"/>
<path id="font_2_1" d="M.20298767 .0009918213C.20298767 .066986087 .17799378 .10598755 .13899231 .10598755 .10598755 .10598755 .085998538 .08099365 .085998538 .052993776 .085998538 .025985718 .10598755 0 .13899231 0 .15098572 0 .1639862 .0039978029 .17399597 .0129852299 .1769867 .01499939 .17799378 .015991211 .1789856 .015991211 .17999268 .015991211 .18099976 .01499939 .18099976 .0009918213 .18099976-.07316589 .1459961-.13328552 .11299133-.16635132 .101989749-.17736817 .101989749-.17936707 .101989749-.18237305 .101989749-.18936157 .10699463-.19335938 .11199951-.19335938 .12298584-.19335938 .20298767-.116256717 .20298767 .0009918213Z"/>
<path id="font_1_2" d="M.2889862 .25C.2889862 .32798768 .27799989 .44898988 .22299195 .56199648 .16299439 .68499758 .07699585 .75 .066986087 .75 .06098938 .75 .056991579 .74598696 .056991579 .73999026 .056991579 .7369995 .056991579 .73498538 .07598877 .71699526 .17399597 .6179962 .23098755 .45899964 .23098755 .25 .23098755 .07899475 .19400025-.09700012 .069992069-.2230072 .056991579-.23500061 .056991579-.23701477 .056991579-.2400055 .056991579-.2460022 .06098938-.25 .066986087-.25 .07699585-.25 .16699219-.18200684 .22599793-.055007936 .2769928 .054992677 .2889862 .16600037 .2889862 .25Z"/>
<path id="font_1_5" d="M.2939911 .16503906V.07800293C.2939911 .041992189 .2919922 .0309906 .21798706 .0309906H.19699097V0C.23799134 .0029907227 .2899933 .0029907227 .33198548 .0029907227 .37399293 .0029907227 .4269867 .0029907227 .46798707 0V.0309906H.44699098C.37298585 .0309906 .37098695 .041992189 .37098695 .07800293V.16503906H.47099305V.19602967H.37098695V.65075686C.37098695 .67074587 .37098695 .6767578 .35499574 .6767578 .34599305 .6767578 .34298707 .6767578 .33499146 .66474917L.027999878 .19602967V.16503906H.2939911M.2999878 .19602967H.055999757L.2999878 .5688019V.19602967Z"/>
<path id="font_1_4" d="M.2899933 .35191346C.37199403 .37893678 .42999269 .4490509 .42999269 .52809146 .42999269 .6100464 .34199525 .6660156 .24598694 .6660156 .14498902 .6660156 .068984989 .60606387 .068984989 .53009036 .068984989 .49710084 .09098816 .47808839 .11999512 .47808839 .15098572 .47808839 .17098999 .50009158 .17098999 .5290985 .17098999 .57910159 .12399292 .57910159 .10899353 .57910159 .13999939 .62802127 .20599365 .64100649 .24198914 .64100649 .2829895 .64100649 .33799745 .6190338 .33799745 .5290985 .33799745 .51708987 .33599855 .45906068 .30999757 .4149933 .27999879 .36691285 .24598694 .36390687 .22099304 .36291505 .21299744 .36190797 .18899536 .35990907 .18199158 .35990907 .17399597 .35890199 .16699219 .35791017 .16699219 .3479004 .16699219 .33691407 .17399597 .33691407 .19099427 .33691407H.23498535C.31698609 .33691407 .35398866 .2686615 .35398866 .17037964 .35398866 .034469606 .2849884 .0055389406 .24099732 .0055389406 .19799805 .0055389406 .12298584 .022491456 .08799744 .08137512 .12298584 .07637024 .1539917 .09837341 .1539917 .1363678 .1539917 .17237854 .1269989 .19238281 .09799194 .19238281 .07398987 .19238281 .041992189 .17837525 .041992189 .1343689 .041992189 .043441774 .1349945-.022460938 .24398804-.022460938 .3659973-.022460938 .45700074 .06838989 .45700074 .17037964 .45700074 .252594 .3939972 .33088685 .2899933 .35191346Z"/>
</defs>
<path transform="matrix(1.00003,0,0,-1.00009,11.287926,118.5875)" d="M.70865 0C.70865 .39137 .39137 .70865 0 .70865-.39137 .70865-.70865 .39137-.70865 0-.70865-.39137-.39137-.70865 0-.70865 .39137-.70865 .70865-.39137 .70865 0ZM0 0"/>
<path transform="matrix(1.00003,0,0,-1.00009,11.287926,118.5875)" stroke-width=".59776" stroke-linecap="butt" stroke-miterlimit="10" stroke-linejoin="miter" fill="none" stroke="#000000" d="M.70865 0C.70865 .39137 .39137 .70865 0 .70865-.39137 .70865-.70865 .39137-.70865 0-.70865-.39137-.39137-.70865 0-.70865 .39137-.70865 .70865-.39137 .70865 0ZM0 0"/>
<use data-text="(" xlink:href="#font_1_1" transform="matrix(9.962899,0,0,-9.963496,.21759033,130.68759)"/>
<use data-text="0" xlink:href="#font_1_3" transform="matrix(9.962899,0,0,-9.963496,4.083191,130.68759)"/>
<use data-text="," xlink:href="#font_2_1" transform="matrix(9.962899,0,0,-9.963496,9.072853,130.68759)"/>
<use data-text="0" xlink:href="#font_1_3" transform="matrix(9.962899,0,0,-9.963496,13.500984,130.68759)"/>
<use data-text=")" xlink:href="#font_1_2" transform="matrix(9.962899,0,0,-9.963496,18.482438,130.68759)"/>
<path transform="matrix(1.00003,0,0,-1.00009,11.287926,118.5875)" d="M34.72473 0C34.72473 .39137 34.40746 .70865 34.01608 .70865 33.6247 .70865 33.30742 .39137 33.30742 0 33.30742-.39137 33.6247-.70865 34.01608-.70865 34.40746-.70865 34.72473-.39137 34.72473 0ZM34.01608 0"/>
<path transform="matrix(1.00003,0,0,-1.00009,11.287926,118.5875)" stroke-width=".59776" stroke-linecap="butt" stroke-miterlimit="10" stroke-linejoin="miter" fill="none" stroke="#000000" d="M34.72473 0C34.72473 .39137 34.40746 .70865 34.01608 .70865 33.6247 .70865 33.30742 .39137 33.30742 0 33.30742-.39137 33.6247-.70865 34.01608-.70865 34.40746-.70865 34.72473-.39137 34.72473 0ZM34.01608 0"/>
<path transform="matrix(1.00003,0,0,-1.00009,11.287926,118.5875)" d="M34.72473 34.01608C34.72473 34.40746 34.40746 34.72473 34.01608 34.72473 33.6247 34.72473 33.30742 34.40746 33.30742 34.01608 33.30742 33.6247 33.6247 33.30742 34.01608 33.30742 34.40746 33.30742 34.72473 33.6247 34.72473 34.01608ZM34.01608 34.01608"/>
<path transform="matrix(1.00003,0,0,-1.00009,11.287926,118.5875)" stroke-width=".59776" stroke-linecap="butt" stroke-miterlimit="10" stroke-linejoin="miter" fill="none" stroke="#000000" d="M34.72473 34.01608C34.72473 34.40746 34.40746 34.72473 34.01608 34.72473 33.6247 34.72473 33.30742 34.40746 33.30742 34.01608 33.30742 33.6247 33.6247 33.30742 34.01608 33.30742 34.40746 33.30742 34.72473 33.6247 34.72473 34.01608ZM34.01608 34.01608"/>
<path transform="matrix(1.00003,0,0,-1.00009,11.287926,118.5875)" d="M68.74081 34.01608C68.74081 34.40746 68.42354 34.72473 68.03217 34.72473 67.64078 34.72473 67.3235 34.40746 67.3235 34.01608 67.3235 33.6247 67.64078 33.30742 68.03217 33.30742 68.42354 33.30742 68.74081 33.6247 68.74081 34.01608ZM68.03217 34.01608"/>
<path transform="matrix(1.00003,0,0,-1.00009,11.287926,118.5875)" stroke-width=".59776" stroke-linecap="butt" stroke-miterlimit="10" stroke-linejoin="miter" fill="none" stroke="#000000" d="M68.74081 34.01608C68.74081 34.40746 68.42354 34.72473 68.03217 34.72473 67.64078 34.72473 67.3235 34.40746 67.3235 34.01608 67.3235 33.6247 67.64078 33.30742 68.03217 33.30742 68.42354 33.30742 68.74081 33.6247 68.74081 34.01608ZM68.03217 34.01608"/>
<path transform="matrix(1.00003,0,0,-1.00009,11.287926,118.5875)" d="M68.74081 68.03217C68.74081 68.42354 68.42354 68.74081 68.03217 68.74081 67.64078 68.74081 67.3235 68.42354 67.3235 68.03217 67.3235 67.64078 67.64078 67.3235 68.03217 67.3235 68.42354 67.3235 68.74081 67.64078 68.74081 68.03217ZM68.03217 68.03217"/>
<path transform="matrix(1.00003,0,0,-1.00009,11.287926,118.5875)" stroke-width=".59776" stroke-linecap="butt" stroke-miterlimit="10" stroke-linejoin="miter" fill="none" stroke="#000000" d="M68.74081 68.03217C68.74081 68.42354 68.42354 68.74081 68.03217 68.74081 67.64078 68.74081 67.3235 68.42354 67.3235 68.03217 67.3235 67.64078 67.64078 67.3235 68.03217 67.3235 68.42354 67.3235 68.74081 67.64078 68.74081 68.03217ZM68.03217 68.03217"/>
<path transform="matrix(1.00003,0,0,-1.00009,11.287926,118.5875)" d="M68.74081 102.04825C68.74081 102.43962 68.42354 102.7569 68.03217 102.7569 67.64078 102.7569 67.3235 102.43962 67.3235 102.04825 67.3235 101.65688 67.64078 101.33958 68.03217 101.33958 68.42354 101.33958 68.74081 101.65688 68.74081 102.04825ZM68.03217 102.04825"/>
<path transform="matrix(1.00003,0,0,-1.00009,11.287926,118.5875)" stroke-width=".59776" stroke-linecap="butt" stroke-miterlimit="10" stroke-linejoin="miter" fill="none" stroke="#000000" d="M68.74081 102.04825C68.74081 102.43962 68.42354 102.7569 68.03217 102.7569 67.64078 102.7569 67.3235 102.43962 67.3235 102.04825 67.3235 101.65688 67.64078 101.33958 68.03217 101.33958 68.42354 101.33958 68.74081 101.65688 68.74081 102.04825ZM68.03217 102.04825"/>
<path transform="matrix(1.00003,0,0,-1.00009,11.287926,118.5875)" d="M102.7569 102.04825C102.7569 102.43962 102.43962 102.7569 102.04825 102.7569 101.65688 102.7569 101.33958 102.43962 101.33958 102.04825 101.33958 101.65688 101.65688 101.33958 102.04825 101.33958 102.43962 101.33958 102.7569 101.65688 102.7569 102.04825ZM102.04825 102.04825"/>
<path transform="matrix(1.00003,0,0,-1.00009,11.287926,118.5875)" stroke-width=".59776" stroke-linecap="butt" stroke-miterlimit="10" stroke-linejoin="miter" fill="none" stroke="#000000" d="M102.7569 102.04825C102.7569 102.43962 102.43962 102.7569 102.04825 102.7569 101.65688 102.7569 101.33958 102.43962 101.33958 102.04825 101.33958 101.65688 101.65688 101.33958 102.04825 101.33958 102.43962 101.33958 102.7569 101.65688 102.7569 102.04825ZM102.04825 102.04825"/>
<path transform="matrix(1.00003,0,0,-1.00009,11.287926,118.5875)" d="M136.77298 102.04825C136.77298 102.43962 136.4557 102.7569 136.06433 102.7569 135.67296 102.7569 135.35567 102.43962 135.35567 102.04825 135.35567 101.65688 135.67296 101.33958 136.06433 101.33958 136.4557 101.33958 136.77298 101.65688 136.77298 102.04825ZM136.06433 102.04825"/>
<path transform="matrix(1.00003,0,0,-1.00009,11.287926,118.5875)" stroke-width=".59776" stroke-linecap="butt" stroke-miterlimit="10" stroke-linejoin="miter" fill="none" stroke="#000000" d="M136.77298 102.04825C136.77298 102.43962 136.4557 102.7569 136.06433 102.7569 135.67296 102.7569 135.35567 102.43962 135.35567 102.04825 135.35567 101.65688 135.67296 101.33958 136.06433 101.33958 136.4557 101.33958 136.77298 101.65688 136.77298 102.04825ZM136.06433 102.04825"/>
<use data-text="(" xlink:href="#font_1_1" transform="matrix(9.962899,0,0,-9.963496,136.31269,9.391678)"/>
<use data-text="4" xlink:href="#font_1_5" transform="matrix(9.962899,0,0,-9.963496,140.17829,9.391678)"/>
<use data-text="," xlink:href="#font_2_1" transform="matrix(9.962899,0,0,-9.963496,145.16794,9.391678)"/>
<use data-text="3" xlink:href="#font_1_4" transform="matrix(9.962899,0,0,-9.963496,149.59607,9.391678)"/>
<use data-text=")" xlink:href="#font_1_2" transform="matrix(9.962899,0,0,-9.963496,154.57753,9.391678)"/>
<path transform="matrix(1.00003,0,0,-1.00009,11.287926,118.5875)" stroke-width=".59776" stroke-linecap="butt" stroke-miterlimit="10" stroke-linejoin="miter" fill="none" stroke="#000000" d="M1.00772 0H33.01488"/>
<path transform="matrix(1.00003,0,0,-1.00009,11.287926,118.5875)" stroke-width=".59776" stroke-linecap="butt" stroke-miterlimit="10" stroke-linejoin="miter" fill="none" stroke="#000000" d="M34.02283 1.00768V33.01492"/>
<path transform="matrix(1.00003,0,0,-1.00009,11.287926,118.5875)" stroke-width=".59776" stroke-linecap="butt" stroke-miterlimit="10" stroke-linejoin="miter" fill="none" stroke="#000000" d="M35.03032 34.02283H67.03754"/>
<path transform="matrix(1.00003,0,0,-1.00009,11.287926,118.5875)" stroke-width=".59776" stroke-linecap="butt" stroke-miterlimit="10" stroke-linejoin="miter" fill="none" stroke="#000000" d="M68.04565 35.03032 68.04561 67.03754"/>
<path transform="matrix(1.00003,0,0,-1.00009,11.287926,118.5875)" stroke-width=".59776" stroke-linecap="butt" stroke-miterlimit="10" stroke-linejoin="miter" fill="none" stroke="#000000" d="M68.04565 69.05296 68.04561 101.06021"/>
<path transform="matrix(1.00003,0,0,-1.00009,11.287926,118.5875)" stroke-width=".59776" stroke-linecap="butt" stroke-miterlimit="10" stroke-linejoin="miter" fill="none" stroke="#000000" d="M69.05296 102.0685 101.06021 102.06848"/>
<path transform="matrix(1.00003,0,0,-1.00009,11.287926,118.5875)" stroke-width=".59776" stroke-linecap="butt" stroke-miterlimit="10" stroke-linejoin="miter" fill="none" stroke="#000000" d="M103.0756 102.0685 135.08284 102.06848"/>
</svg>
