<svg xmlns="http://www.w3.org/2000/svg" xmlns:xlink="http://www.w3.org/1999/xlink" version="1.1" width="126pt" height="231pt" viewBox="0 0 126 231">
<defs>
<path id="font_1_1" d="M.42199708 .38238526C.40098573 .41540528 .36698915 .44140626 .31900025 .44140626 .19099427 .44140626 .06098938 .300354 .06098938 .15628052 .06098938 .059249879 .12599182-.009765625 .21199036-.009765625 .2659912-.009765625 .31399537 .021224976 .35398866 .0602417 .37298585 .00022888184 .43099977-.009765625 .45700074-.009765625 .49299623-.009765625 .5179901 .01222229 .5359955 .04324341 .55799868 .08226013 .57099917 .13928223 .57099917 .14328003 .57099917 .15628052 .55799868 .15628052 .5549927 .15628052 .54100039 .15628052 .5399933 .15228272 .5329895 .12527466 .5209961 .07725525 .5019989 .018234253 .45999146 .018234253 .43399049 .018234253 .4269867 .040237428 .4269867 .06724548 .4269867 .08425903 .43499757 .120269779 .44198609 .14628601 .44898988 .17329407 .45899964 .21430969 .46398927 .23632813L.48399354 .3123474C.48999024 .33836366 .5019989 .38539125 .5019989 .39038087 .5019989 .4123993 .48399354 .4223938 .46798707 .4223938 .45098878 .4223938 .42799378 .4104004 .42199708 .38238526M.35798646 .12527466C.35099793 .09725952 .32899476 .07725525 .30699159 .058242799 .2979889 .050247194 .2579956 .018234253 .21499634 .018234253 .17799378 .018234253 .14199829 .04423523 .14199829 .11526489 .14199829 .16828919 .17098999 .27833558 .19400025 .31835938 .23999024 .39839173 .29100038 .4133911 .31900025 .4133911 .3889923 .4133911 .4079895 .33737184 .4079895 .32635499 .4079895 .32235719 .4059906 .3153534 .40499879 .3123474L.35798646 .12527466Z"/>
<path id="font_1_2" d="M.2639923 .66430667C.2649994 .66630557 .2679901 .67930606 .2679901 .68029788 .2679901 .68530276 .2639923 .6943054 .2519989 .6943054 .23199463 .6943054 .14898682 .6863098 .12399292 .6843109 .115997318 .68330386 .101989749 .682312 .101989749 .66130068 .101989749 .64730837 .115997318 .64730837 .12799073 .64730837 .17599488 .64730837 .17599488 .64030459 .17599488 .63230898 .17599488 .62532046 .1659851 .58532717 .1599884 .5623474L.13699341 .4703827C.12799073 .43640138 .07299805 .21731568 .070999149 .20431519 .06599426 .18029785 .06599426 .16729737 .06599426 .1552887 .06599426 .054244996 .12998963-.009765625 .21299744-.009765625 .33799745-.009765625 .47099305 .12626648 .47099305 .27433778 .47099305 .39138795 .3899994 .44140626 .32099916 .44140626 .2689972 .44140626 .22499085 .4123993 .19499207 .38638307L.2639923 .66430667M.21398926 .018234253C.16499329 .018234253 .13699341 .06124878 .13699341 .120269779 .13699341 .1572876 .1459961 .19129944 .17399597 .3043518 .17999268 .32336427 .17999268 .32536317 .19898987 .34736634 .23699951 .39138795 .28199769 .4133911 .31799317 .4133911 .35699464 .4133911 .3909912 .38438417 .3909912 .31636048 .3909912 .27534486 .36898805 .17329407 .33898927 .11526489 .31498719 .06625366 .2649994 .018234253 .21398926 .018234253Z"/>
<path id="font_1_3" d="M.43798829 .38304139C.4019928 .37702943 .3869934 .34902955 .3869934 .32702638 .3869934 .30003358 .4079895 .29003907 .42599488 .29003907 .44799806 .29003907 .48298646 .30603028 .48298646 .35403443 .48298646 .4223938 .40499879 .44140626 .35099793 .44140626 .20098877 .44140626 .06199646 .3030243 .06199646 .16412354 .06199646 .078186038 .12199402-.009765625 .24699402-.009765625 .41600038-.009765625 .49499513 .08917236 .49499513 .10316467 .49499513 .10916138 .48599244 .120147708 .47799684 .120147708 .47200013 .120147708 .46998597 .1181488 .46199037 .11016846 .38398744 .018234253 .2669983 .018234253 .24899292 .018234253 .1769867 .018234253 .14498902 .06718445 .14498902 .12915039 .14498902 .15812683 .15899658 .26704408 .21099854 .33602906 .24899292 .3850708 .30099488 .4133911 .35099793 .4133911 .36499024 .4133911 .41299439 .41137696 .43798829 .38304139Z"/>
<path id="font_1_4" d="M.57099917 .66430667C.57199099 .66630557 .57499697 .67930606 .57499697 .68029788 .57499697 .68530276 .57099917 .6943054 .5589905 .6943054 .5389862 .6943054 .45599366 .6863098 .43099977 .6843109 .4229889 .68330386 .40899659 .682312 .40899659 .66130068 .40899659 .64730837 .4229889 .64730837 .43499757 .64730837 .48298646 .64730837 .48298646 .64030459 .48298646 .63230898 .48298646 .62532046 .48098756 .61932376 .47898866 .61032107L.42199708 .38238526C.40098573 .41540528 .36698915 .44140626 .31900025 .44140626 .19099427 .44140626 .06098938 .300354 .06098938 .15628052 .06098938 .059249879 .12599182-.009765625 .21199036-.009765625 .2659912-.009765625 .31399537 .021224976 .35398866 .0602417 .37298585 .00022888184 .43099977-.009765625 .45700074-.009765625 .49299623-.009765625 .5179901 .01222229 .5359955 .04324341 .55799868 .08226013 .57099917 .13928223 .57099917 .14328003 .57099917 .15628052 .55799868 .15628052 .5549927 .15628052 .54100039 .15628052 .5399933 .15228272 .5329895 .12527466 .5209961 .07725525 .5019989 .018234253 .45999146 .018234253 .43399049 .018234253 .4269867 .040237428 .4269867 .06724548 .4269867 .086257938 .42900086 .09526062 .43199159 .10826111L.57099917 .66430667M.35798646 .12527466C.35099793 .09725952 .32899476 .07725525 .30699159 .058242799 .2979889 .050247194 .2579956 .018234253 .21499634 .018234253 .17799378 .018234253 .14199829 .04423523 .14199829 .11526489 .14199829 .16828919 .17098999 .27833558 .19400025 .31835938 .23999024 .39839173 .29100038 .4133911 .31900025 .4133911 .3889923 .4133911 .4079895 .33737184 .4079895 .32635499 .4079895 .32235719 .4059906 .3153534 .40499879 .3123474L.35798646 .12527466Z"/>
<path id="font_1_5" d="M.22399903 .22851563C.2519989 .22851563 .33099366 .23051453 .3849945 .24951172 .45899964 .27549745 .47299195 .3234558 .47299195 .35343934 .47299195 .4084015 .41799928 .44140626 .34899903 .44140626 .22898865 .44140626 .066986087 .34944154 .066986087 .17843628 .066986087 .077301029 .12998963-.009765625 .24699402-.009765625 .41600038-.009765625 .49499513 .08932495 .49499513 .10334778 .49499513 .10934448 .48599244 .12036133 .47799684 .12036133 .47200013 .12036133 .46998597 .11836243 .46199037 .11035156 .38398744 .018234253 .2669983 .018234253 .24899292 .018234253 .18899536 .018234253 .14898682 .058273317 .14898682 .13938904 .14898682 .15341187 .14898682 .1734314 .16099549 .22851563H.22399903M.16899109 .2565155C.20999146 .40141297 .32099916 .4133911 .34899903 .4133911 .3929901 .4133911 .42999269 .39141847 .42999269 .35343934 .42999269 .2565155 .26098634 .2565155 .21798706 .2565155H.16899109Z"/>
<path id="font_1_6" d="M.40699769 .39465333H.5049896C.5249939 .39465333 .5379944 .39465333 .5379944 .4166565 .5379944 .43066407 .5249939 .43066407 .5069885 .43066407H.4139862C.43699647 .5580139 .44499208 .6040497 .45298768 .63305667 .45799256 .6550598 .47999574 .6760864 .5039978 .6760864 .5049896 .6760864 .5319977 .6760864 .5509949 .6640625 .5099945 .651062 .5069885 .61505129 .5069885 .60905459 .5069885 .5870514 .5239868 .572052 .5469971 .572052 .57398989 .572052 .60398867 .59506228 .60398867 .63305667 .60398867 .6790924 .5549927 .70410159 .5039978 .70410159 .45999146 .70410159 .41099549 .6790924 .38398744 .62905886 .3639984 .5920563 .35598756 .5469818 .33499146 .43066407H.2559967C.23599243 .43066407 .22299195 .43066407 .22299195 .4086609 .22299195 .39465333 .23599243 .39465333 .2539978 .39465333H.32798768C.32699586 .38865663 .2639923 .028869629 .23999024-.078063968 .23498535-.10006714 .21798706-.17610169 .16999817-.17610169 .16899109-.17610169 .14498902-.17610169 .12599182-.1640625 .16699219-.15107727 .16999817-.11506653 .16999817-.109069827 .16999817-.08706665 .15299988-.07206726 .12998963-.07206726 .102996829-.07206726 .07299805-.095077518 .07299805-.1330719 .07299805-.17811585 .11999512-.20410156 .16999817-.20410156 .23399353-.20410156 .27799989-.13807678 .2899933-.11607361 .32598878-.049087526 .34899903 .07385254 .35099793 .08584595L.40699769 .39465333Z"/>
<path id="font_2_1" d="M.33499146 .63612368C.33499146 .6630554 .33299256 .6640625 .30499269 .6640625 .24099732 .6014404 .1499939 .6004486 .10899353 .6004486V.5644531C.1329956 .5644531 .19898987 .5644531 .2539978 .592453V.08203125C.2539978 .04899597 .2539978 .035995485 .1539917 .035995485H.115997318V0C.13398743 .0009918213 .25698854 .0039978029 .2939911 .0039978029 .32499696 .0039978029 .45098878 .0009918213 .47299195 0V.035995485H.43499757C.33499146 .035995485 .33499146 .04899597 .33499146 .08203125V.63612368Z"/>
<path id="font_2_2" d="M.5049896 .18203736H.47099305C.46798707 .16001892 .45799256 .100997928 .44499208 .09098816 .43699647 .084991458 .3600006 .084991458 .34599305 .084991458H.1619873C.2669983 .17803955 .3019867 .20603943 .3619995 .25306703 .43598939 .312088 .5049896 .374115 .5049896 .46914674 .5049896 .5900879 .39898683 .6640625 .2709961 .6640625 .14698792 .6640625 .06298828 .57710269 .06298828 .4851532 .06298828 .43414308 .10598755 .42915345 .115997318 .42915345 .13999939 .42915345 .16899109 .44615174 .16899109 .48214723 .16899109 .5001526 .1619873 .53515627 .10998535 .53515627 .14099121 .6060791 .20899964 .62805178 .2559967 .62805178 .35598756 .62805178 .4079895 .5501404 .4079895 .46914674 .4079895 .38212586 .34599305 .3130951 .31399537 .27708436L.07299805 .038986207C.06298828 .02999878 .06298828 .027999878 .06298828 0H.47499085L.5049896 .18203736Z"/>
<path id="font_2_3" d="M.272995 .33428956C.35099793 .33428956 .40699769 .2803192 .40699769 .1733551 .40699769 .04940796 .33499146 .012466431 .2769928 .012466431 .23699951 .012466431 .14898682 .0234375 .10699463 .082351688 .1539917 .084350589 .16499329 .11735535 .16499329 .13835144 .16499329 .17034912 .14099121 .19335938 .10998535 .19335938 .08198547 .19335938 .053985597 .17634583 .053985597 .13534546 .053985597 .041412355 .1579895-.01953125 .2789917-.01953125 .41799928-.01953125 .5139923 .07336426 .5139923 .1733551 .5139923 .2513275 .44999696 .32929994 .33999635 .35229493 .44499208 .39024354 .48298646 .4650879 .48298646 .5260773 .48298646 .60505679 .3919983 .6640625 .2809906 .6640625 .16999817 .6640625 .084991458 .61006167 .084991458 .5300751 .084991458 .49606324 .10699463 .47706605 .13699341 .47706605 .16799927 .47706605 .18798828 .5000763 .18798828 .5280762 .18798828 .5570679 .16799927 .57806399 .13699341 .5800781 .17199707 .62405398 .24099732 .63505557 .27799989 .63505557 .32299806 .63505557 .38598634 .6130676 .38598634 .5260773 .38598634 .48406983 .37199403 .43814088 .34599305 .4072113 .31298829 .36927796 .2849884 .3672943 .23498535 .36428834 .20999146 .3623047 .20799256 .3623047 .20298767 .3612976 .20098877 .3612976 .19299317 .3592987 .19299317 .34829713 .19299317 .33428956 .20199585 .33428956 .21899414 .33428956H.272995Z"/>
<path id="font_2_4" d="M.5289917 .1640625V.20005799H.41799928V.64582827C.41799928 .66682437 .41799928 .6738281 .3959961 .6738281 .38398744 .6738281 .37998963 .6738281 .36999513 .65982058L.038986207 .20005799V.1640625H.33299256V.08201599C.33299256 .04800415 .33299256 .035995485 .2519989 .035995485H.22499085V0C.2749939 .0019989014 .33898927 .0039978029 .375 .0039978029 .4119873 .0039978029 .47599793 .0019989014 .526001 0V.035995485H.49899293C.41799928 .035995485 .41799928 .04800415 .41799928 .08201599V.1640625H.5289917M.33999635 .5658722V.20005799H.07598877L.33999635 .5658722Z"/>
<path id="font_2_5" d="M.15499878 .5588074C.20599365 .5458069 .23599243 .5458069 .2519989 .5458069 .38398744 .5458069 .46199037 .6358032 .46199037 .6508026 .46199037 .6618042 .45498658 .6648102 .44999696 .6648102 .44799806 .6648102 .44599916 .6648102 .44198609 .6618042 .41799928 .6528015 .36499024 .6328125 .29100038 .6328125 .2630005 .6328125 .20999146 .6348114 .14498902 .6598053 .1349945 .6648102 .1329956 .6648102 .13198853 .6648102 .11898804 .6648102 .11898804 .6538086 .11898804 .6378021V.34251405C.11898804 .32548524 .11898804 .3134613 .1349945 .3134613 .14399719 .3134613 .14498902 .3154602 .15499878 .32748414 .19799805 .38259889 .25898744 .390625 .2939911 .390625 .35398866 .390625 .3809967 .34251405 .38598634 .33450318 .4039917 .30143739 .4099884 .26335145 .4099884 .20524597 .4099884 .17524719 .4099884 .116256717 .37998963 .07234192 .35499574 .03640747 .31199647 .012466431 .2630005 .012466431 .19799805 .012466431 .1309967 .04838562 .10598755 .11425781 .14399719 .11125183 .16299439 .13624573 .16299439 .16325379 .16299439 .20625305 .12599182 .21424866 .11299133 .21424866 .11099243 .21424866 .06298828 .21424866 .06298828 .1602478 .06298828 .07034302 .14498902-.01953125 .2649994-.01953125 .3929901-.01953125 .5049896 .07533264 .5049896 .20124817 .5049896 .31445313 .4189911 .41862489 .29499818 .41862489 .25099183 .41862489 .19898987 .4076233 .15499878 .36956788V.5588074Z"/>
<path id="font_3_2" d="M.4850006 .41075135 .40098573 .6096344C.397995 .61763 .3959961 .6216278 .3959961 .6226196 .3959961 .62861636 .41299439 .6476135 .45498658 .6516113 .46499635 .65260317 .47499085 .6536102 .47499085 .6706085 .47499085 .6826172 .46299745 .6826172 .45999146 .6826172 .4189911 .6826172 .37599183 .6796112 .33399964 .6796112 .30899049 .6796112 .24699402 .6826172 .22200012 .6826172 .21598816 .6826172 .20399475 .6826172 .20399475 .6626129 .20399475 .6516113 .21398926 .6516113 .22698975 .6516113 .2869873 .6516113 .29299928 .6416168 .3019867 .6196289L.41999818 .34080506 .20899964 .11393738 .19599915 .10295105C.14698792 .049987794 .099990848 .033996583 .04899597 .0309906 .035995485 .02999878 .026992798 .02999878 .026992798 .010986328 .026992798 .009994507 .026992798 0 .039993287 0 .069992069 0 .102996829 .0029907227 .13398743 .0029907227 .17098999 .0029907227 .20999146 0 .24598694 0 .2519989 0 .2639923 0 .2639923 .019989014 .2639923 .02999878 .2539978 .0309906 .2519989 .0309906 .24299622 .03199768 .21199036 .033996583 .21199036 .061965944 .21199036 .07795715 .22698975 .093948367 .23899842 .10694885L.34098817 .21487427 .43099977 .31282044 .5319977 .07395935C.5359955 .06297302 .5369873 .061965944 .5369873 .05996704 .5369873 .051986696 .5179901 .034988405 .47898866 .0309906 .46798707 .02999878 .45899964 .0289917 .45899964 .011993408 .45899964 0 .46998597 0 .47399903 0 .5019989 0 .57199099 .0029907227 .59999087 .0029907227 .625 .0029907227 .6859894 0 .71099856 0 .71798709 0 .7299957 0 .7299957 .018997193 .7299957 .0309906 .7200012 .0309906 .71199038 .0309906 .644989 .03199768 .6429901 .034988405 .6259918 .07496643 .58699038 .16790772 .519989 .32380677 .49699403 .3837738 .5649872 .45373536 .66999819 .5726471 .70199587 .6006317 .73098757 .62461856 .7689972 .64860537 .82899478 .6516113 .84199526 .65260317 .8509979 .65260317 .8509979 .6716156 .8509979 .6726074 .8509979 .6826172 .83799746 .6826172 .80799868 .6826172 .7749939 .6796112 .74398806 .6796112 .70700076 .6796112 .6689911 .6826172 .6329956 .6826172 .6269989 .6826172 .6139984 .6826172 .6139984 .6626129 .6139984 .65560916 .61898806 .65260317 .6259918 .6516113 .6349945 .65060427 .66600039 .64860537 .66600039 .6206207 .66600039 .6066284 .6549988 .5936432 .6469879 .5846405L.4850006 .41075135Z"/>
<path id="font_3_3" d="M.5970001 .5686493 .61099246 .5826416C.6409912 .6126251 .673996 .64660647 .74198916 .6516113 .7529907 .65260317 .7619934 .65260317 .7619934 .6706085 .7619934 .6786041 .7569885 .6826172 .7489929 .6826172 .72299197 .6826172 .69400027 .6796112 .6669922 .6796112 .6339874 .6796112 .598999 .6826172 .5669861 .6826172 .5609894 .6826172 .5479889 .6826172 .5479889 .66360476 .5479889 .65260317 .55799868 .6516113 .5629883 .6516113 .56999209 .6516113 .598999 .6496124 .598999 .62861636 .598999 .6116333 .57598879 .5856476 .57199099 .5806427L.33999635 .31381227 .22999573 .6106262C.22399903 .62461856 .22399903 .62661746 .22399903 .6276245 .22399903 .6516113 .272995 .6516113 .2829895 .6516113 .29699708 .6516113 .30699159 .6516113 .30699159 .6716156 .30699159 .6826172 .29499818 .6826172 .2919922 .6826172 .2639923 .6826172 .19400025 .6796112 .1659851 .6796112 .14099121 .6796112 .07899475 .6826172 .053985597 .6826172 .04798889 .6826172 .034988405 .6826172 .034988405 .6626129 .034988405 .6516113 .04499817 .6516113 .057998659 .6516113 .117996219 .6516113 .12199402 .64260867 .1309967 .61763L.2539978 .28883363C.25498963 .28582765 .2579956 .2748413 .2579956 .27183534 .2579956 .2688446 .21798706 .107940677 .21299744 .08995056 .19999695 .034988405 .19898987 .03199768 .11898804 .0309906 .099990848 .0309906 .09199524 .0309906 .09199524 .010986328 .09199524 0 .10398865 0 .10598755 0 .13398743 0 .20399475 .0029907227 .23199463 .0029907227 .2599945 .0029907227 .33198548 0 .3600006 0 .36698915 0 .3789978 0 .3789978 .019989014 .3789978 .0309906 .36999513 .0309906 .35099793 .0309906 .34899903 .0309906 .32998658 .0309906 .31298829 .032989503 .2919922 .034988405 .28599549 .036987306 .28599549 .048980714 .28599549 .05596924 .29499818 .09095764 .2999878 .11193848L.33499146 .2528534C.33999635 .27183534 .34098817 .2748413 .34899903 .28382875L.5970001 .5686493Z"/>
<path id="font_3_1" d="M.16999817-.16976929C.1659851-.18278504 .16499329-.18478394 .16499329-.18977356 .16499329-.21177674 .18399048-.21777344 .19400025-.21777344 .19898987-.21777344 .22099304-.21478272 .23098755-.19178772 .23399353-.18377686 .23899842-.1507721 .2659912-.008743286 .2749939-.009750366 .28199769-.0107421879 .29899598-.0107421879 .46499635-.0107421879 .61898806 .14628601 .61898806 .3043518 .61898806 .38237 .5799866 .4423828 .5049896 .4423828 .3600006 .4423828 .2999878 .24832154 .23999024 .053253175 .13198853 .07325745 .07598877 .12928772 .07598877 .2013092 .07598877 .22932434 .09899902 .33935548 .15899658 .40837098 .16699219 .41737367 .16699219 .41937257 .16699219 .42137147 .16699219 .42536927 .16499329 .43138124 .15499878 .43138124 .1269989 .43138124 .049987794 .28634645 .049987794 .19030762 .049987794 .0962677 .115997318 .023254395 .22299195-.0017547608L.16999817-.16976929M.30799867 .04725647C.2999878 .04725647 .2979889 .04725647 .2899933 .04824829 .27799989 .04824829 .2769928 .04925537 .2769928 .052246095 .2769928 .054260255 .2939911 .14529419 .29699708 .16029358 .32798768 .28834535 .4059906 .3843689 .49499513 .3843689 .56399539 .3843689 .59098818 .33035279 .59098818 .28233338 .59098818 .16929627 .46199037 .04725647 .30799867 .04725647Z"/>
</defs>
<path transform="matrix(1.0001,0,0,-1,20.623162,245.22)" d="M7.08669 204.0965C7.08669 208.0104 3.91391 211.18318 0 211.18318-3.91391 211.18318-7.08669 208.0104-7.08669 204.0965-7.08669 200.18257-3.91391 197.0098 0 197.0098 3.91391 197.0098 7.08669 200.18257 7.08669 204.0965ZM0 204.0965" fill="#999999"/>
<path transform="matrix(1.0001,0,0,-1,20.623162,245.22)" stroke-width=".59776" stroke-linecap="butt" stroke-miterlimit="10" stroke-linejoin="miter" fill="none" stroke="#000000" d="M7.08669 204.0965C7.08669 208.0104 3.91391 211.18318 0 211.18318-3.91391 211.18318-7.08669 208.0104-7.08669 204.0965-7.08669 200.18257-3.91391 197.0098 0 197.0098 3.91391 197.0098 7.08669 200.18257 7.08669 204.0965ZM0 204.0965"/>
<use data-text="a" xlink:href="#font_1_1" transform="matrix(6.974498,0,0,-6.9738,18.461945,42.625)"/>
<path transform="matrix(1.0001,0,0,-1,20.623162,245.22)" d="M7.08669 170.08042C7.08669 173.99433 3.91391 177.1671 0 177.1671-3.91391 177.1671-7.08669 173.99433-7.08669 170.08042-7.08669 166.16649-3.91391 162.99372 0 162.99372 3.91391 162.99372 7.08669 166.16649 7.08669 170.08042ZM0 170.08042" fill="#999999"/>
<path transform="matrix(1.0001,0,0,-1,20.623162,245.22)" stroke-width=".59776" stroke-linecap="butt" stroke-miterlimit="10" stroke-linejoin="miter" fill="none" stroke="#000000" d="M7.08669 170.08042C7.08669 173.99433 3.91391 177.1671 0 177.1671-3.91391 177.1671-7.08669 173.99433-7.08669 170.08042-7.08669 166.16649-3.91391 162.99372 0 162.99372 3.91391 162.99372 7.08669 166.16649 7.08669 170.08042ZM0 170.08042"/>
<use data-text="b" xlink:href="#font_1_2" transform="matrix(6.974498,0,0,-6.9738,18.870987,77.561008)"/>
<path transform="matrix(1.0001,0,0,-1,20.623162,245.22)" d="M7.08669 136.06433C7.08669 139.97824 3.91391 143.15102 0 143.15102-3.91391 143.15102-7.08669 139.97824-7.08669 136.06433-7.08669 132.1504-3.91391 128.97763 0 128.97763 3.91391 128.97763 7.08669 132.1504 7.08669 136.06433ZM0 136.06433" fill="#999999"/>
<path transform="matrix(1.0001,0,0,-1,20.623162,245.22)" stroke-width=".59776" stroke-linecap="butt" stroke-miterlimit="10" stroke-linejoin="miter" fill="none" stroke="#000000" d="M7.08669 136.06433C7.08669 139.97824 3.91391 143.15102 0 143.15102-3.91391 143.15102-7.08669 139.97824-7.08669 136.06433-7.08669 132.1504-3.91391 128.97763 0 128.97763 3.91391 128.97763 7.08669 132.1504 7.08669 136.06433ZM0 136.06433"/>
<use data-text="c" xlink:href="#font_1_3" transform="matrix(6.974498,0,0,-6.9738,18.842988,110.657)"/>
<path transform="matrix(1.0001,0,0,-1,20.623162,245.22)" d="M7.08669 102.04825C7.08669 105.96216 3.91391 109.13493 0 109.13493-3.91391 109.13493-7.08669 105.96216-7.08669 102.04825-7.08669 98.13432-3.91391 94.96155 0 94.96155 3.91391 94.96155 7.08669 98.13432 7.08669 102.04825ZM0 102.04825" fill="#999999"/>
<path transform="matrix(1.0001,0,0,-1,20.623162,245.22)" stroke-width=".59776" stroke-linecap="butt" stroke-miterlimit="10" stroke-linejoin="miter" fill="none" stroke="#000000" d="M7.08669 102.04825C7.08669 105.96216 3.91391 109.13493 0 109.13493-3.91391 109.13493-7.08669 105.96216-7.08669 102.04825-7.08669 98.13432-3.91391 94.96155 0 94.96155 3.91391 94.96155 7.08669 98.13432 7.08669 102.04825ZM0 102.04825"/>
<use data-text="d" xlink:href="#font_1_4" transform="matrix(6.974498,0,0,-6.9738,18.54895,145.593)"/>
<path transform="matrix(1.0001,0,0,-1,20.623162,245.22)" d="M7.08669 68.03217C7.08669 71.94608 3.91391 75.11885 0 75.11885-3.91391 75.11885-7.08669 71.94608-7.08669 68.03217-7.08669 64.11824-3.91391 60.94547 0 60.94547 3.91391 60.94547 7.08669 64.11824 7.08669 68.03217ZM0 68.03217" fill="#999999"/>
<path transform="matrix(1.0001,0,0,-1,20.623162,245.22)" stroke-width=".59776" stroke-linecap="butt" stroke-miterlimit="10" stroke-linejoin="miter" fill="none" stroke="#000000" d="M7.08669 68.03217C7.08669 71.94608 3.91391 75.11885 0 75.11885-3.91391 75.11885-7.08669 71.94608-7.08669 68.03217-7.08669 64.11824-3.91391 60.94547 0 60.94547 3.91391 60.94547 7.08669 64.11824 7.08669 68.03217ZM0 68.03217"/>
<use data-text="e" xlink:href="#font_1_5" transform="matrix(6.974498,0,0,-6.9738,18.732972,178.689)"/>
<path transform="matrix(1.0001,0,0,-1,20.623162,245.22)" d="M7.08669 34.01608C7.08669 37.93 3.91391 41.10277 0 41.10277-3.91391 41.10277-7.08669 37.93-7.08669 34.01608-7.08669 30.10216-3.91391 26.92938 0 26.92938 3.91391 26.92938 7.08669 30.10216 7.08669 34.01608ZM0 34.01608" fill="#999999"/>
<path transform="matrix(1.0001,0,0,-1,20.623162,245.22)" stroke-width=".59776" stroke-linecap="butt" stroke-miterlimit="10" stroke-linejoin="miter" fill="none" stroke="#000000" d="M7.08669 34.01608C7.08669 37.93 3.91391 41.10277 0 41.10277-3.91391 41.10277-7.08669 37.93-7.08669 34.01608-7.08669 30.10216-3.91391 26.92938 0 26.92938 3.91391 26.92938 7.08669 30.10216 7.08669 34.01608ZM0 34.01608"/>
<use data-text="f" xlink:href="#font_1_6" transform="matrix(6.974498,0,0,-6.9738,18.289925,212.947)"/>
<path transform="matrix(1.0001,0,0,-1,20.623162,245.22)" d="M92.12689 187.08844C92.12689 191.00237 88.95412 194.17514 85.04019 194.17514 81.12628 194.17514 77.9535 191.00237 77.9535 187.08844 77.9535 183.17453 81.12628 180.00176 85.04019 180.00176 88.95412 180.00176 92.12689 183.17453 92.12689 187.08844ZM85.04019 187.08844" fill="#999999"/>
<path transform="matrix(1.0001,0,0,-1,20.623162,245.22)" stroke-width=".59776" stroke-linecap="butt" stroke-miterlimit="10" stroke-linejoin="miter" fill="none" stroke="#000000" d="M92.12689 187.08844C92.12689 191.00237 88.95412 194.17514 85.04019 194.17514 81.12628 194.17514 77.9535 191.00237 77.9535 187.08844 77.9535 183.17453 81.12628 180.00176 85.04019 180.00176 88.95412 180.00176 92.12689 183.17453 92.12689 187.08844ZM85.04019 187.08844"/>
<use data-text="1" xlink:href="#font_2_1" transform="matrix(6.974498,0,0,-6.9738,103.68647,60.378999)"/>
<path transform="matrix(1.0001,0,0,-1,20.623162,245.22)" d="M92.12689 153.07236C92.12689 156.98628 88.95412 160.15906 85.04019 160.15906 81.12628 160.15906 77.9535 156.98628 77.9535 153.07236 77.9535 149.15845 81.12628 145.98567 85.04019 145.98567 88.95412 145.98567 92.12689 149.15845 92.12689 153.07236ZM85.04019 153.07236" fill="#999999"/>
<path transform="matrix(1.0001,0,0,-1,20.623162,245.22)" stroke-width=".59776" stroke-linecap="butt" stroke-miterlimit="10" stroke-linejoin="miter" fill="none" stroke="#000000" d="M92.12689 153.07236C92.12689 156.98628 88.95412 160.15906 85.04019 160.15906 81.12628 160.15906 77.9535 156.98628 77.9535 153.07236 77.9535 149.15845 81.12628 145.98567 85.04019 145.98567 88.95412 145.98567 92.12689 149.15845 92.12689 153.07236ZM85.04019 153.07236"/>
<use data-text="2" xlink:href="#font_2_2" transform="matrix(6.974498,0,0,-6.9738,103.68647,94.395008)"/>
<path transform="matrix(1.0001,0,0,-1,20.623162,245.22)" d="M92.12689 119.05627C92.12689 122.9702 88.95412 126.14297 85.04019 126.14297 81.12628 126.14297 77.9535 122.9702 77.9535 119.05627 77.9535 115.14236 81.12628 111.96959 85.04019 111.96959 88.95412 111.96959 92.12689 115.14236 92.12689 119.05627ZM85.04019 119.05627" fill="#999999"/>
<path transform="matrix(1.0001,0,0,-1,20.623162,245.22)" stroke-width=".59776" stroke-linecap="butt" stroke-miterlimit="10" stroke-linejoin="miter" fill="none" stroke="#000000" d="M92.12689 119.05627C92.12689 122.9702 88.95412 126.14297 85.04019 126.14297 81.12628 126.14297 77.9535 122.9702 77.9535 119.05627 77.9535 115.14236 81.12628 111.96959 85.04019 111.96959 88.95412 111.96959 92.12689 115.14236 92.12689 119.05627ZM85.04019 119.05627"/>
<use data-text="3" xlink:href="#font_2_3" transform="matrix(6.974498,0,0,-6.9738,103.68647,128.41101)"/>
<path transform="matrix(1.0001,0,0,-1,20.623162,245.22)" d="M92.12689 85.04019C92.12689 88.95412 88.95412 92.12689 85.04019 92.12689 81.12628 92.12689 77.9535 88.95412 77.9535 85.04019 77.9535 81.12628 81.12628 77.9535 85.04019 77.9535 88.95412 77.9535 92.12689 81.12628 92.12689 85.04019ZM85.04019 85.04019" fill="#999999"/>
<path transform="matrix(1.0001,0,0,-1,20.623162,245.22)" stroke-width=".59776" stroke-linecap="butt" stroke-miterlimit="10" stroke-linejoin="miter" fill="none" stroke="#000000" d="M92.12689 85.04019C92.12689 88.95412 88.95412 92.12689 85.04019 92.12689 81.12628 92.12689 77.9535 88.95412 77.9535 85.04019 77.9535 81.12628 81.12628 77.9535 85.04019 77.9535 88.95412 77.9535 92.12689 81.12628 92.12689 85.04019ZM85.04019 85.04019"/>
<use data-text="4" xlink:href="#font_2_4" transform="matrix(6.974498,0,0,-6.9738,103.68647,162.427)"/>
<path transform="matrix(1.0001,0,0,-1,20.623162,245.22)" d="M92.12689 51.02411C92.12689 54.93803 88.95412 58.1108 85.04019 58.1108 81.12628 58.1108 77.9535 54.93803 77.9535 51.02411 77.9535 47.1102 81.12628 43.93742 85.04019 43.93742 88.95412 43.93742 92.12689 47.1102 92.12689 51.02411ZM85.04019 51.02411" fill="#999999"/>
<path transform="matrix(1.0001,0,0,-1,20.623162,245.22)" stroke-width=".59776" stroke-linecap="butt" stroke-miterlimit="10" stroke-linejoin="miter" fill="none" stroke="#000000" d="M92.12689 51.02411C92.12689 54.93803 88.95412 58.1108 85.04019 58.1108 81.12628 58.1108 77.9535 54.93803 77.9535 51.02411 77.9535 47.1102 81.12628 43.93742 85.04019 43.93742 88.95412 43.93742 92.12689 47.1102 92.12689 51.02411ZM85.04019 51.02411"/>
<use data-text="5" xlink:href="#font_2_5" transform="matrix(6.974498,0,0,-6.9738,103.68647,196.443)"/>
<path transform="matrix(1.0001,0,0,-1,20.623162,245.22)" stroke-width=".59776" stroke-linecap="butt" stroke-miterlimit="10" stroke-linejoin="miter" fill="none" stroke="#000000" d="M7.24391 202.69101 74.59041 189.22089"/>
<path transform="matrix(.9806281,.1961,.1961196,-.98053,95.22103,55.999116)" d="M2.29138 0-1.37483 1.83311 0 0-1.37483-1.83311"/>
<path transform="matrix(1.0001,0,0,-1,20.623162,245.22)" stroke-width=".59776" stroke-linecap="butt" stroke-miterlimit="10" stroke-linejoin="miter" fill="none" stroke="#000000" d="M7.24246 171.56487 74.58916 185.03385"/>
<path transform="matrix(.98064807,-.1961,-.1961196,-.98055,95.219768,60.186159)" d="M2.29138 0-1.37483 1.83311 0 0-1.37483-1.83311"/>
<path transform="matrix(1.0001,0,0,-1,20.623162,245.22)" stroke-width=".59776" stroke-linecap="butt" stroke-miterlimit="10" stroke-linejoin="miter" fill="none" stroke="#000000" d="M7.2427 137.54164 74.58925 151.01074"/>
<path transform="matrix(.98064807,-.1961,-.1961196,-.98055,95.21986,94.20926)" d="M2.29138 0-1.37483 1.83311 0 0-1.37483-1.83311"/>
<path transform="matrix(1.0001,0,0,-1,20.623162,245.22)" stroke-width=".59776" stroke-linecap="butt" stroke-miterlimit="10" stroke-linejoin="miter" fill="none" stroke="#000000" d="M7.24359 100.6213 74.58998 87.1514"/>
<path transform="matrix(.9806281,.1961,.1961196,-.98053,95.220607,158.0686)" d="M2.29138 0-1.37483 1.83311 0 0-1.37483-1.83311"/>
<path transform="matrix(1.0001,0,0,-1,20.623162,245.22)" stroke-width=".59776" stroke-linecap="butt" stroke-miterlimit="10" stroke-linejoin="miter" fill="none" stroke="#000000" d="M7.24292 69.49512 74.58948 82.96434"/>
<path transform="matrix(.98064807,-.1961,-.1961196,-.98055,95.220088,162.25566)" d="M2.29138 0-1.37483 1.83311 0 0-1.37483-1.83311"/>
<path transform="matrix(1.0001,0,0,-1,20.623162,245.22)" stroke-width=".59776" stroke-linecap="butt" stroke-miterlimit="10" stroke-linejoin="miter" fill="none" stroke="#000000" d="M6.33385 37.82352 75.90317 79.5649"/>
<path transform="matrix(.85755577,-.51448,-.51453146,-.85747,96.53392,165.65512)" d="M2.29138 0-1.37483 1.83311 0 0-1.37483-1.83311"/>
<path transform="matrix(1.0001,0,0,-1,20.623162,245.22)" stroke-width=".59776" stroke-linecap="butt" stroke-miterlimit="10" stroke-linejoin="miter" fill="none" stroke="#929292" d="M14.44035 221.85939H-14.44035C-16.6413 221.85939-18.42546 220.07521-18.42546 217.87429V20.33003C-18.42546 18.12909-16.6413 16.34492-14.44035 16.34492H14.44035C16.6413 16.34492 18.42546 18.12909 18.42546 20.33003V217.87429C18.42546 220.07521 16.6413 221.85939 14.44035 221.85939ZM-18.42546 16.34492"/>
<path transform="matrix(1.0001,0,0,-1,20.623162,245.22)" stroke-width=".59776" stroke-linecap="butt" stroke-miterlimit="10" stroke-linejoin="miter" fill="none" stroke="#929292" d="M99.51332 197.85498H70.6326C68.43166 197.85498 66.64749 196.07082 66.64749 193.86988V44.3344C66.64749 42.13347 68.43166 40.34929 70.6326 40.34929H99.51332C101.71425 40.34929 103.49843 42.13347 103.49843 44.3344V193.86988C103.49843 196.07082 101.71425 197.85498 99.51332 197.85498ZM66.64749 40.34929"/>
<path transform="matrix(1.0001,0,0,-1,20.623162,245.22)" stroke-width=".59776" stroke-linecap="butt" stroke-miterlimit="10" stroke-linejoin="miter" fill="none" stroke="#929292" d="M8.77086 214.87946H-8.77086C-10.9718 214.87946-12.75597 213.09529-12.75597 210.89435V163.42678C-12.75597 161.22583-10.9718 159.44167-8.77086 159.44167H8.77086C10.9718 159.44167 12.75597 161.22583 12.75597 163.42678V210.89435C12.75597 213.09529 10.9718 214.87946 8.77086 214.87946ZM-12.75597 159.44167"/>
<path transform="matrix(1.0001,0,0,-1,20.623162,245.22)" stroke-width=".59776" stroke-linecap="butt" stroke-miterlimit="10" stroke-linejoin="miter" fill="none" stroke="#929292" d="M8.77086 146.82431H-8.77086C-10.9718 146.82431-12.75597 145.04015-12.75597 142.8392V129.3943C-12.75597 127.19336-10.9718 125.4092-8.77086 125.4092H8.77086C10.9718 125.4092 12.75597 127.19336 12.75597 129.3943V142.8392C12.75597 145.04015 10.9718 146.82431 8.77086 146.82431ZM-12.75597 125.4092"/>
<path transform="matrix(1.0001,0,0,-1,20.623162,245.22)" stroke-width=".59776" stroke-linecap="butt" stroke-miterlimit="10" stroke-linejoin="miter" fill="none" stroke="#929292" d="M8.77086 112.78856H-8.77086C-10.9718 112.78856-12.75597 111.0044-12.75597 108.80345V27.31325C-12.75597 25.1123-10.9718 23.32814-8.77086 23.32814H8.77086C10.9718 23.32814 12.75597 25.1123 12.75597 27.31325V108.80345C12.75597 111.0044 10.9718 112.78856 8.77086 112.78856ZM-12.75597 23.32814"/>
<use data-text="X" xlink:href="#font_3_2" transform="matrix(9.963596,0,0,-9.9626,16.104706,19.015)"/>
<use data-text="Y" xlink:href="#font_3_3" transform="matrix(9.963596,0,0,-9.9626,101.672267,41.126008)"/>
<path transform="matrix(1.0001,0,0,-1,20.623162,245.22)" stroke-width=".59776" stroke-linecap="butt" stroke-miterlimit="10" stroke-linejoin="miter" fill="none" stroke="#000000" d="M8.13884 231.90074C35.13773 239.66837 57.71255 234.06087 75.5721 216.84467"/>
<path transform="matrix(.720012,.694,.69406947,-.71994,96.202808,28.37532)" d="M2.29138 0-1.37483 1.83311 0 0-1.37483-1.83311"/>
<use data-text="&#x03c6;" xlink:href="#font_3_1" transform="matrix(9.963596,0,0,-9.9626,69.82608,6.2070009)"/>
</svg>
