<svg xmlns="http://www.w3.org/2000/svg" xmlns:xlink="http://www.w3.org/1999/xlink" version="1.1" width="130pt" height="65pt" viewBox="0 0 130 65">
<defs>
<path id="font_1_2" d="M.45999146 .31976319C.45999146 .39982606 .45498658 .47988893 .41999818 .5539398 .37399293 .65000918 .2919922 .6660156 .25 .6660156 .18998719 .6660156 .116989139 .64001467 .07598877 .54693606 .04399109 .47789 .038986207 .39982606 .038986207 .31976319 .038986207 .24472046 .042999269 .15464783 .083999637 .07859802 .1269989-.0024719239 .19999695-.022460938 .24899292-.022460938 .30299378-.022460938 .3789978-.0014648438 .4229889 .09359741 .45498658 .16265869 .45999146 .2407074 .45999146 .31976319M.24899292-.00047302247C.20999146-.00047302247 .15098572 .024551392 .1329956 .12062073 .12199402 .18066406 .12199402 .2727356 .12199402 .3317871 .12199402 .39582826 .12199402 .46188355 .12998963 .5159149 .14898682 .63500979 .22399903 .64401248 .24899292 .64401248 .28199769 .64401248 .34799195 .6259918 .36698915 .52693179 .3769989 .47088624 .3769989 .39482118 .3769989 .3317871 .3769989 .25672914 .3769989 .18867493 .3659973 .12461853 .35099793 .029556275 .2939911-.00047302247 .24899292-.00047302247Z"/>
<path id="font_2_1" d="M.37298585 .37835694C.35499574 .41537477 .32598878 .4423828 .2809906 .4423828 .1639862 .4423828 .039993287 .29533387 .039993287 .14929199 .039993287 .055267335 .09498596-.0107421879 .17298889-.0107421879 .19299317-.0107421879 .24299622-.0067443849 .30299378 .06427002 .31098939 .022247315 .34599305-.0107421879 .3939972-.0107421879 .42900086-.0107421879 .45199586 .012252808 .46798707 .044265748 .4850006 .08027649 .49798585 .14129639 .49798585 .14329529 .49798585 .1532898 .4889984 .1532898 .48599244 .1532898 .47599793 .1532898 .47499085 .14929199 .47200013 .13528443 .45498658 .07026672 .43699647 .011245728 .3959961 .011245728 .36898805 .011245728 .3659973 .037261964 .3659973 .057266237 .3659973 .07926941 .36799623 .08728027 .3789978 .13128662 .3899994 .17329407 .3919983 .18330384 .40098573 .22131348L.43699647 .36135865C.44400025 .38935853 .44400025 .39135743 .44400025 .39537049 .44400025 .41236878 .43199159 .42237855 .4149933 .42237855 .3909912 .42237855 .37599183 .4003601 .37298585 .37835694M.30799867 .119277957C.30299378 .10127258 .30299378 .09927368 .28799439 .08227539 .24398804 .027252198 .20298767 .011245728 .1749878 .011245728 .125 .011245728 .11099243 .06626892 .11099243 .105285648 .11099243 .1552887 .14299011 .27833558 .1659851 .32434083 .19699097 .38336183 .24198914 .42037965 .28199769 .42037965 .34700013 .42037965 .36099244 .3383484 .36099244 .33235169 .36099244 .32633973 .35899354 .32034303 .35798646 .31533814L.30799867 .119277957Z"/>
<path id="font_2_2" d="M.23899842 .68333438C.23899842 .6843262 .23899842 .69433596 .22599793 .69433596 .20298767 .69433596 .12998963 .6863251 .10398865 .6843262 .09599304 .68333438 .084991458 .6823273 .084991458 .6643219 .084991458 .6523285 .09399414 .6523285 .10899353 .6523285 .15699768 .6523285 .15899658 .6453247 .15899658 .6353302 .15899658 .6283264 .1499939 .5943451 .14498902 .573349L.06298828 .24731446C.050994874 .1973114 .04699707 .18130493 .04699707 .14628601 .04699707 .05126953 .099990848-.0107421879 .17399597-.0107421879 .2919922-.0107421879 .4149933 .1382904 .4149933 .28233338 .4149933 .37335206 .3619995 .4423828 .28199769 .4423828 .23599243 .4423828 .19499207 .41337586 .16499329 .38235475L.23899842 .68333438M.14498902 .30534364C.15098572 .3273468 .15098572 .3293457 .1599884 .3403473 .20899964 .405365 .2539978 .42037965 .27999879 .42037965 .31599427 .42037965 .34298707 .3903656 .34298707 .32633973 .34298707 .26733399 .30999757 .15229798 .2919922 .11428833 .25898744 .04725647 .21299744 .011245728 .17399597 .011245728 .13999939 .011245728 .10699463 .038253786 .10699463 .11227417 .10699463 .13128662 .10699463 .15029907 .12298584 .21331787L.14498902 .30534364Z"/>
<path id="font_1_1" d="M.40899659 .23046875H.6879883C.70199587 .23046875 .72099307 .23046875 .72099307 .25045777 .72099307 .27046205 .70199587 .27046205 .6879883 .27046205H.40899659V.5500183C.40899659 .56399539 .40899659 .5830078 .3889923 .5830078 .36898805 .5830078 .36898805 .56399539 .36898805 .5500183V.27046205H.08898926C.07499695 .27046205 .055999757 .27046205 .055999757 .25045777 .055999757 .23046875 .07499695 .23046875 .08898926 .23046875H.36898805V-.05000305C.36898805-.06401062 .36898805-.08300781 .3889923-.08300781 .40899659-.08300781 .40899659-.06401062 .40899659-.05000305V.23046875Z"/>
<path id="font_3_1" d="M.15899658 .71398928C.15899658 .7319946 .15899658 .75 .13899231 .75 .11898804 .75 .11898804 .7319946 .11898804 .71398928V-.21400452C.11898804-.23200989 .11898804-.25 .13899231-.25 .15899658-.25 .15899658-.23200989 .15899658-.21400452V.71398928Z"/>
</defs>
<path transform="matrix(1.00009,0,0,-1,65.08124,27.418999)" stroke-width=".79701" stroke-linecap="butt" stroke-miterlimit="10" stroke-linejoin="miter" fill="none" stroke="#000000" d="M-61.19003 0H61.19003"/>
<path transform="matrix(-1.00009,-0,0,1,3.8857003,27.418999)" d="M2.59026 0-1.55415 2.0722 0 0-1.55415-2.0722"/>
<path transform="matrix(1.00009,0,0,-1,126.27678,27.418999)" d="M2.59026 0-1.55415 2.0722 0 0-1.55415-2.0722"/>
<path transform="matrix(1.00009,0,0,-1,65.08124,27.418999)" stroke-width=".3985" stroke-linecap="butt" stroke-miterlimit="10" stroke-linejoin="miter" fill="none" stroke="#000000" d="M-42.5202 2.98883V-2.98883"/>
<use data-text="0" xlink:href="#font_1_2" transform="matrix(9.963496,0,0,-9.9626,20.066185,40.369)"/>
<path transform="matrix(1.00009,0,0,-1,65.08124,27.418999)" stroke-width=".3985" stroke-linecap="butt" stroke-miterlimit="10" stroke-linejoin="miter" fill="none" stroke="#000000" d="M-12.75616 2.98883V-2.98883"/>
<use data-text="a" xlink:href="#font_2_1" transform="matrix(9.963496,0,0,-9.9626,49.690858,40.369)"/>
<path transform="matrix(1.00009,0,0,-1,65.08124,27.418999)" stroke-width=".3985" stroke-linecap="butt" stroke-miterlimit="10" stroke-linejoin="miter" fill="none" stroke="#000000" d="M12.75616 2.98883V-2.98883"/>
<use data-text="b" xlink:href="#font_2_2" transform="matrix(9.963496,0,0,-9.9626,75.700199,40.369)"/>
<path transform="matrix(1.00009,0,0,-1,65.08124,27.418999)" stroke-width=".3985" stroke-linecap="butt" stroke-miterlimit="10" stroke-linejoin="miter" fill="none" stroke="#000000" d="M42.5202 2.98883V-2.98883"/>
<use data-text="a" xlink:href="#font_2_1" transform="matrix(9.963496,0,0,-9.9626,96.74509,40.369)"/>
<use data-text="+" xlink:href="#font_1_1" transform="matrix(9.963496,0,0,-9.9626,104.22575,40.369)"/>
<use data-text="b" xlink:href="#font_2_2" transform="matrix(9.963496,0,0,-9.9626,114.188648,40.369)"/>
<path transform="matrix(1.00009,0,0,-1,65.08124,27.418999)" stroke-width=".3985" stroke-linecap="butt" stroke-miterlimit="10" stroke-linejoin="miter" fill="none" stroke="#000000" d="M-42.5202 6.37776C-41.77303 7.8722-40.02951 8.86845-37.53882 8.86845H-4.98138C-2.49069 8.86845-.74718 9.86472 0 11.35915 .74718 9.86472 2.49069 8.86845 4.98138 8.86845H37.53882C40.02951 8.86845 41.77303 7.8722 42.5202 6.37776"/>
<use data-text="|" xlink:href="#font_3_1" transform="matrix(9.963496,0,0,-9.9626,51.45301,9.360998)"/>
<use data-text="a" xlink:href="#font_2_1" transform="matrix(9.963496,0,0,-9.9626,54.220254,9.360998)"/>
<use data-text="+" xlink:href="#font_1_1" transform="matrix(9.963496,0,0,-9.9626,61.70092,9.360998)"/>
<use data-text="b" xlink:href="#font_2_2" transform="matrix(9.963496,0,0,-9.9626,71.66482,9.360998)"/>
<use data-text="|" xlink:href="#font_3_1" transform="matrix(9.963496,0,0,-9.9626,75.94019,9.360998)"/>
<path transform="matrix(1.00009,0,0,-1,65.08124,27.418999)" stroke-width=".3985" stroke-linecap="butt" stroke-miterlimit="10" stroke-linejoin="miter" fill="none" stroke="#000000" d="M12.75616-17.00781C12.00899-18.50224 10.26547-19.4985 7.77478-19.4985H-9.90062C-12.39131-19.4985-14.13483-20.49477-14.882-21.9892-15.62918-20.49477-17.3727-19.4985-19.86339-19.4985H-37.53882C-40.02951-19.4985-41.77303-18.50224-42.5202-17.00781"/>
<use data-text="|" xlink:href="#font_3_1" transform="matrix(9.963496,0,0,-9.9626,45.292459,61.474)"/>
<use data-text="b" xlink:href="#font_2_2" transform="matrix(9.963496,0,0,-9.9626,48.0597,61.474)"/>
<use data-text="|" xlink:href="#font_3_1" transform="matrix(9.963496,0,0,-9.9626,52.336084,61.474)"/>
<path transform="matrix(1.00009,0,0,-1,65.08124,27.418999)" stroke-width=".3985" stroke-linecap="butt" stroke-miterlimit="10" stroke-linejoin="miter" fill="none" stroke="#000000" d="M42.5202-17.00781C41.77303-18.50224 40.02951-19.4985 37.53882-19.4985H32.61958C30.12889-19.4985 28.38538-20.49477 27.6382-21.9892 26.89102-20.49477 25.1475-19.4985 22.65681-19.4985H17.73755C15.24686-19.4985 13.50334-18.50224 12.75616-17.00781"/>
<use data-text="|" xlink:href="#font_3_1" transform="matrix(9.963496,0,0,-9.9626,87.32124,61.474)"/>
<use data-text="a" xlink:href="#font_2_1" transform="matrix(9.963496,0,0,-9.9626,90.088489,61.474)"/>
<use data-text="|" xlink:href="#font_3_1" transform="matrix(9.963496,0,0,-9.9626,95.354969,61.474)"/>
</svg>
