<svg xmlns="http://www.w3.org/2000/svg" xmlns:xlink="http://www.w3.org/1999/xlink" version="1.1" width="130pt" height="62pt" viewBox="0 0 130 62">
<defs>
<path id="font_1_2" d="M.23899842 .68333438C.23899842 .6843262 .23899842 .69433596 .22599793 .69433596 .20298767 .69433596 .12998963 .6863251 .10398865 .6843262 .09599304 .68333438 .084991458 .6823273 .084991458 .6643219 .084991458 .6523285 .09399414 .6523285 .10899353 .6523285 .15699768 .6523285 .15899658 .6453247 .15899658 .6353302 .15899658 .6283264 .1499939 .5943451 .14498902 .573349L.06298828 .24731446C.050994874 .1973114 .04699707 .18130493 .04699707 .14628601 .04699707 .05126953 .099990848-.0107421879 .17399597-.0107421879 .2919922-.0107421879 .4149933 .1382904 .4149933 .28233338 .4149933 .37335206 .3619995 .4423828 .28199769 .4423828 .23599243 .4423828 .19499207 .41337586 .16499329 .38235475L.23899842 .68333438M.14498902 .30534364C.15098572 .3273468 .15098572 .3293457 .1599884 .3403473 .20899964 .405365 .2539978 .42037965 .27999879 .42037965 .31599427 .42037965 .34298707 .3903656 .34298707 .32633973 .34298707 .26733399 .30999757 .15229798 .2919922 .11428833 .25898744 .04725647 .21299744 .011245728 .17399597 .011245728 .13999939 .011245728 .10699463 .038253786 .10699463 .11227417 .10699463 .13128662 .10699463 .15029907 .12298584 .21331787L.14498902 .30534364Z"/>
<path id="font_2_1" d="M.40899659 .23046875H.6879883C.70199587 .23046875 .72099307 .23046875 .72099307 .25045777 .72099307 .27046205 .70199587 .27046205 .6879883 .27046205H.40899659V.5500183C.40899659 .56399539 .40899659 .5830078 .3889923 .5830078 .36898805 .5830078 .36898805 .56399539 .36898805 .5500183V.27046205H.08898926C.07499695 .27046205 .055999757 .27046205 .055999757 .25045777 .055999757 .23046875 .07499695 .23046875 .08898926 .23046875H.36898805V-.05000305C.36898805-.06401062 .36898805-.08300781 .3889923-.08300781 .40899659-.08300781 .40899659-.06401062 .40899659-.05000305V.23046875Z"/>
<path id="font_1_3" d="M.08799744 .059265138C.084991458 .044265748 .07899475 .021255494 .07899475 .01625061 .07899475-.0017547608 .09298706-.0107421879 .10798645-.0107421879 .11999512-.0107421879 .13798523-.002746582 .14498902 .01725769 .14698792 .021255494 .18099976 .15730286 .18499756 .17530823 .19299317 .20831299 .21099854 .27833558 .21699524 .30534364 .22099304 .31835938 .24899292 .36535646 .272995 .38734437 .2809906 .39434815 .30999757 .42037965 .35299684 .42037965 .3789978 .42037965 .3939972 .4083557 .394989 .4083557 .36499024 .40335084 .34298707 .37934876 .34298707 .35334779 .34298707 .33735658 .35398866 .31835938 .3809967 .31835938 .4079895 .31835938 .43598939 .34135438 .43598939 .37734986 .43598939 .41235353 .4039917 .4423828 .35299684 .4423828 .28799439 .4423828 .24398804 .39335633 .22499085 .36535646 .21699524 .4103546 .18099976 .4423828 .13398743 .4423828 .08799744 .4423828 .068984989 .40335084 .05999756 .38534547 .041992189 .35134889 .0289917 .29133607 .0289917 .28834535 .0289917 .27833558 .038986207 .27833558 .040985109 .27833558 .050994874 .27833558 .051986696 .27934266 .057998659 .30134584 .07499695 .37234498 .09498596 .42037965 .1309967 .42037965 .147995 .42037965 .1619873 .41235353 .1619873 .37435914 .1619873 .35334779 .15899658 .3423462 .1459961 .29034425L.08799744 .059265138Z"/>
<path id="font_3_1" d="M.6589966 .23046875C.6759949 .23046875 .69400027 .23046875 .69400027 .25045777 .69400027 .27046205 .6759949 .27046205 .6589966 .27046205H.117996219C.100997928 .27046205 .08299255 .27046205 .08299255 .25045777 .08299255 .23046875 .100997928 .23046875 .117996219 .23046875H.6589966Z"/>
<path id="font_1_1" d="M.37298585 .37835694C.35499574 .41537477 .32598878 .4423828 .2809906 .4423828 .1639862 .4423828 .039993287 .29533387 .039993287 .14929199 .039993287 .055267335 .09498596-.0107421879 .17298889-.0107421879 .19299317-.0107421879 .24299622-.0067443849 .30299378 .06427002 .31098939 .022247315 .34599305-.0107421879 .3939972-.0107421879 .42900086-.0107421879 .45199586 .012252808 .46798707 .044265748 .4850006 .08027649 .49798585 .14129639 .49798585 .14329529 .49798585 .1532898 .4889984 .1532898 .48599244 .1532898 .47599793 .1532898 .47499085 .14929199 .47200013 .13528443 .45498658 .07026672 .43699647 .011245728 .3959961 .011245728 .36898805 .011245728 .3659973 .037261964 .3659973 .057266237 .3659973 .07926941 .36799623 .08728027 .3789978 .13128662 .3899994 .17329407 .3919983 .18330384 .40098573 .22131348L.43699647 .36135865C.44400025 .38935853 .44400025 .39135743 .44400025 .39537049 .44400025 .41236878 .43199159 .42237855 .4149933 .42237855 .3909912 .42237855 .37599183 .4003601 .37298585 .37835694M.30799867 .119277957C.30299378 .10127258 .30299378 .09927368 .28799439 .08227539 .24398804 .027252198 .20298767 .011245728 .1749878 .011245728 .125 .011245728 .11099243 .06626892 .11099243 .105285648 .11099243 .1552887 .14299011 .27833558 .1659851 .32434083 .19699097 .38336183 .24198914 .42037965 .28199769 .42037965 .34700013 .42037965 .36099244 .3383484 .36099244 .33235169 .36099244 .32633973 .35899354 .32034303 .35798646 .31533814L.30799867 .119277957Z"/>
<path id="font_3_2" d="M.15899658 .71398928C.15899658 .7319946 .15899658 .75 .13899231 .75 .11898804 .75 .11898804 .7319946 .11898804 .71398928V-.21400452C.11898804-.23200989 .11898804-.25 .13899231-.25 .15899658-.25 .15899658-.23200989 .15899658-.21400452V.71398928Z"/>
</defs>
<path transform="matrix(1.00009,0,0,-1,64.985507,24.418999)" stroke-width=".79701" stroke-linecap="butt" stroke-miterlimit="10" stroke-linejoin="miter" fill="none" stroke="#000000" d="M-61.19003 0H61.19003"/>
<path transform="matrix(-1.00009,-0,0,1,3.7899667,24.418999)" d="M2.59026 0-1.55415 2.0722 0 0-1.55415-2.0722"/>
<path transform="matrix(1.00009,0,0,-1,126.181049,24.418999)" d="M2.59026 0-1.55415 2.0722 0 0-1.55415-2.0722"/>
<path transform="matrix(1.00009,0,0,-1,64.985507,24.418999)" stroke-width=".3985" stroke-linecap="butt" stroke-miterlimit="10" stroke-linejoin="miter" fill="none" stroke="#000000" d="M0 2.98883V-2.98883"/>
<use data-text="b" xlink:href="#font_1_2" transform="matrix(9.963496,0,0,-9.9626,62.847314,37.369)"/>
<path transform="matrix(1.00009,0,0,-1,64.985507,24.418999)" stroke-width=".3985" stroke-linecap="butt" stroke-miterlimit="10" stroke-linejoin="miter" fill="none" stroke="#000000" d="M53.15024 2.98883V-2.98883"/>
<use data-text="b" xlink:href="#font_1_2" transform="matrix(9.963496,0,0,-9.9626,107.52733,37.369)"/>
<use data-text="+" xlink:href="#font_2_1" transform="matrix(9.963496,0,0,-9.9626,114.01691,37.369)"/>
<use data-text="r" xlink:href="#font_1_3" transform="matrix(9.963496,0,0,-9.9626,123.980808,37.369)"/>
<path transform="matrix(1.00009,0,0,-1,64.985507,24.418999)" stroke-width=".3985" stroke-linecap="butt" stroke-miterlimit="10" stroke-linejoin="miter" fill="none" stroke="#000000" d="M-53.15024 2.98883V-2.98883"/>
<use data-text="b" xlink:href="#font_1_2" transform="matrix(9.963496,0,0,-9.9626,1.2177582,37.369)"/>
<use data-text="&#x2212;" xlink:href="#font_3_1" transform="matrix(9.963496,0,0,-9.9626,7.7073366,37.369)"/>
<use data-text="r" xlink:href="#font_1_3" transform="matrix(9.963496,0,0,-9.9626,17.671235,37.369)"/>
<path transform="matrix(1.00009,0,0,-1,64.985507,24.418999)" stroke-width=".3985" stroke-linecap="butt" stroke-miterlimit="10" stroke-linejoin="miter" fill="none" stroke="#000000" d="M-29.76399 2.98883V-2.98883"/>
<use data-text="a" xlink:href="#font_1_1" transform="matrix(9.963496,0,0,-9.9626,32.585588,37.369)"/>
<path transform="matrix(1.00009,0,0,-1,64.985507,24.418999)" stroke-width=".3985" stroke-linecap="butt" stroke-miterlimit="10" stroke-linejoin="miter" fill="none" stroke="#000000" d="M0 6.37776C.74718 7.8722 2.49069 8.86845 4.98138 8.86845H21.59373C24.08443 8.86845 25.82794 9.86472 26.57512 11.35915 27.3223 9.86472 29.06581 8.86845 31.5565 8.86845H48.16885C50.65955 8.86845 52.40306 7.8722 53.15024 6.37776"/>
<use data-text="r" xlink:href="#font_1_3" transform="matrix(9.963496,0,0,-9.9626,89.17668,6.360998)"/>
<path transform="matrix(1.00009,0,0,-1,64.985507,24.418999)" stroke-width=".3985" stroke-linecap="butt" stroke-miterlimit="10" stroke-linejoin="miter" fill="none" stroke="#000000" d="M-53.15024 6.37776C-52.40306 7.8722-50.65955 8.86845-48.16885 8.86845H-31.5565C-29.06581 8.86845-27.3223 9.86472-26.57512 11.35915-25.82794 9.86472-24.08443 8.86845-21.59373 8.86845H-4.98138C-2.49069 8.86845-.74718 7.8722 0 6.37776"/>
<use data-text="r" xlink:href="#font_1_3" transform="matrix(9.963496,0,0,-9.9626,36.021898,6.360998)"/>
<path transform="matrix(1.00009,0,0,-1,64.985507,24.418999)" stroke-width=".3985" stroke-linecap="butt" stroke-miterlimit="10" stroke-linejoin="miter" fill="none" stroke="#000000" d="M0-17.00781C-.74718-18.50224-2.49069-19.4985-4.98138-19.4985H-9.9006C-12.3913-19.4985-14.13481-20.49477-14.88199-21.9892-15.62917-20.49477-17.37268-19.4985-19.86337-19.4985H-24.78261C-27.2733-19.4985-29.01682-18.50224-29.76399-17.00781"/>
<use data-text="|" xlink:href="#font_3_2" transform="matrix(9.963496,0,0,-9.9626,36.473939,58.474)"/>
<use data-text="a" xlink:href="#font_1_1" transform="matrix(9.963496,0,0,-9.9626,39.24118,58.474)"/>
<use data-text="&#x2212;" xlink:href="#font_3_1" transform="matrix(9.963496,0,0,-9.9626,46.721849,58.474)"/>
<use data-text="b" xlink:href="#font_1_2" transform="matrix(9.963496,0,0,-9.9626,56.685747,58.474)"/>
<use data-text="|" xlink:href="#font_3_2" transform="matrix(9.963496,0,0,-9.9626,60.96112,58.474)"/>
</svg>
