<svg xmlns="http://www.w3.org/2000/svg" xmlns:xlink="http://www.w3.org/1999/xlink" version="1.1" width="315pt" height="126pt" viewBox="0 0 315 126">
<defs>
<path id="font_1_5" d="M.5289917 .1640625V.20005799H.41799928V.64582827C.41799928 .66682437 .41799928 .6738281 .3959961 .6738281 .38398744 .6738281 .37998963 .6738281 .36999513 .65982058L.038986207 .20005799V.1640625H.33299256V.08201599C.33299256 .04800415 .33299256 .035995485 .2519989 .035995485H.22499085V0C.2749939 .0019989014 .33898927 .0039978029 .375 .0039978029 .4119873 .0039978029 .47599793 .0019989014 .526001 0V.035995485H.49899293C.41799928 .035995485 .41799928 .04800415 .41799928 .08201599V.1640625H.5289917M.33999635 .5658722V.20005799H.07598877L.33999635 .5658722Z"/>
<path id="font_1_4" d="M.272995 .33428956C.35099793 .33428956 .40699769 .2803192 .40699769 .1733551 .40699769 .04940796 .33499146 .012466431 .2769928 .012466431 .23699951 .012466431 .14898682 .0234375 .10699463 .082351688 .1539917 .084350589 .16499329 .11735535 .16499329 .13835144 .16499329 .17034912 .14099121 .19335938 .10998535 .19335938 .08198547 .19335938 .053985597 .17634583 .053985597 .13534546 .053985597 .041412355 .1579895-.01953125 .2789917-.01953125 .41799928-.01953125 .5139923 .07336426 .5139923 .1733551 .5139923 .2513275 .44999696 .32929994 .33999635 .35229493 .44499208 .39024354 .48298646 .4650879 .48298646 .5260773 .48298646 .60505679 .3919983 .6640625 .2809906 .6640625 .16999817 .6640625 .084991458 .61006167 .084991458 .5300751 .084991458 .49606324 .10699463 .47706605 .13699341 .47706605 .16799927 .47706605 .18798828 .5000763 .18798828 .5280762 .18798828 .5570679 .16799927 .57806399 .13699341 .5800781 .17199707 .62405398 .24099732 .63505557 .27799989 .63505557 .32299806 .63505557 .38598634 .6130676 .38598634 .5260773 .38598634 .48406983 .37199403 .43814088 .34599305 .4072113 .31298829 .36927796 .2849884 .3672943 .23498535 .36428834 .20999146 .3623047 .20799256 .3623047 .20298767 .3612976 .20098877 .3612976 .19299317 .3592987 .19299317 .34829713 .19299317 .33428956 .20199585 .33428956 .21899414 .33428956H.272995Z"/>
<path id="font_1_3" d="M.5049896 .18203736H.47099305C.46798707 .16001892 .45799256 .100997928 .44499208 .09098816 .43699647 .084991458 .3600006 .084991458 .34599305 .084991458H.1619873C.2669983 .17803955 .3019867 .20603943 .3619995 .25306703 .43598939 .312088 .5049896 .374115 .5049896 .46914674 .5049896 .5900879 .39898683 .6640625 .2709961 .6640625 .14698792 .6640625 .06298828 .57710269 .06298828 .4851532 .06298828 .43414308 .10598755 .42915345 .115997318 .42915345 .13999939 .42915345 .16899109 .44615174 .16899109 .48214723 .16899109 .5001526 .1619873 .53515627 .10998535 .53515627 .14099121 .6060791 .20899964 .62805178 .2559967 .62805178 .35598756 .62805178 .4079895 .5501404 .4079895 .46914674 .4079895 .38212586 .34599305 .3130951 .31399537 .27708436L.07299805 .038986207C.06298828 .02999878 .06298828 .027999878 .06298828 0H.47499085L.5049896 .18203736Z"/>
<path id="font_1_2" d="M.33499146 .63612368C.33499146 .6630554 .33299256 .6640625 .30499269 .6640625 .24099732 .6014404 .1499939 .6004486 .10899353 .6004486V.5644531C.1329956 .5644531 .19898987 .5644531 .2539978 .592453V.08203125C.2539978 .04899597 .2539978 .035995485 .1539917 .035995485H.115997318V0C.13398743 .0009918213 .25698854 .0039978029 .2939911 .0039978029 .32499696 .0039978029 .45098878 .0009918213 .47299195 0V.035995485H.43499757C.33499146 .035995485 .33499146 .04899597 .33499146 .08203125V.63612368Z"/>
<path id="font_1_1" d="M.5159912 .31925965C.5159912 .42918397 .5029907 .50813296 .45700074 .5780945 .42599488 .62405398 .3639984 .6640625 .28399659 .6640625 .051986696 .6640625 .051986696 .39120484 .051986696 .31925965 .051986696 .2472992 .051986696-.01953125 .28399659-.01953125 .5159912-.01953125 .5159912 .2472992 .5159912 .31925965M.28399659 .008468628C.23799134 .008468628 .1769867 .035446168 .15699768 .117385867 .14299011 .17634583 .14299011 .25830079 .14299011 .33224488 .14299011 .40519715 .14299011 .4811554 .1579895 .53611758 .1789856 .6150665 .24299622 .63604739 .28399659 .63604739 .33799745 .63604739 .3899994 .6030731 .4079895 .545105 .42399598 .4911499 .4249878 .41918946 .4249878 .33224488 .4249878 .25830079 .4249878 .18434143 .4119873 .12138367 .3919983 .030441285 .32398988 .008468628 .28399659 .008468628Z"/>
<path id="font_2_1" d="M.74398806 .2263794C.7599945 .2263794 .7839966 .2263794 .7839966 .25038148 .7839966 .27539063 .7609863 .27539063 .74398806 .27539063H.147995C.13198853 .27539063 .10798645 .27539063 .10798645 .25138856 .10798645 .2263794 .1309967 .2263794 .147995 .2263794H.74398806Z"/>
<path id="font_2_2" d="M.22698975 .25035096C.22698975 .28634645 .19699097 .3083496 .16999817 .3083496 .13699341 .3083496 .11199951 .2813568 .11199951 .25135804 .11199951 .21534729 .14199829 .19335938 .16899109 .19335938 .20199585 .19335938 .22698975 .22035218 .22698975 .25035096Z"/>
<path id="font_3_1" d="M.59599307 .6485596C.6049957 .66156008 .6049957 .66355898 .6049957 .66656497 .6049957 .6845703 .58999636 .6845703 .57199099 .6845703H.11399841C.08198547 .6845703 .08198547 .68156436 .07899475 .65556338L.06399536 .5206604 .06199646 .5076599C.06199646 .4936676 .07299805 .48867799 .07998657 .48867799 .08898926 .48867799 .09498596 .4956665 .09700012 .5036621 .100997928 .5276489 .10998535 .57162478 .17098999 .6095886 .22799683 .64656069 .2979889 .64956668 .33198548 .64956668H.41299439L.036987306 .035995485C.027999878 .022994996 .027999878 .020996094 .027999878 .017990113 .027999878 0 .04399109 0 .06199646 0H.57499697C.6049957 0 .6049957 .0019989014 .60899356 .027999878L.6359863 .22485352C.6359863 .2358551 .6269989 .24284363 .61898806 .24284363 .60398867 .24284363 .60198977 .23284912 .598999 .21287537 .58200076 .13092041 .5039978 .034988405 .3619995 .034988405H.21998596L.59599307 .6485596M.11299133 .64956668H.1659851V.6485596C.13899231 .63357546 .11999512 .6155853 .10798645 .604599L.11299133 .64956668M.45399476 .64956668H.55599978L.1789856 .034988405H.07699585L.45399476 .64956668M.5069885 .035995485C.5349884 .051986696 .5609894 .07395935 .58399966 .10194397 .58200076 .081954959 .5799866 .07096863 .57499697 .034988405H.5069885V.035995485Z"/>
<path id="font_4_1" d="M.5970001 .5686493 .61099246 .5826416C.6409912 .6126251 .673996 .64660647 .74198916 .6516113 .7529907 .65260317 .7619934 .65260317 .7619934 .6706085 .7619934 .6786041 .7569885 .6826172 .7489929 .6826172 .72299197 .6826172 .69400027 .6796112 .6669922 .6796112 .6339874 .6796112 .598999 .6826172 .5669861 .6826172 .5609894 .6826172 .5479889 .6826172 .5479889 .66360476 .5479889 .65260317 .55799868 .6516113 .5629883 .6516113 .56999209 .6516113 .598999 .6496124 .598999 .62861636 .598999 .6116333 .57598879 .5856476 .57199099 .5806427L.33999635 .31381227 .22999573 .6106262C.22399903 .62461856 .22399903 .62661746 .22399903 .6276245 .22399903 .6516113 .272995 .6516113 .2829895 .6516113 .29699708 .6516113 .30699159 .6516113 .30699159 .6716156 .30699159 .6826172 .29499818 .6826172 .2919922 .6826172 .2639923 .6826172 .19400025 .6796112 .1659851 .6796112 .14099121 .6796112 .07899475 .6826172 .053985597 .6826172 .04798889 .6826172 .034988405 .6826172 .034988405 .6626129 .034988405 .6516113 .04499817 .6516113 .057998659 .6516113 .117996219 .6516113 .12199402 .64260867 .1309967 .61763L.2539978 .28883363C.25498963 .28582765 .2579956 .2748413 .2579956 .27183534 .2579956 .2688446 .21798706 .107940677 .21299744 .08995056 .19999695 .034988405 .19898987 .03199768 .11898804 .0309906 .099990848 .0309906 .09199524 .0309906 .09199524 .010986328 .09199524 0 .10398865 0 .10598755 0 .13398743 0 .20399475 .0029907227 .23199463 .0029907227 .2599945 .0029907227 .33198548 0 .3600006 0 .36698915 0 .3789978 0 .3789978 .019989014 .3789978 .0309906 .36999513 .0309906 .35099793 .0309906 .34899903 .0309906 .32998658 .0309906 .31298829 .032989503 .2919922 .034988405 .28599549 .036987306 .28599549 .048980714 .28599549 .05596924 .29499818 .09095764 .2999878 .11193848L.33499146 .2528534C.33999635 .27183534 .34098817 .2748413 .34899903 .28382875L.5970001 .5686493Z"/>
<path id="font_4_2" d="M.36698915 .3996582H.45298768C.47299195 .3996582 .48298646 .3996582 .48298646 .41966249 .48298646 .43066407 .47299195 .43066407 .45599366 .43066407H.37298585L.3939972 .5449524C.397995 .5660095 .4119873 .6370239 .41799928 .6490326 .4269867 .66804507 .44400025 .68307498 .46499635 .68307498 .46899415 .68307498 .49499513 .68307498 .5139923 .66503909 .46998597 .661026 .45999146 .6260376 .45999146 .6110382 .45999146 .58802798 .47799684 .57603457 .49699403 .57603457 .522995 .57603457 .5519867 .5980377 .5519867 .6360321 .5519867 .6820679 .5059967 .7050781 .46499635 .7050781 .43099977 .7050781 .36799623 .68707278 .33799745 .58802798 .33198548 .56700137 .32899476 .5569763 .30499269 .43066407H.23599243C.21699524 .43066407 .20599365 .43066407 .20599365 .4116516 .20599365 .3996582 .21499634 .3996582 .23399353 .3996582H.2999878L.22499085 .0048828127C.20698548-.09207153 .18998719-.18309021 .13798523-.18309021 .13398743-.18309021 .10899353-.18309021 .08999634-.16506958 .13598633-.1620636 .14498902-.12606812 .14498902-.111068729 .14498902-.08807373 .1269989-.07606506 .10798645-.07606506 .08198547-.07606506 .052993776-.09806824 .052993776-.13606262 .052993776-.18109131 .09700012-.20507813 .13798523-.20507813 .19299317-.20507813 .23298645-.14607239 .25099183-.108062747 .2829895-.04508972 .30599977 .07583618 .30699159 .082839969L.36698915 .3996582Z"/>
</defs>
<path transform="matrix(1.00008,0,0,-1.00002,133.13213,20.324088)" d="M143.15102 0C143.15102 3.91391 139.97824 7.08669 136.06433 7.08669 132.1504 7.08669 128.97763 3.91391 128.97763 0 128.97763-3.91391 132.1504-7.08669 136.06433-7.08669 139.97824-7.08669 143.15102-3.91391 143.15102 0ZM136.06433 0" fill="#999999"/>
<path transform="matrix(1.00008,0,0,-1.00002,133.13213,20.324088)" stroke-width=".59776" stroke-linecap="butt" stroke-miterlimit="10" stroke-linejoin="miter" fill="none" stroke="#000000" d="M143.15102 0C143.15102 3.91391 139.97824 7.08669 136.06433 7.08669 132.1504 7.08669 128.97763 3.91391 128.97763 0 128.97763-3.91391 132.1504-7.08669 136.06433-7.08669 139.97824-7.08669 143.15102-3.91391 143.15102 0ZM136.06433 0"/>
<use data-text="4" xlink:href="#font_1_5" transform="matrix(6.974358,0,0,-6.97394,267.22187,22.571133)"/>
<path transform="matrix(1.00008,0,0,-1.00002,133.13213,20.324088)" d="M109.13493 0C109.13493 3.91391 105.96216 7.08669 102.04825 7.08669 98.13432 7.08669 94.96155 3.91391 94.96155 0 94.96155-3.91391 98.13432-7.08669 102.04825-7.08669 105.96216-7.08669 109.13493-3.91391 109.13493 0ZM102.04825 0" fill="#999999"/>
<path transform="matrix(1.00008,0,0,-1.00002,133.13213,20.324088)" stroke-width=".59776" stroke-linecap="butt" stroke-miterlimit="10" stroke-linejoin="miter" fill="none" stroke="#000000" d="M109.13493 0C109.13493 3.91391 105.96216 7.08669 102.04825 7.08669 98.13432 7.08669 94.96155 3.91391 94.96155 0 94.96155-3.91391 98.13432-7.08669 102.04825-7.08669 105.96216-7.08669 109.13493-3.91391 109.13493 0ZM102.04825 0"/>
<use data-text="3" xlink:href="#font_1_4" transform="matrix(6.974358,0,0,-6.97394,233.20313,22.571133)"/>
<path transform="matrix(1.00008,0,0,-1.00002,133.13213,20.324088)" d="M75.11885 0C75.11885 3.91391 71.94608 7.08669 68.03217 7.08669 64.11824 7.08669 60.94547 3.91391 60.94547 0 60.94547-3.91391 64.11824-7.08669 68.03217-7.08669 71.94608-7.08669 75.11885-3.91391 75.11885 0ZM68.03217 0" fill="#999999"/>
<path transform="matrix(1.00008,0,0,-1.00002,133.13213,20.324088)" stroke-width=".59776" stroke-linecap="butt" stroke-miterlimit="10" stroke-linejoin="miter" fill="none" stroke="#000000" d="M75.11885 0C75.11885 3.91391 71.94608 7.08669 68.03217 7.08669 64.11824 7.08669 60.94547 3.91391 60.94547 0 60.94547-3.91391 64.11824-7.08669 68.03217-7.08669 71.94608-7.08669 75.11885-3.91391 75.11885 0ZM68.03217 0"/>
<use data-text="2" xlink:href="#font_1_3" transform="matrix(6.974358,0,0,-6.97394,199.1844,22.571133)"/>
<path transform="matrix(1.00008,0,0,-1.00002,133.13213,20.324088)" d="M41.10277 0C41.10277 3.91391 37.93 7.08669 34.01608 7.08669 30.10216 7.08669 26.92938 3.91391 26.92938 0 26.92938-3.91391 30.10216-7.08669 34.01608-7.08669 37.93-7.08669 41.10277-3.91391 41.10277 0ZM34.01608 0" fill="#999999"/>
<path transform="matrix(1.00008,0,0,-1.00002,133.13213,20.324088)" stroke-width=".59776" stroke-linecap="butt" stroke-miterlimit="10" stroke-linejoin="miter" fill="none" stroke="#000000" d="M41.10277 0C41.10277 3.91391 37.93 7.08669 34.01608 7.08669 30.10216 7.08669 26.92938 3.91391 26.92938 0 26.92938-3.91391 30.10216-7.08669 34.01608-7.08669 37.93-7.08669 41.10277-3.91391 41.10277 0ZM34.01608 0"/>
<use data-text="1" xlink:href="#font_1_2" transform="matrix(6.974358,0,0,-6.97394,165.16469,22.571133)"/>
<path transform="matrix(1.00008,0,0,-1.00002,133.13213,20.324088)" d="M7.08669 0C7.08669 3.91391 3.91391 7.08669 0 7.08669-3.91391 7.08669-7.08669 3.91391-7.08669 0-7.08669-3.91391-3.91391-7.08669 0-7.08669 3.91391-7.08669 7.08669-3.91391 7.08669 0ZM0 0" fill="#999999"/>
<path transform="matrix(1.00008,0,0,-1.00002,133.13213,20.324088)" stroke-width=".59776" stroke-linecap="butt" stroke-miterlimit="10" stroke-linejoin="miter" fill="none" stroke="#000000" d="M7.08669 0C7.08669 3.91391 3.91391 7.08669 0 7.08669-3.91391 7.08669-7.08669 3.91391-7.08669 0-7.08669-3.91391-3.91391-7.08669 0-7.08669 3.91391-7.08669 7.08669-3.91391 7.08669 0ZM0 0"/>
<use data-text="0" xlink:href="#font_1_1" transform="matrix(6.974358,0,0,-6.97394,131.14597,22.571133)"/>
<path transform="matrix(1.00008,0,0,-1.00002,133.13213,20.324088)" d="M-26.92938 0C-26.92938 3.91391-30.10216 7.08669-34.01608 7.08669-37.93 7.08669-41.10277 3.91391-41.10277 0-41.10277-3.91391-37.93-7.08669-34.01608-7.08669-30.10216-7.08669-26.92938-3.91391-26.92938 0ZM-34.01608 0" fill="#999999"/>
<path transform="matrix(1.00008,0,0,-1.00002,133.13213,20.324088)" stroke-width=".59776" stroke-linecap="butt" stroke-miterlimit="10" stroke-linejoin="miter" fill="none" stroke="#000000" d="M-26.92938 0C-26.92938 3.91391-30.10216 7.08669-34.01608 7.08669-37.93 7.08669-41.10277 3.91391-41.10277 0-41.10277-3.91391-37.93-7.08669-34.01608-7.08669-30.10216-7.08669-26.92938-3.91391-26.92938 0ZM-34.01608 0"/>
<use data-text="&#x2212;" xlink:href="#font_2_1" transform="matrix(6.974358,0,0,-6.97394,94.01399,22.156125)"/>
<use data-text="1" xlink:href="#font_1_2" transform="matrix(6.974358,0,0,-6.97394,100.2415,22.156125)"/>
<path transform="matrix(1.00008,0,0,-1.00002,133.13213,20.324088)" d="M-60.94547 0C-60.94547 3.91391-64.11824 7.08669-68.03217 7.08669-71.94608 7.08669-75.11885 3.91391-75.11885 0-75.11885-3.91391-71.94608-7.08669-68.03217-7.08669-64.11824-7.08669-60.94547-3.91391-60.94547 0ZM-68.03217 0" fill="#999999"/>
<path transform="matrix(1.00008,0,0,-1.00002,133.13213,20.324088)" stroke-width=".59776" stroke-linecap="butt" stroke-miterlimit="10" stroke-linejoin="miter" fill="none" stroke="#000000" d="M-60.94547 0C-60.94547 3.91391-64.11824 7.08669-68.03217 7.08669-71.94608 7.08669-75.11885 3.91391-75.11885 0-75.11885-3.91391-71.94608-7.08669-68.03217-7.08669-64.11824-7.08669-60.94547-3.91391-60.94547 0ZM-68.03217 0"/>
<use data-text="&#x2212;" xlink:href="#font_2_1" transform="matrix(6.974358,0,0,-6.97394,59.99527,22.156125)"/>
<use data-text="2" xlink:href="#font_1_3" transform="matrix(6.974358,0,0,-6.97394,66.22278,22.156125)"/>
<path transform="matrix(1.00008,0,0,-1.00002,133.13213,20.324088)" d="M-94.96155 0C-94.96155 3.91391-98.13432 7.08669-102.04825 7.08669-105.96216 7.08669-109.13493 3.91391-109.13493 0-109.13493-3.91391-105.96216-7.08669-102.04825-7.08669-98.13432-7.08669-94.96155-3.91391-94.96155 0ZM-102.04825 0" fill="#999999"/>
<path transform="matrix(1.00008,0,0,-1.00002,133.13213,20.324088)" stroke-width=".59776" stroke-linecap="butt" stroke-miterlimit="10" stroke-linejoin="miter" fill="none" stroke="#000000" d="M-94.96155 0C-94.96155 3.91391-98.13432 7.08669-102.04825 7.08669-105.96216 7.08669-109.13493 3.91391-109.13493 0-109.13493-3.91391-105.96216-7.08669-102.04825-7.08669-98.13432-7.08669-94.96155-3.91391-94.96155 0ZM-102.04825 0"/>
<use data-text="&#x2212;" xlink:href="#font_2_1" transform="matrix(6.974358,0,0,-6.97394,25.976563,22.156125)"/>
<use data-text="3" xlink:href="#font_1_4" transform="matrix(6.974358,0,0,-6.97394,32.20407,22.156125)"/>
<use data-text="&#x00b7;" xlink:href="#font_2_2" transform="matrix(6.974358,0,0,-6.97394,9.156204,21.946122)"/>
<use data-text="&#x00b7;" xlink:href="#font_2_2" transform="matrix(6.974358,0,0,-6.97394,12.880524,21.946122)"/>
<use data-text="&#x00b7;" xlink:href="#font_2_2" transform="matrix(6.974358,0,0,-6.97394,16.604844,21.946122)"/>
<use data-text="&#x00b7;" xlink:href="#font_2_2" transform="matrix(6.974358,0,0,-6.97394,281.30598,21.946122)"/>
<use data-text="&#x00b7;" xlink:href="#font_2_2" transform="matrix(6.974358,0,0,-6.97394,285.0303,21.946122)"/>
<use data-text="&#x00b7;" xlink:href="#font_2_2" transform="matrix(6.974358,0,0,-6.97394,288.75465,21.946122)"/>
<path transform="matrix(1.00008,0,0,-1.00002,133.13213,20.324088)" d="M-26.92938-85.04019C-26.92938-81.12628-30.10216-77.9535-34.01608-77.9535-37.93-77.9535-41.10277-81.12628-41.10277-85.04019-41.10277-88.95412-37.93-92.12689-34.01608-92.12689-30.10216-92.12689-26.92938-88.95412-26.92938-85.04019ZM-34.01608-85.04019" fill="#999999"/>
<path transform="matrix(1.00008,0,0,-1.00002,133.13213,20.324088)" stroke-width=".59776" stroke-linecap="butt" stroke-miterlimit="10" stroke-linejoin="miter" fill="none" stroke="#000000" d="M-26.92938-85.04019C-26.92938-81.12628-30.10216-77.9535-34.01608-77.9535-37.93-77.9535-41.10277-81.12628-41.10277-85.04019-41.10277-88.95412-37.93-92.12689-34.01608-92.12689-30.10216-92.12689-26.92938-88.95412-26.92938-85.04019ZM-34.01608-85.04019"/>
<use data-text="0" xlink:href="#font_1_1" transform="matrix(6.974358,0,0,-6.97394,97.12724,107.61284)"/>
<path transform="matrix(1.00008,0,0,-1.00002,133.13213,20.324088)" d="M7.08669-85.04019C7.08669-81.12628 3.91391-77.9535 0-77.9535-3.91391-77.9535-7.08669-81.12628-7.08669-85.04019-7.08669-88.95412-3.91391-92.12689 0-92.12689 3.91391-92.12689 7.08669-88.95412 7.08669-85.04019ZM0-85.04019" fill="#999999"/>
<path transform="matrix(1.00008,0,0,-1.00002,133.13213,20.324088)" stroke-width=".59776" stroke-linecap="butt" stroke-miterlimit="10" stroke-linejoin="miter" fill="none" stroke="#000000" d="M7.08669-85.04019C7.08669-81.12628 3.91391-77.9535 0-77.9535-3.91391-77.9535-7.08669-81.12628-7.08669-85.04019-7.08669-88.95412-3.91391-92.12689 0-92.12689 3.91391-92.12689 7.08669-88.95412 7.08669-85.04019ZM0-85.04019"/>
<use data-text="1" xlink:href="#font_1_2" transform="matrix(6.974358,0,0,-6.97394,131.14597,107.61284)"/>
<path transform="matrix(1.00008,0,0,-1.00002,133.13213,20.324088)" d="M41.10277-85.04019C41.10277-81.12628 37.93-77.9535 34.01608-77.9535 30.10216-77.9535 26.92938-81.12628 26.92938-85.04019 26.92938-88.95412 30.10216-92.12689 34.01608-92.12689 37.93-92.12689 41.10277-88.95412 41.10277-85.04019ZM34.01608-85.04019" fill="#999999"/>
<path transform="matrix(1.00008,0,0,-1.00002,133.13213,20.324088)" stroke-width=".59776" stroke-linecap="butt" stroke-miterlimit="10" stroke-linejoin="miter" fill="none" stroke="#000000" d="M41.10277-85.04019C41.10277-81.12628 37.93-77.9535 34.01608-77.9535 30.10216-77.9535 26.92938-81.12628 26.92938-85.04019 26.92938-88.95412 30.10216-92.12689 34.01608-92.12689 37.93-92.12689 41.10277-88.95412 41.10277-85.04019ZM34.01608-85.04019"/>
<use data-text="2" xlink:href="#font_1_3" transform="matrix(6.974358,0,0,-6.97394,165.16469,107.61284)"/>
<path transform="matrix(1.00008,0,0,-1.00002,133.13213,20.324088)" d="M75.11885-85.04019C75.11885-81.12628 71.94608-77.9535 68.03217-77.9535 64.11824-77.9535 60.94547-81.12628 60.94547-85.04019 60.94547-88.95412 64.11824-92.12689 68.03217-92.12689 71.94608-92.12689 75.11885-88.95412 75.11885-85.04019ZM68.03217-85.04019" fill="#999999"/>
<path transform="matrix(1.00008,0,0,-1.00002,133.13213,20.324088)" stroke-width=".59776" stroke-linecap="butt" stroke-miterlimit="10" stroke-linejoin="miter" fill="none" stroke="#000000" d="M75.11885-85.04019C75.11885-81.12628 71.94608-77.9535 68.03217-77.9535 64.11824-77.9535 60.94547-81.12628 60.94547-85.04019 60.94547-88.95412 64.11824-92.12689 68.03217-92.12689 71.94608-92.12689 75.11885-88.95412 75.11885-85.04019ZM68.03217-85.04019"/>
<use data-text="3" xlink:href="#font_1_4" transform="matrix(6.974358,0,0,-6.97394,199.1844,107.61284)"/>
<path transform="matrix(1.00008,0,0,-1.00002,133.13213,20.324088)" stroke-width=".59776" stroke-linecap="butt" stroke-miterlimit="10" stroke-linejoin="miter" fill="none" stroke="#000000" d="M129.48398-3.3037-24.47527-80.28348"/>
<path transform="matrix(-.89443156,.44717894,.44720576,.89437797,108.6549,100.60916)" d="M2.29138 0-1.37483 1.83311 0 0-1.37483-1.83311"/>
<path transform="matrix(1.00008,0,0,-1.00002,133.13213,20.324088)" stroke-width=".59776" stroke-linecap="butt" stroke-miterlimit="10" stroke-linejoin="miter" fill="none" stroke="#000000" d="M99.3263-6.85901 72.01094-75.14629"/>
<path transform="matrix(-.3713997,.9284586,.92851427,.37137745,205.14885,95.47186)" d="M2.29138 0-1.37483 1.83311 0 0-1.37483-1.83311"/>
<path transform="matrix(1.00008,0,0,-1.00002,133.13213,20.324088)" stroke-width=".59776" stroke-linecap="butt" stroke-miterlimit="10" stroke-linejoin="miter" fill="none" stroke="#000000" d="M65.30298-6.85867 37.98775-75.14618"/>
<path transform="matrix(-.3713997,.9284586,.92851427,.37137745,171.12293,95.47175)" d="M2.29138 0-1.37483 1.83311 0 0-1.37483-1.83311"/>
<path transform="matrix(1.00008,0,0,-1.00002,133.13213,20.324088)" stroke-width=".59776" stroke-linecap="butt" stroke-miterlimit="10" stroke-linejoin="miter" fill="none" stroke="#000000" d="M31.27979-6.85855 3.96466-75.14594"/>
<path transform="matrix(-.3713997,.9284586,.92851427,.37137745,137.09712,95.47151)" d="M2.29138 0-1.37483 1.83311 0 0-1.37483-1.83311"/>
<path transform="matrix(1.00008,0,0,-1.00002,133.13213,20.324088)" stroke-width=".59776" stroke-linecap="butt" stroke-miterlimit="10" stroke-linejoin="miter" fill="none" stroke="#000000" d="M-2.74327-6.85834-30.05841-75.14583"/>
<path transform="matrix(-.3713997,.9284586,.92851427,.37137745,103.07132,95.471408)" d="M2.29138 0-1.37483 1.83311 0 0-1.37483-1.83311"/>
<path transform="matrix(1.00008,0,0,-1.00002,133.13213,20.324088)" stroke-width=".59776" stroke-linecap="butt" stroke-miterlimit="10" stroke-linejoin="miter" fill="none" stroke="#000000" d="M-28.34813-4.72899 59.84511-78.22328"/>
<path transform="matrix(.7682515,.6401628,.6402012,-.7682054,192.98203,98.548938)" d="M2.29138 0-1.37483 1.83311 0 0-1.37483-1.83311"/>
<path transform="matrix(1.00008,0,0,-1.00002,133.13213,20.324088)" stroke-width=".59776" stroke-linecap="butt" stroke-miterlimit="10" stroke-linejoin="miter" fill="none" stroke="#000000" d="M-62.37099-4.72922 25.82211-78.22353"/>
<path transform="matrix(.7682515,.6401628,.6402012,-.7682054,158.9563,98.54919)" d="M2.29138 0-1.37483 1.83311 0 0-1.37483-1.83311"/>
<path transform="matrix(1.00008,0,0,-1.00002,133.13213,20.324088)" stroke-width=".59776" stroke-linecap="butt" stroke-miterlimit="10" stroke-linejoin="miter" fill="none" stroke="#000000" d="M-96.39386-4.72945-8.20047-78.22363"/>
<path transform="matrix(.7682515,.6401628,.6402012,-.7682054,124.931,98.549289)" d="M2.29138 0-1.37483 1.83311 0 0-1.37483-1.83311"/>
<path transform="matrix(1.00008,0,0,-1.00002,133.13213,20.324088)" stroke-width=".59776" stroke-linecap="butt" stroke-miterlimit="10" stroke-linejoin="miter" fill="none" stroke="#929292" d="M160.97154 18.42546H-126.9424C-129.14334 18.42546-130.9275 16.6413-130.9275 14.44035V-14.44035C-130.9275-16.6413-129.14334-18.42546-126.9424-18.42546H160.97154C163.17249-18.42546 164.95665-16.6413 164.95665-14.44035V14.44035C164.95665 16.6413 163.17249 18.42546 160.97154 18.42546ZM-130.9275-18.42546"/>
<path transform="matrix(1.00008,0,0,-1.00002,133.13213,20.324088)" stroke-width=".59776" stroke-linecap="butt" stroke-miterlimit="10" stroke-linejoin="miter" fill="none" stroke="#929292" d="M74.77097-66.64749H-40.74182C-42.94276-66.64749-44.72693-68.43166-44.72693-70.6326V-99.51332C-44.72693-101.71425-42.94276-103.49843-40.74182-103.49843H74.77097C76.97191-103.49843 78.75607-101.71425 78.75607-99.51332V-70.6326C78.75607-68.43166 76.97191-66.64749 74.77097-66.64749ZM-44.72693-103.49843"/>
<use data-text="Z" xlink:href="#font_3_1" transform="matrix(9.963397,0,0,-9.962799,306.709,23.756157)"/>
<use data-text="Y" xlink:href="#font_4_1" transform="matrix(9.963397,0,0,-9.962799,217.58188,108.76986)"/>
<path transform="matrix(1.00008,0,0,-1.00002,133.13213,20.324088)" stroke-width=".59776" stroke-linecap="butt" stroke-miterlimit="10" stroke-linejoin="miter" fill="none" stroke="#000000" d="M174.88407-7.05241C163.05907-48.31529 137.72606-72.78804 99.26878-82.38301"/>
<path transform="matrix(-.9703376,.24207485,.24208936,.97027948,232.40885,102.70874)" d="M2.29138 0-1.37483 1.83311 0 0-1.37483-1.83311"/>
<use data-text="f" xlink:href="#font_4_2" transform="matrix(9.963397,0,0,-9.962799,283.42817,87.556438)"/>
</svg>
