<svg xmlns="http://www.w3.org/2000/svg" xmlns:xlink="http://www.w3.org/1999/xlink" version="1.1" width="266pt" height="128pt" viewBox="0 0 266 128">
<defs>
<path id="font_1_1" d="M.2639923 .66430667C.2649994 .66630557 .2679901 .67930606 .2679901 .68029788 .2679901 .68530276 .2639923 .6943054 .2519989 .6943054 .23199463 .6943054 .14898682 .6863098 .12399292 .6843109 .115997318 .68330386 .101989749 .682312 .101989749 .66130068 .101989749 .64730837 .115997318 .64730837 .12799073 .64730837 .17599488 .64730837 .17599488 .64030459 .17599488 .63230898 .17599488 .62532046 .1659851 .58532717 .1599884 .5623474L.13699341 .4703827C.12799073 .43640138 .07299805 .21731568 .070999149 .20431519 .06599426 .18029785 .06599426 .16729737 .06599426 .1552887 .06599426 .054244996 .12998963-.009765625 .21299744-.009765625 .33799745-.009765625 .47099305 .12626648 .47099305 .27433778 .47099305 .39138795 .3899994 .44140626 .32099916 .44140626 .2689972 .44140626 .22499085 .4123993 .19499207 .38638307L.2639923 .66430667M.21398926 .018234253C.16499329 .018234253 .13699341 .06124878 .13699341 .120269779 .13699341 .1572876 .1459961 .19129944 .17399597 .3043518 .17999268 .32336427 .17999268 .32536317 .19898987 .34736634 .23699951 .39138795 .28199769 .4133911 .31799317 .4133911 .35699464 .4133911 .3909912 .38438417 .3909912 .31636048 .3909912 .27534486 .36898805 .17329407 .33898927 .11526489 .31498719 .06625366 .2649994 .018234253 .21398926 .018234253Z"/>
<path id="font_2_1" d="M.397995 .63591006C.397995 .6660156 .394989 .6660156 .3619995 .6660156 .29100038 .6016083 .17999268 .6016083 .1599884 .6016083H.14299011V.5576172H.1599884C.18299866 .5576172 .24798584 .5606079 .30599977 .58561709V.08596802C.30599977 .054977418 .30599977 .04399109 .19999695 .04399109H.1499939V0C.20498657 .0039978029 .2939911 .0039978029 .35198976 .0039978029 .4099884 .0039978029 .49899293 .0039978029 .55400088 0V.04399109H.5039978C.397995 .04399109 .397995 .054977418 .397995 .08596802V.63591006Z"/>
<path id="font_3_1" d="M.269989 .01399231C.269989-.08216858 .21798706-.13726807 .19099427-.15931702 .18099976-.16732788 .1789856-.16934204 .1789856-.17634583 .1789856-.18234253 .18798828-.19433594 .19699097-.19433594 .20999146-.19433594 .3039856-.1162262 .3039856 .008987427 .3039856 .07699585 .27398683 .12199402 .22898865 .12199402 .19099427 .12199402 .16799927 .09199524 .16799927 .06098938 .16799927 .0289917 .19099427 0 .22898865 0 .24398804 0 .25898744 .0039978029 .269989 .01399231Z"/>
<path id="font_2_2" d="M.58898928 .19296265H.5469971C.5439911 .17396546 .5339966 .11198425 .5179901 .101989749 .5099945 .09599304 .42599488 .09599304 .41099549 .09599304H.21499634C.2809906 .14497376 .35499574 .20095825 .4149933 .24093628 .5049896 .30291749 .58898928 .36090089 .58898928 .46687318 .58898928 .59495547 .46798707 .6660156 .32499696 .6660156 .18998719 .6660156 .09098816 .58795168 .09098816 .48986817 .09098816 .4378662 .1349945 .42886354 .14898682 .42886354 .17599488 .42886354 .20799256 .4468689 .20799256 .48786927 .20799256 .52386477 .18199158 .543869 .15098572 .546875 .1789856 .59194949 .23699951 .6220093 .3039856 .6220093 .40098573 .6220093 .48199464 .5639038 .48199464 .4658661 .48199464 .3818817 .42399598 .31791688 .34700013 .2529297L.102996829 .04598999C.09298706 .036987306 .09199524 .036987306 .09098816 .02999878V0H.55599978L.58898928 .19296265Z"/>
<path id="font_2_3" d="M.32998658 .3310547C.42199708 .3310547 .48298646 .2737732 .48298646 .17437744 .48298646 .07237244 .41999818 .01852417 .33099366 .01852417 .31999208 .01852417 .20098877 .01852417 .1499939 .070373538 .19099427 .07637024 .20298767 .1073761 .20298767 .13137818 .20298767 .16838074 .1749878 .19238281 .14199829 .19238281 .10998535 .19238281 .07998657 .17137146 .07998657 .12937927 .07998657 .025512696 .19799805-.022460938 .33399964-.022460938 .49798585-.022460938 .59999087 .07637024 .59999087 .17337036 .59999087 .25567628 .5269928 .3260193 .41299439 .35205079 .5329895 .3909912 .5649872 .46684266 .5649872 .5228424 .5649872 .60491946 .46299745 .6660156 .33699037 .6660156 .21398926 .6660156 .114990238 .61395266 .114990238 .5238342 .114990238 .47683717 .15299988 .46484376 .17199707 .46484376 .20098877 .46484376 .22898865 .48583985 .22898865 .5218353 .22898865 .5448303 .21699524 .5728302 .18099976 .57884219 .22399903 .625 .31298829 .628006 .33399964 .628006 .40699769 .628006 .45899964 .5908661 .45899964 .5228424 .45899964 .46484376 .42099 .37402345 .31599427 .368042 .28799439 .3670349 .28399659 .3660431 .2579956 .365036 .24699402 .3640442 .23599243 .36305238 .23599243 .34805299 .23599243 .3310547 .24598694 .3310547 .2639923 .3310547H.32998658Z"/>
<path id="font_2_4" d="M.61698916 .1630249V.20703125H.49198915V.64675906C.49198915 .67074587 .4909973 .6767578 .46499635 .6767578 .44499208 .6767578 .44400025 .67575076 .43299867 .66174319L.06298828 .20703125V.1630249H.3959961V.085006717C.3959961 .054000856 .3959961 .04399109 .30899049 .04399109H.27398683V0C.32099916 .0019989014 .38598634 .0039978029 .44400025 .0039978029 .5019989 .0039978029 .56599429 .0019989014 .6139984 0V.04399109H.57899478C.49198915 .04399109 .49198915 .054000856 .49198915 .085006717V.1630249H.61698916M.4039917 .5688019V.20703125H.10998535L.4039917 .5688019Z"/>
<path id="font_2_5" d="M.19599915 .55078127C.24899292 .53778079 .2939911 .53778079 .30499269 .53778079 .37298585 .53778079 .4229889 .55778506 .44898988 .57177737 .47299195 .583786 .54100039 .6267853 .54100039 .64878848 .54100039 .66378787 .5299988 .66578677 .5269928 .66578677 .5249939 .66578677 .522995 .66578677 .5119934 .66078189 .47399903 .6477814 .4119873 .63378909 .34599305 .63378909 .2889862 .63378909 .23399353 .64378359 .18099976 .66178897 .16999817 .66578677 .16799927 .66578677 .1659851 .66578677 .1519928 .66578677 .1519928 .6537781 .1519928 .63778689V.33763124C.1519928 .32061769 .1519928 .30760194 .17098999 .30760194 .18199158 .30760194 .18299866 .30960084 .19198609 .32061769 .22999573 .36468507 .2829895 .38671876 .35099793 .38671876 .40899659 .38671876 .44099427 .35266114 .45498658 .33163453 .47799684 .2975769 .48298646 .2525177 .48298646 .20446778 .48298646 .16246033 .47898866 .10646057 .43998719 .067489627 .394989 .021530152 .33799745 .01852417 .31599427 .01852417 .25099183 .01852417 .17799378 .04650879 .14698792 .10546875 .18899536 .10845947 .20298767 .13845825 .20298767 .1614685 .20298767 .19346619 .1789856 .21746826 .14698792 .21746826 .125 .21746826 .09098816 .20446778 .09098816 .15846253 .09098816 .0605011 .18699646-.022460938 .31799317-.022460938 .46699525-.022460938 .58898928 .07748413 .58898928 .20146179 .58898928 .3146057 .49198915 .41970826 .35299684 .41970826 .2899933 .41970826 .23899842 .40371705 .19599915 .37068177V.55078127Z"/>
<path id="font_4_1" d="M.22698975 .25035096C.22698975 .28634645 .19699097 .3083496 .16999817 .3083496 .13699341 .3083496 .11199951 .2813568 .11199951 .25135804 .11199951 .21534729 .14199829 .19335938 .16899109 .19335938 .20199585 .19335938 .22698975 .22035218 .22698975 .25035096Z"/>
</defs>
<path transform="matrix(1.0001,0,0,-1.00009,-51.78568,146.07007)" d="M60.23712 28.3468C60.23712 28.73817 59.91983 29.05545 59.52846 29.05545 59.13708 29.05545 58.81981 28.73817 58.81981 28.3468 58.81981 27.95543 59.13708 27.63815 59.52846 27.63815 59.91983 27.63815 60.23712 27.95543 60.23712 28.3468ZM59.52846 28.3468"/>
<path transform="matrix(1.0001,0,0,-1.00009,-51.78568,146.07007)" stroke-width=".59776" stroke-linecap="butt" stroke-miterlimit="10" stroke-linejoin="miter" fill="none" stroke="#000000" d="M60.23712 28.3468C60.23712 28.73817 59.91983 29.05545 59.52846 29.05545 59.13708 29.05545 58.81981 28.73817 58.81981 28.3468 58.81981 27.95543 59.13708 27.63815 59.52846 27.63815 59.91983 27.63815 60.23712 27.95543 60.23712 28.3468ZM59.52846 28.3468"/>
<use data-text="b" xlink:href="#font_1_1" transform="matrix(6.974498,0,0,-6.9744279,1.2186241,124.64014)"/>
<use data-text="1" xlink:href="#font_2_1" transform="matrix(4.981798,0,0,-4.981748,4.7229769,125.63623)"/>
<use data-text="," xlink:href="#font_3_1" transform="matrix(4.981798,0,0,-4.981748,8.113316,125.63623)"/>
<use data-text="1" xlink:href="#font_2_1" transform="matrix(4.981798,0,0,-4.981748,10.396545,125.63623)"/>
<path transform="matrix(1.0001,0,0,-1.00009,-51.78568,146.07007)" d="M119.76558 28.3468C119.76558 28.73817 119.4483 29.05545 119.05693 29.05545 118.66556 29.05545 118.34828 28.73817 118.34828 28.3468 118.34828 27.95543 118.66556 27.63815 119.05693 27.63815 119.4483 27.63815 119.76558 27.95543 119.76558 28.3468ZM119.05693 28.3468"/>
<path transform="matrix(1.0001,0,0,-1.00009,-51.78568,146.07007)" stroke-width=".59776" stroke-linecap="butt" stroke-miterlimit="10" stroke-linejoin="miter" fill="none" stroke="#000000" d="M119.76558 28.3468C119.76558 28.73817 119.4483 29.05545 119.05693 29.05545 118.66556 29.05545 118.34828 28.73817 118.34828 28.3468 118.34828 27.95543 118.66556 27.63815 119.05693 27.63815 119.4483 27.63815 119.76558 27.95543 119.76558 28.3468ZM119.05693 28.3468"/>
<use data-text="b" xlink:href="#font_1_1" transform="matrix(6.974498,0,0,-6.9744279,60.755575,124.64014)"/>
<use data-text="1" xlink:href="#font_2_1" transform="matrix(4.981798,0,0,-4.981748,64.259929,125.63623)"/>
<use data-text="," xlink:href="#font_3_1" transform="matrix(4.981798,0,0,-4.981748,67.65027,125.63623)"/>
<use data-text="2" xlink:href="#font_2_2" transform="matrix(4.981798,0,0,-4.981748,69.933498,125.63623)"/>
<path transform="matrix(1.0001,0,0,-1.00009,-51.78568,146.07007)" d="M179.29405 28.3468C179.29405 28.73817 178.97678 29.05545 178.5854 29.05545 178.19403 29.05545 177.87674 28.73817 177.87674 28.3468 177.87674 27.95543 178.19403 27.63815 178.5854 27.63815 178.97678 27.63815 179.29405 27.95543 179.29405 28.3468ZM178.5854 28.3468"/>
<path transform="matrix(1.0001,0,0,-1.00009,-51.78568,146.07007)" stroke-width=".59776" stroke-linecap="butt" stroke-miterlimit="10" stroke-linejoin="miter" fill="none" stroke="#000000" d="M179.29405 28.3468C179.29405 28.73817 178.97678 29.05545 178.5854 29.05545 178.19403 29.05545 177.87674 28.73817 177.87674 28.3468 177.87674 27.95543 178.19403 27.63815 178.5854 27.63815 178.97678 27.63815 179.29405 27.95543 179.29405 28.3468ZM178.5854 28.3468"/>
<use data-text="b" xlink:href="#font_1_1" transform="matrix(6.974498,0,0,-6.9744279,120.29254,124.64014)"/>
<use data-text="1" xlink:href="#font_2_1" transform="matrix(4.981798,0,0,-4.981748,123.79689,125.63623)"/>
<use data-text="," xlink:href="#font_3_1" transform="matrix(4.981798,0,0,-4.981748,127.187229,125.63623)"/>
<use data-text="3" xlink:href="#font_2_3" transform="matrix(4.981798,0,0,-4.981748,129.47046,125.63623)"/>
<path transform="matrix(1.0001,0,0,-1.00009,-51.78568,146.07007)" d="M238.82254 28.3468C238.82254 28.73817 238.50527 29.05545 238.11389 29.05545 237.7225 29.05545 237.40523 28.73817 237.40523 28.3468 237.40523 27.95543 237.7225 27.63815 238.11389 27.63815 238.50527 27.63815 238.82254 27.95543 238.82254 28.3468ZM238.11389 28.3468"/>
<path transform="matrix(1.0001,0,0,-1.00009,-51.78568,146.07007)" stroke-width=".59776" stroke-linecap="butt" stroke-miterlimit="10" stroke-linejoin="miter" fill="none" stroke="#000000" d="M238.82254 28.3468C238.82254 28.73817 238.50527 29.05545 238.11389 29.05545 237.7225 29.05545 237.40523 28.73817 237.40523 28.3468 237.40523 27.95543 237.7225 27.63815 238.11389 27.63815 238.50527 27.63815 238.82254 27.95543 238.82254 28.3468ZM238.11389 28.3468"/>
<use data-text="b" xlink:href="#font_1_1" transform="matrix(6.974498,0,0,-6.9744279,179.83048,124.64014)"/>
<use data-text="1" xlink:href="#font_2_1" transform="matrix(4.981798,0,0,-4.981748,183.33484,125.63623)"/>
<use data-text="," xlink:href="#font_3_1" transform="matrix(4.981798,0,0,-4.981748,186.72518,125.63623)"/>
<use data-text="4" xlink:href="#font_2_4" transform="matrix(4.981798,0,0,-4.981748,189.00839,125.63623)"/>
<path transform="matrix(1.0001,0,0,-1.00009,-51.78568,146.07007)" d="M298.351 28.3468C298.351 28.73817 298.03376 29.05545 297.64237 29.05545 297.25099 29.05545 296.9337 28.73817 296.9337 28.3468 296.9337 27.95543 297.25099 27.63815 297.64237 27.63815 298.03376 27.63815 298.351 27.95543 298.351 28.3468ZM297.64237 28.3468"/>
<path transform="matrix(1.0001,0,0,-1.00009,-51.78568,146.07007)" stroke-width=".59776" stroke-linecap="butt" stroke-miterlimit="10" stroke-linejoin="miter" fill="none" stroke="#000000" d="M298.351 28.3468C298.351 28.73817 298.03376 29.05545 297.64237 29.05545 297.25099 29.05545 296.9337 28.73817 296.9337 28.3468 296.9337 27.95543 297.25099 27.63815 297.64237 27.63815 298.03376 27.63815 298.351 27.95543 298.351 28.3468ZM297.64237 28.3468"/>
<use data-text="b" xlink:href="#font_1_1" transform="matrix(6.974498,0,0,-6.9744279,239.36743,124.64014)"/>
<use data-text="1" xlink:href="#font_2_1" transform="matrix(4.981798,0,0,-4.981748,242.8718,125.63623)"/>
<use data-text="," xlink:href="#font_3_1" transform="matrix(4.981798,0,0,-4.981748,246.26213,125.63623)"/>
<use data-text="5" xlink:href="#font_2_5" transform="matrix(4.981798,0,0,-4.981748,248.54535,125.63623)"/>
<path transform="matrix(1.0001,0,0,-1.00009,-51.78568,146.07007)" d="M119.76558 56.69362C119.76558 57.08499 119.4483 57.40227 119.05693 57.40227 118.66556 57.40227 118.34828 57.08499 118.34828 56.69362 118.34828 56.30223 118.66556 55.98495 119.05693 55.98495 119.4483 55.98495 119.76558 56.30223 119.76558 56.69362ZM119.05693 56.69362"/>
<path transform="matrix(1.0001,0,0,-1.00009,-51.78568,146.07007)" stroke-width=".59776" stroke-linecap="butt" stroke-miterlimit="10" stroke-linejoin="miter" fill="none" stroke="#000000" d="M119.76558 56.69362C119.76558 57.08499 119.4483 57.40227 119.05693 57.40227 118.66556 57.40227 118.34828 57.08499 118.34828 56.69362 118.34828 56.30223 118.66556 55.98495 119.05693 55.98495 119.4483 55.98495 119.76558 56.30223 119.76558 56.69362ZM119.05693 56.69362"/>
<use data-text="b" xlink:href="#font_1_1" transform="matrix(6.974498,0,0,-6.9744279,52.14571,90.81009)"/>
<use data-text="2" xlink:href="#font_2_2" transform="matrix(4.981798,0,0,-4.981748,55.650064,91.80618)"/>
<use data-text="," xlink:href="#font_3_1" transform="matrix(4.981798,0,0,-4.981748,59.0404,91.80618)"/>
<use data-text="1" xlink:href="#font_2_1" transform="matrix(4.981798,0,0,-4.981748,61.32363,91.80618)"/>
<path transform="matrix(1.0001,0,0,-1.00009,-51.78568,146.07007)" d="M179.29405 56.69362C179.29405 57.08499 178.97678 57.40227 178.5854 57.40227 178.19403 57.40227 177.87674 57.08499 177.87674 56.69362 177.87674 56.30223 178.19403 55.98495 178.5854 55.98495 178.97678 55.98495 179.29405 56.30223 179.29405 56.69362ZM178.5854 56.69362"/>
<path transform="matrix(1.0001,0,0,-1.00009,-51.78568,146.07007)" stroke-width=".59776" stroke-linecap="butt" stroke-miterlimit="10" stroke-linejoin="miter" fill="none" stroke="#000000" d="M179.29405 56.69362C179.29405 57.08499 178.97678 57.40227 178.5854 57.40227 178.19403 57.40227 177.87674 57.08499 177.87674 56.69362 177.87674 56.30223 178.19403 55.98495 178.5854 55.98495 178.97678 55.98495 179.29405 56.30223 179.29405 56.69362ZM178.5854 56.69362"/>
<use data-text="b" xlink:href="#font_1_1" transform="matrix(6.974498,0,0,-6.9744279,111.68367,90.81009)"/>
<use data-text="2" xlink:href="#font_2_2" transform="matrix(4.981798,0,0,-4.981748,115.18802,91.80618)"/>
<use data-text="," xlink:href="#font_3_1" transform="matrix(4.981798,0,0,-4.981748,118.578357,91.80618)"/>
<use data-text="2" xlink:href="#font_2_2" transform="matrix(4.981798,0,0,-4.981748,120.86159,91.80618)"/>
<path transform="matrix(1.0001,0,0,-1.00009,-51.78568,146.07007)" d="M238.82254 56.69362C238.82254 57.08499 238.50527 57.40227 238.11389 57.40227 237.7225 57.40227 237.40523 57.08499 237.40523 56.69362 237.40523 56.30223 237.7225 55.98495 238.11389 55.98495 238.50527 55.98495 238.82254 56.30223 238.82254 56.69362ZM238.11389 56.69362"/>
<path transform="matrix(1.0001,0,0,-1.00009,-51.78568,146.07007)" stroke-width=".59776" stroke-linecap="butt" stroke-miterlimit="10" stroke-linejoin="miter" fill="none" stroke="#000000" d="M238.82254 56.69362C238.82254 57.08499 238.50527 57.40227 238.11389 57.40227 237.7225 57.40227 237.40523 57.08499 237.40523 56.69362 237.40523 56.30223 237.7225 55.98495 238.11389 55.98495 238.50527 55.98495 238.82254 56.30223 238.82254 56.69362ZM238.11389 56.69362"/>
<use data-text="b" xlink:href="#font_1_1" transform="matrix(6.974498,0,0,-6.9744279,171.22061,90.81009)"/>
<use data-text="2" xlink:href="#font_2_2" transform="matrix(4.981798,0,0,-4.981748,174.72498,91.80618)"/>
<use data-text="," xlink:href="#font_3_1" transform="matrix(4.981798,0,0,-4.981748,178.11531,91.80618)"/>
<use data-text="3" xlink:href="#font_2_3" transform="matrix(4.981798,0,0,-4.981748,180.39853,91.80618)"/>
<path transform="matrix(1.0001,0,0,-1.00009,-51.78568,146.07007)" d="M298.351 56.69362C298.351 57.08499 298.03376 57.40227 297.64237 57.40227 297.25099 57.40227 296.9337 57.08499 296.9337 56.69362 296.9337 56.30223 297.25099 55.98495 297.64237 55.98495 298.03376 55.98495 298.351 56.30223 298.351 56.69362ZM297.64237 56.69362"/>
<path transform="matrix(1.0001,0,0,-1.00009,-51.78568,146.07007)" stroke-width=".59776" stroke-linecap="butt" stroke-miterlimit="10" stroke-linejoin="miter" fill="none" stroke="#000000" d="M298.351 56.69362C298.351 57.08499 298.03376 57.40227 297.64237 57.40227 297.25099 57.40227 296.9337 57.08499 296.9337 56.69362 296.9337 56.30223 297.25099 55.98495 297.64237 55.98495 298.03376 55.98495 298.351 56.30223 298.351 56.69362ZM297.64237 56.69362"/>
<use data-text="b" xlink:href="#font_1_1" transform="matrix(6.974498,0,0,-6.9744279,230.7576,90.81009)"/>
<use data-text="2" xlink:href="#font_2_2" transform="matrix(4.981798,0,0,-4.981748,234.26197,91.80618)"/>
<use data-text="," xlink:href="#font_3_1" transform="matrix(4.981798,0,0,-4.981748,237.6523,91.80618)"/>
<use data-text="4" xlink:href="#font_2_4" transform="matrix(4.981798,0,0,-4.981748,239.93552,91.80618)"/>
<path transform="matrix(1.0001,0,0,-1.00009,-51.78568,146.07007)" d="M179.29405 85.04042C179.29405 85.4318 178.97678 85.74908 178.5854 85.74908 178.19403 85.74908 177.87674 85.4318 177.87674 85.04042 177.87674 84.64905 178.19403 84.33177 178.5854 84.33177 178.97678 84.33177 179.29405 84.64905 179.29405 85.04042ZM178.5854 85.04042"/>
<path transform="matrix(1.0001,0,0,-1.00009,-51.78568,146.07007)" stroke-width=".59776" stroke-linecap="butt" stroke-miterlimit="10" stroke-linejoin="miter" fill="none" stroke="#000000" d="M179.29405 85.04042C179.29405 85.4318 178.97678 85.74908 178.5854 85.74908 178.19403 85.74908 177.87674 85.4318 177.87674 85.04042 177.87674 84.64905 178.19403 84.33177 178.5854 84.33177 178.97678 84.33177 179.29405 84.64905 179.29405 85.04042ZM178.5854 85.04042"/>
<use data-text="b" xlink:href="#font_1_1" transform="matrix(6.974498,0,0,-6.9744279,111.68367,62.461549)"/>
<use data-text="3" xlink:href="#font_2_3" transform="matrix(4.981798,0,0,-4.981748,115.18802,63.45764)"/>
<use data-text="," xlink:href="#font_3_1" transform="matrix(4.981798,0,0,-4.981748,118.578357,63.45764)"/>
<use data-text="1" xlink:href="#font_2_1" transform="matrix(4.981798,0,0,-4.981748,120.86159,63.45764)"/>
<path transform="matrix(1.0001,0,0,-1.00009,-51.78568,146.07007)" d="M238.82254 85.04042C238.82254 85.4318 238.50527 85.74908 238.11389 85.74908 237.7225 85.74908 237.40523 85.4318 237.40523 85.04042 237.40523 84.64905 237.7225 84.33177 238.11389 84.33177 238.50527 84.33177 238.82254 84.64905 238.82254 85.04042ZM238.11389 85.04042"/>
<path transform="matrix(1.0001,0,0,-1.00009,-51.78568,146.07007)" stroke-width=".59776" stroke-linecap="butt" stroke-miterlimit="10" stroke-linejoin="miter" fill="none" stroke="#000000" d="M238.82254 85.04042C238.82254 85.4318 238.50527 85.74908 238.11389 85.74908 237.7225 85.74908 237.40523 85.4318 237.40523 85.04042 237.40523 84.64905 237.7225 84.33177 238.11389 84.33177 238.50527 84.33177 238.82254 84.64905 238.82254 85.04042ZM238.11389 85.04042"/>
<use data-text="b" xlink:href="#font_1_1" transform="matrix(6.974498,0,0,-6.9744279,171.22061,62.461549)"/>
<use data-text="3" xlink:href="#font_2_3" transform="matrix(4.981798,0,0,-4.981748,174.72498,63.45764)"/>
<use data-text="," xlink:href="#font_3_1" transform="matrix(4.981798,0,0,-4.981748,178.11531,63.45764)"/>
<use data-text="2" xlink:href="#font_2_2" transform="matrix(4.981798,0,0,-4.981748,180.39853,63.45764)"/>
<path transform="matrix(1.0001,0,0,-1.00009,-51.78568,146.07007)" d="M298.351 85.04042C298.351 85.4318 298.03376 85.74908 297.64237 85.74908 297.25099 85.74908 296.9337 85.4318 296.9337 85.04042 296.9337 84.64905 297.25099 84.33177 297.64237 84.33177 298.03376 84.33177 298.351 84.64905 298.351 85.04042ZM297.64237 85.04042"/>
<path transform="matrix(1.0001,0,0,-1.00009,-51.78568,146.07007)" stroke-width=".59776" stroke-linecap="butt" stroke-miterlimit="10" stroke-linejoin="miter" fill="none" stroke="#000000" d="M298.351 85.04042C298.351 85.4318 298.03376 85.74908 297.64237 85.74908 297.25099 85.74908 296.9337 85.4318 296.9337 85.04042 296.9337 84.64905 297.25099 84.33177 297.64237 84.33177 298.03376 84.33177 298.351 84.64905 298.351 85.04042ZM297.64237 85.04042"/>
<use data-text="b" xlink:href="#font_1_1" transform="matrix(6.974498,0,0,-6.9744279,230.7576,62.461549)"/>
<use data-text="3" xlink:href="#font_2_3" transform="matrix(4.981798,0,0,-4.981748,234.26197,63.45764)"/>
<use data-text="," xlink:href="#font_3_1" transform="matrix(4.981798,0,0,-4.981748,237.6523,63.45764)"/>
<use data-text="3" xlink:href="#font_2_3" transform="matrix(4.981798,0,0,-4.981748,239.93552,63.45764)"/>
<path transform="matrix(1.0001,0,0,-1.00009,-51.78568,146.07007)" d="M238.82254 113.38724C238.82254 113.77861 238.50527 114.09589 238.11389 114.09589 237.7225 114.09589 237.40523 113.77861 237.40523 113.38724 237.40523 112.99585 237.7225 112.67857 238.11389 112.67857 238.50527 112.67857 238.82254 112.99585 238.82254 113.38724ZM238.11389 113.38724"/>
<path transform="matrix(1.0001,0,0,-1.00009,-51.78568,146.07007)" stroke-width=".59776" stroke-linecap="butt" stroke-miterlimit="10" stroke-linejoin="miter" fill="none" stroke="#000000" d="M238.82254 113.38724C238.82254 113.77861 238.50527 114.09589 238.11389 114.09589 237.7225 114.09589 237.40523 113.77861 237.40523 113.38724 237.40523 112.99585 237.7225 112.67857 238.11389 112.67857 238.50527 112.67857 238.82254 112.99585 238.82254 113.38724ZM238.11389 113.38724"/>
<use data-text="b" xlink:href="#font_1_1" transform="matrix(6.974498,0,0,-6.9744279,171.22061,34.11199)"/>
<use data-text="4" xlink:href="#font_2_4" transform="matrix(4.981798,0,0,-4.981748,174.72498,35.108087)"/>
<use data-text="," xlink:href="#font_3_1" transform="matrix(4.981798,0,0,-4.981748,178.11531,35.108087)"/>
<use data-text="1" xlink:href="#font_2_1" transform="matrix(4.981798,0,0,-4.981748,180.39853,35.108087)"/>
<path transform="matrix(1.0001,0,0,-1.00009,-51.78568,146.07007)" d="M298.351 113.38724C298.351 113.77861 298.03376 114.09589 297.64237 114.09589 297.25099 114.09589 296.9337 113.77861 296.9337 113.38724 296.9337 112.99585 297.25099 112.67857 297.64237 112.67857 298.03376 112.67857 298.351 112.99585 298.351 113.38724ZM297.64237 113.38724"/>
<path transform="matrix(1.0001,0,0,-1.00009,-51.78568,146.07007)" stroke-width=".59776" stroke-linecap="butt" stroke-miterlimit="10" stroke-linejoin="miter" fill="none" stroke="#000000" d="M298.351 113.38724C298.351 113.77861 298.03376 114.09589 297.64237 114.09589 297.25099 114.09589 296.9337 113.77861 296.9337 113.38724 296.9337 112.99585 297.25099 112.67857 297.64237 112.67857 298.03376 112.67857 298.351 112.99585 298.351 113.38724ZM297.64237 113.38724"/>
<use data-text="b" xlink:href="#font_1_1" transform="matrix(6.974498,0,0,-6.9744279,230.7576,34.11199)"/>
<use data-text="4" xlink:href="#font_2_4" transform="matrix(4.981798,0,0,-4.981748,234.26197,35.108087)"/>
<use data-text="," xlink:href="#font_3_1" transform="matrix(4.981798,0,0,-4.981748,237.6523,35.108087)"/>
<use data-text="2" xlink:href="#font_2_2" transform="matrix(4.981798,0,0,-4.981748,239.93552,35.108087)"/>
<path transform="matrix(1.0001,0,0,-1.00009,-51.78568,146.07007)" d="M298.351 141.73404C298.351 142.12541 298.03376 142.4427 297.64237 142.4427 297.25099 142.4427 296.9337 142.12541 296.9337 141.73404 296.9337 141.34267 297.25099 141.02539 297.64237 141.02539 298.03376 141.02539 298.351 141.34267 298.351 141.73404ZM297.64237 141.73404"/>
<path transform="matrix(1.0001,0,0,-1.00009,-51.78568,146.07007)" stroke-width=".59776" stroke-linecap="butt" stroke-miterlimit="10" stroke-linejoin="miter" fill="none" stroke="#000000" d="M298.351 141.73404C298.351 142.12541 298.03376 142.4427 297.64237 142.4427 297.25099 142.4427 296.9337 142.12541 296.9337 141.73404 296.9337 141.34267 297.25099 141.02539 297.64237 141.02539 298.03376 141.02539 298.351 141.34267 298.351 141.73404ZM297.64237 141.73404"/>
<use data-text="b" xlink:href="#font_1_1" transform="matrix(6.974498,0,0,-6.9744279,230.7576,5.762436)"/>
<use data-text="5" xlink:href="#font_2_5" transform="matrix(4.981798,0,0,-4.981748,234.26197,6.7585299)"/>
<use data-text="," xlink:href="#font_3_1" transform="matrix(4.981798,0,0,-4.981748,237.6523,6.7585299)"/>
<use data-text="1" xlink:href="#font_2_1" transform="matrix(4.981798,0,0,-4.981748,239.93552,6.7585299)"/>
<use data-text="&#x00b7;" xlink:href="#font_4_1" transform="matrix(6.974498,0,0,-6.9744279,255.86008,119.34366)"/>
<use data-text="&#x00b7;" xlink:href="#font_4_1" transform="matrix(6.974498,0,0,-6.9744279,259.58448,119.34366)"/>
<use data-text="&#x00b7;" xlink:href="#font_4_1" transform="matrix(6.974498,0,0,-6.9744279,263.30885,119.34366)"/>
<use data-text="&#x00b7;" xlink:href="#font_4_1" transform="matrix(6.974498,0,0,-6.9744279,255.86008,90.99411)"/>
<use data-text="&#x00b7;" xlink:href="#font_4_1" transform="matrix(6.974498,0,0,-6.9744279,259.58448,90.99411)"/>
<use data-text="&#x00b7;" xlink:href="#font_4_1" transform="matrix(6.974498,0,0,-6.9744279,263.30885,90.99411)"/>
<use data-text="&#x00b7;" xlink:href="#font_4_1" transform="matrix(6.974498,0,0,-6.9744279,255.86008,62.64456)"/>
<use data-text="&#x00b7;" xlink:href="#font_4_1" transform="matrix(6.974498,0,0,-6.9744279,259.58448,62.64456)"/>
<use data-text="&#x00b7;" xlink:href="#font_4_1" transform="matrix(6.974498,0,0,-6.9744279,263.30885,62.64456)"/>
<use data-text="&#x00b7;" xlink:href="#font_4_1" transform="matrix(6.974498,0,0,-6.9744279,255.86008,34.295015)"/>
<use data-text="&#x00b7;" xlink:href="#font_4_1" transform="matrix(6.974498,0,0,-6.9744279,259.58448,34.295015)"/>
<use data-text="&#x00b7;" xlink:href="#font_4_1" transform="matrix(6.974498,0,0,-6.9744279,263.30885,34.295015)"/>
<use data-text="&#x00b7;" xlink:href="#font_4_1" transform="matrix(6.974498,0,0,-6.9744279,255.86008,5.945465)"/>
<use data-text="&#x00b7;" xlink:href="#font_4_1" transform="matrix(6.974498,0,0,-6.9744279,259.58448,5.945465)"/>
<use data-text="&#x00b7;" xlink:href="#font_4_1" transform="matrix(6.974498,0,0,-6.9744279,263.30885,5.945465)"/>
<path transform="matrix(1.0001,0,0,-1.00009,-51.78568,146.07007)" stroke-width=".59776" stroke-linecap="butt" stroke-miterlimit="10" stroke-linejoin="miter" fill="none" stroke="#000000" d="M60.53883 28.3468H115.2654"/>
<path transform="matrix(1.0001,0,0,-1.00009,63.491254,117.72072)" d="M2.29138 0-1.37483 1.83311 0 0-1.37483-1.83311"/>
<path transform="matrix(1.0001,0,0,-1.00009,-51.78568,146.07007)" stroke-width=".59776" stroke-linecap="butt" stroke-miterlimit="10" stroke-linejoin="miter" fill="none" stroke="#000000" d="M119.06271 29.35431V52.89658"/>
<path transform="matrix(0,-1.00009,-1.0001,-0,67.28894,93.16873)" d="M2.29138 0-1.37483 1.83311 0 0-1.37483-1.83311"/>
<path transform="matrix(1.0001,0,0,-1.00009,-51.78568,146.07007)" stroke-width=".59776" stroke-linecap="butt" stroke-miterlimit="10" stroke-linejoin="miter" fill="none" stroke="#000000" d="M119.9722 56.26053 175.16571 29.97914"/>
<path transform="matrix(.9029103,.4299287,.429933,-.90290126,123.39754,116.08823)" d="M2.29138 0-1.37483 1.83311 0 0-1.37483-1.83311"/>
<path transform="matrix(1.0001,0,0,-1.00009,-51.78568,146.07007)" stroke-width=".59776" stroke-linecap="butt" stroke-miterlimit="10" stroke-linejoin="miter" fill="none" stroke="#000000" d="M178.5941 29.35431 178.59406 52.89658"/>
<path transform="matrix(0,-1.00009,-1.0001,-0,126.82625,93.16873)" d="M2.29138 0-1.37483 1.83311 0 0-1.37483-1.83311"/>
<path transform="matrix(1.0001,0,0,-1.00009,-51.78568,146.07007)" stroke-width=".59776" stroke-linecap="butt" stroke-miterlimit="10" stroke-linejoin="miter" fill="none" stroke="#000000" d="M178.5941 57.70113 178.59406 81.24338"/>
<path transform="matrix(0,-1.00009,-1.0001,-0,126.82625,64.81938)" d="M2.29138 0-1.37483 1.83311 0 0-1.37483-1.83311"/>
<path transform="matrix(1.0001,0,0,-1.00009,-51.78568,146.07007)" stroke-width=".59776" stroke-linecap="butt" stroke-miterlimit="10" stroke-linejoin="miter" fill="none" stroke="#000000" d="M179.32346 84.34567 235.3756 30.9653"/>
<path transform="matrix(.72419247,.689652,.68965896,-.72418519,183.61347,115.10198)" d="M2.29138 0-1.37483 1.83311 0 0-1.37483-1.83311"/>
<path transform="matrix(1.0001,0,0,-1.00009,-51.78568,146.07007)" stroke-width=".59776" stroke-linecap="butt" stroke-miterlimit="10" stroke-linejoin="miter" fill="none" stroke="#000000" d="M238.12554 29.35431 238.1255 52.89658"/>
<path transform="matrix(0,-1.00009,-1.0001,-0,186.36365,93.16873)" d="M2.29138 0-1.37483 1.83311 0 0-1.37483-1.83311"/>
<path transform="matrix(1.0001,0,0,-1.00009,-51.78568,146.07007)" stroke-width=".59776" stroke-linecap="butt" stroke-miterlimit="10" stroke-linejoin="miter" fill="none" stroke="#000000" d="M238.12554 57.70113 238.1255 81.24338"/>
<path transform="matrix(0,-1.00009,-1.0001,-0,186.36365,64.81938)" d="M2.29138 0-1.37483 1.83311 0 0-1.37483-1.83311"/>
<path transform="matrix(1.0001,0,0,-1.00009,-51.78568,146.07007)" stroke-width=".59776" stroke-linecap="butt" stroke-miterlimit="10" stroke-linejoin="miter" fill="none" stroke="#000000" d="M238.12554 86.04793 238.1255 109.5902"/>
<path transform="matrix(0,-1.00009,-1.0001,-0,186.36365,36.47)" d="M2.29138 0-1.37483 1.83311 0 0-1.37483-1.83311"/>
<path transform="matrix(1.0001,0,0,-1.00009,-51.78568,146.07007)" stroke-width=".59776" stroke-linecap="butt" stroke-miterlimit="10" stroke-linejoin="miter" fill="none" stroke="#000000" d="M238.70298 112.56192 295.47898 31.45746"/>
<path transform="matrix(.57352736,.8192837,.81929197,-.5735216,243.72281,114.60978)" d="M2.29138 0-1.37483 1.83311 0 0-1.37483-1.83311"/>
<path transform="matrix(1.0001,0,0,-1.00009,-51.78568,146.07007)" stroke-width=".59776" stroke-linecap="butt" stroke-miterlimit="10" stroke-linejoin="miter" fill="none" stroke="#000000" d="M297.6569 29.35431 297.65687 52.89658"/>
<path transform="matrix(0,-1.00009,-1.0001,-0,245.90097,93.16873)" d="M2.29138 0-1.37483 1.83311 0 0-1.37483-1.83311"/>
<path transform="matrix(1.0001,0,0,-1.00009,-51.78568,146.07007)" stroke-width=".59776" stroke-linecap="butt" stroke-miterlimit="10" stroke-linejoin="miter" fill="none" stroke="#000000" d="M297.6569 57.70113 297.65687 81.24338"/>
<path transform="matrix(0,-1.00009,-1.0001,-0,245.90097,64.81938)" d="M2.29138 0-1.37483 1.83311 0 0-1.37483-1.83311"/>
<path transform="matrix(1.0001,0,0,-1.00009,-51.78568,146.07007)" stroke-width=".59776" stroke-linecap="butt" stroke-miterlimit="10" stroke-linejoin="miter" fill="none" stroke="#000000" d="M297.6569 86.04793 297.65687 109.5902"/>
<path transform="matrix(0,-1.00009,-1.0001,-0,245.90097,36.47)" d="M2.29138 0-1.37483 1.83311 0 0-1.37483-1.83311"/>
<path transform="matrix(1.0001,0,0,-1.00009,-51.78568,146.07007)" stroke-width=".59776" stroke-linecap="butt" stroke-miterlimit="10" stroke-linejoin="miter" fill="none" stroke="#000000" d="M297.6569 114.39474 297.65687 137.937"/>
<path transform="matrix(0,-1.00009,-1.0001,-0,245.90097,8.120651)" d="M2.29138 0-1.37483 1.83311 0 0-1.37483-1.83311"/>
</svg>
